<?xml version="1.0" encoding="UTF-8"?>
<!DOCTYPE svg PUBLIC "-//W3C//DTD SVG 1.1//EN" "http://www.w3.org/Graphics/SVG/1.1/DTD/svg11.dtd">
<!-- Creator: CorelDRAW X5 -->
<svg xmlns="http://www.w3.org/2000/svg" xml:space="preserve" width="1366px" height="1807px" style="shape-rendering:geometricPrecision; text-rendering:geometricPrecision; image-rendering:optimizeQuality; fill-rule:evenodd; clip-rule:evenodd"
viewBox="0 0 1366 1806.65"
 xmlns:xlink="http://www.w3.org/1999/xlink">
 <defs>
  <style type="text/css">
   <![CDATA[
    .fil0 {fill:#96989A}
   ]]>
  </style>
 </defs>
 <g id="Layer_x0020_1">
  <metadata id="CorelCorpID_0Corel-Layer"/>
  <circle class="fil0" cx="1063.26" cy="259.94" r="8.48658"/>
  <circle class="fil0" cx="145.252" cy="162.019" r="8.48658"/>
  <circle class="fil0" cx="1242.58" cy="1781.01" r="8.48658"/>
  <circle class="fil0" cx="1244.41" cy="1323.61" r="8.48658"/>
  <circle class="fil0" cx="698.502" cy="1574.61" r="8.48658"/>
  <circle class="fil0" cx="107.143" cy="1711.62" r="8.48658"/>
  <circle class="fil0" cx="1285.19" cy="794.613" r="8.48658"/>
  <circle class="fil0" cx="834.986" cy="387.267" r="4.2432"/>
  <circle class="fil0" cx="166.673" cy="891.561" r="4.2432"/>
  <circle class="fil0" cx="415.976" cy="1381.17" r="4.2432"/>
  <circle class="fil0" cx="811.984" cy="1547.63" r="4.2432"/>
  <circle class="fil0" cx="941.39" cy="1128.79" r="4.2432"/>
  <circle class="fil0" cx="1195.99" cy="1618.39" r="4.2432"/>
  <circle class="fil0" cx="942.084" cy="491.279" r="5.31342"/>
  <circle class="fil0" cx="273.771" cy="995.573" r="5.31342"/>
  <circle class="fil0" cx="308.878" cy="1485.18" r="5.31342"/>
  <circle class="fil0" cx="704.886" cy="1651.64" r="5.31342"/>
  <circle class="fil0" cx="812.338" cy="561.048" r="5.31342"/>
  <circle class="fil0" cx="144.026" cy="1065.34" r="5.31342"/>
  <circle class="fil0" cx="438.624" cy="1554.95" r="5.31342"/>
  <circle class="fil0" cx="834.632" cy="1721.41" r="5.31342"/>
  <circle class="fil0" cx="501.438" cy="458.649" r="5.31342"/>
  <circle class="fil0" cx="686.264" cy="281.973" r="5.31342"/>
  <circle class="fil0" cx="871.09" cy="105.298" r="5.31342"/>
  <circle class="fil0" cx="1151.39" cy="969.061" r="5.31342"/>
  <circle class="fil0" cx="801.322" cy="803.404" r="5.31342"/>
  <circle class="fil0" cx="858.148" cy="394.515" r="1.39636"/>
  <circle class="fil0" cx="189.836" cy="898.809" r="1.39636"/>
  <circle class="fil0" cx="392.814" cy="1388.41" r="1.39636"/>
  <circle class="fil0" cx="788.822" cy="1554.88" r="1.39636"/>
  <circle class="fil0" cx="550.57" cy="758.427" r="1.39636"/>
  <circle class="fil0" cx="428.088" cy="1414.5" r="1.39636"/>
  <circle class="fil0" cx="911.304" cy="618.045" r="1.39636"/>
  <circle class="fil0" cx="933.515" cy="817.006" r="1.39636"/>
  <circle class="fil0" cx="1119.57" cy="731.67" r="1.39636"/>
  <circle class="fil0" cx="768.658" cy="1127.47" r="1.39636"/>
  <circle class="fil0" cx="512.454" cy="1412.22" r="1.39636"/>
  <circle class="fil0" cx="605.479" cy="1208.69" r="1.39636"/>
  <circle class="fil0" cx="243.249" cy="1298.39" r="1.39636"/>
  <circle class="fil0" cx="385.235" cy="1526.06" r="1.39636"/>
  <circle class="fil0" cx="529.669" cy="1648.11" r="1.39636"/>
  <circle class="fil0" cx="863.652" cy="1603" r="1.39636"/>
  <circle class="fil0" cx="709.426" cy="1328.82" r="1.39636"/>
  <circle class="fil0" cx="709.426" cy="1328.82" r="1.39636"/>
  <circle class="fil0" cx="964.552" cy="1136.04" r="1.39636"/>
  <circle class="fil0" cx="1219.15" cy="1625.64" r="1.39636"/>
  <polygon class="fil0" points="874.004,362.017 875.565,368.261 881.809,369.822 875.565,371.384 874.004,377.627 872.443,371.384 866.199,369.822 872.443,368.261 "/>
  <polygon class="fil0" points="205.691,866.312 207.252,872.555 213.496,874.116 207.252,875.678 205.691,881.921 204.13,875.678 197.886,874.116 204.13,872.555 "/>
  <polygon class="fil0" points="376.958,1355.92 375.397,1362.16 369.153,1363.72 375.397,1365.28 376.958,1371.53 378.519,1365.28 384.763,1363.72 378.519,1362.16 "/>
  <polygon class="fil0" points="772.966,1522.38 771.405,1528.63 765.161,1530.19 771.405,1531.75 772.966,1537.99 774.527,1531.75 780.771,1530.19 774.527,1528.63 "/>
  <polygon class="fil0" points="53.835,1304.94 55.396,1311.19 61.64,1312.75 55.396,1314.31 53.835,1320.55 52.274,1314.31 46.0301,1312.75 52.274,1311.19 "/>
  <polygon class="fil0" points="980.408,1103.54 981.969,1109.78 988.213,1111.34 981.969,1112.9 980.408,1119.15 978.847,1112.9 972.603,1111.34 978.847,1109.78 "/>
  <polygon class="fil0" points="1235,1593.14 1236.56,1599.39 1242.81,1600.95 1236.56,1602.51 1235,1608.75 1233.44,1602.51 1227.2,1600.95 1233.44,1599.39 "/>
  <polygon class="fil0" points="726.133,1330.84 727.694,1337.09 733.938,1338.65 727.694,1340.21 726.133,1346.45 724.572,1340.21 718.328,1338.65 724.572,1337.09 "/>
  <polygon class="fil0" points="918.263,1265.59 919.824,1271.84 926.068,1273.4 919.824,1274.96 918.263,1281.2 916.702,1274.96 910.458,1273.4 916.702,1271.84 "/>
  <polygon class="fil0" points="1172.86,1755.2 1174.42,1761.44 1180.66,1763 1174.42,1764.57 1172.86,1770.81 1171.3,1764.57 1165.05,1763 1171.3,1761.44 "/>
  <polygon class="fil0" points="1230.51,1163.89 1232.07,1170.14 1238.32,1171.7 1232.07,1173.26 1230.51,1179.5 1228.95,1173.26 1222.71,1171.7 1228.95,1170.14 "/>
  <polygon class="fil0" points="877.546,820.728 879.107,826.972 885.351,828.533 879.107,830.094 877.546,836.338 875.985,830.094 869.741,828.533 875.985,826.972 "/>
  <polygon class="fil0" points="469.273,1031.81 470.834,1038.05 477.078,1039.61 470.834,1041.18 469.273,1047.42 467.712,1041.18 461.468,1039.61 467.712,1038.05 "/>
  <polygon class="fil0" points="509.384,1687.88 507.823,1694.12 501.579,1695.69 507.823,1697.25 509.384,1703.49 510.945,1697.25 517.189,1695.69 510.945,1694.12 "/>
  <polygon class="fil0" points="1203.13,249.35 1204.69,255.594 1210.94,257.155 1204.69,258.717 1203.13,264.96 1201.57,258.717 1195.33,257.155 1201.57,255.594 "/>
  <polygon class="fil0" points="1191.34,576.713 1192.9,582.956 1199.14,584.518 1192.9,586.079 1191.34,592.323 1189.78,586.079 1183.53,584.518 1189.78,582.956 "/>
  <polygon class="fil0" points="83.1598,543.115 84.7208,549.359 90.9648,550.92 84.7208,552.481 83.1598,558.725 81.5988,552.481 75.3548,550.92 81.5988,549.359 "/>
  <polygon class="fil0" points="358.687,59.9666 360.248,66.2102 366.492,67.7716 360.248,69.3329 358.687,75.5765 357.126,69.3329 350.882,67.7716 357.126,66.2102 "/>
  <polygon class="fil0" points="108.066,238.673 109.627,244.916 115.871,246.478 109.627,248.039 108.066,254.283 106.505,248.039 100.261,246.478 106.505,244.916 "/>
  <polygon class="fil0" points="556.242,629.165 557.803,635.408 564.047,636.97 557.803,638.531 556.242,644.775 554.681,638.531 548.437,636.97 554.681,635.408 "/>
  <polygon class="fil0" points="908.28,429.784 909.034,434.059 913.31,434.814 909.034,435.568 908.28,439.844 907.525,435.568 903.249,434.814 907.525,434.059 "/>
  <polygon class="fil0" points="239.967,934.078 240.722,938.354 244.997,939.108 240.722,939.862 239.967,944.138 239.213,939.862 234.937,939.108 239.213,938.354 "/>
  <polygon class="fil0" points="342.683,1423.68 341.928,1427.96 337.653,1428.71 341.928,1429.47 342.683,1433.74 343.437,1429.47 347.713,1428.71 343.437,1427.96 "/>
  <polygon class="fil0" points="738.691,1590.15 737.936,1594.43 733.66,1595.18 737.936,1595.93 738.691,1600.21 739.445,1595.93 743.721,1595.18 739.445,1594.43 "/>
  <polygon class="fil0" points="1014.68,1171.3 1015.44,1175.58 1019.71,1176.33 1015.44,1177.09 1014.68,1181.36 1013.93,1177.09 1009.65,1176.33 1013.93,1175.58 "/>
  <polygon class="fil0" points="1269.28,1660.91 1270.03,1665.19 1274.31,1665.94 1270.03,1666.69 1269.28,1670.97 1268.52,1666.69 1264.25,1665.94 1268.52,1665.19 "/>
  <polygon class="fil0" points="466.41,311.994 467.164,316.27 471.44,317.025 467.164,317.779 466.41,322.055 465.655,317.779 461.379,317.025 465.655,316.27 "/>
  <polygon class="fil0" points="359.583,557.553 360.338,561.828 364.613,562.583 360.338,563.337 359.583,567.613 358.829,563.337 354.553,562.583 358.829,561.828 "/>
  <polygon class="fil0" points="557.74,836.762 558.494,841.038 562.77,841.793 558.494,842.547 557.74,846.823 556.985,842.547 552.71,841.793 556.985,841.038 "/>
  <polygon class="fil0" points="420.918,1492.83 420.163,1497.11 415.888,1497.86 420.163,1498.62 420.918,1502.89 421.672,1498.62 425.948,1497.86 421.672,1497.11 "/>
  <polygon class="fil0" points="755.896,1115.97 756.651,1120.25 760.926,1121 756.651,1121.76 755.896,1126.03 755.142,1121.76 750.866,1121 755.142,1120.25 "/>
  <polygon class="fil0" points="60.731,1320.12 61.4853,1324.4 65.7609,1325.15 61.4853,1325.9 60.731,1330.18 59.9763,1325.9 55.7007,1325.15 59.9763,1324.4 "/>
  <polygon class="fil0" points="954.053,1395.18 954.807,1399.46 959.083,1400.21 954.807,1400.97 954.053,1405.24 953.298,1400.97 949.022,1400.21 953.298,1399.46 "/>
 </g>
</svg>
