<?xml version="1.0" encoding="UTF-8"?>
<!DOCTYPE svg PUBLIC "-//W3C//DTD SVG 1.1//EN" "http://www.w3.org/Graphics/SVG/1.1/DTD/svg11.dtd">
<!-- Creator: CorelDRAW X5 -->
<svg xmlns="http://www.w3.org/2000/svg" xml:space="preserve" width="60px" height="72px" style="shape-rendering:geometricPrecision; text-rendering:geometricPrecision; image-rendering:optimizeQuality; fill-rule:evenodd; clip-rule:evenodd"
viewBox="0 0 60 72"
 xmlns:xlink="http://www.w3.org/1999/xlink">
 <defs>
  <style type="text/css">
   <![CDATA[
    .fil4 {fill:#424444}
    .fil2 {fill:#ABC2D0}
    .fil3 {fill:#AD5961}
    .fil0 {fill:#E16B74}
    .fil1 {fill:#FEFEFE}
   ]]>
  </style>
 </defs>
 <g id="Layer_x0020_1">
  <metadata id="CorelCorpID_0Corel-Layer"/>
  <g id="_217414680">
   <path id="_220146352" class="fil0" d="M40.7492 7.56496c1.22126,1.67244 4.1563,2.42008 5.83228,0.761811 1.84724,-1.82835 1.56378,-4.41969 -0.329528,-5.85236 -1.65591,-0.647244 -3.63543,-0.785433 -4.9748,0.764173 -1.02874,1.19528 -1.47165,3.02362 -0.527953,4.32638z"/>
   <path id="_217354008" class="fil1" d="M45.9685 25.3051l0.982677 0.748819c0.660236,0.453543 1.16102,0.551575 1.91339,-0.472441 0.811417,-1.10906 1.53071,-2.60669 0.349606,-3.5811 -1.24724,-1.02874 -2.70472,-1.81063 -4.18346,-2.47559 -1.53661,-0.69685 -3.19252,-1.49409 -4.90866,-1.71969 -0.962598,-0.126378 -2.09055,0.185433 -2.7378,1.01575 -0.751181,0.973228 -0.540945,1.73622 -0.0389764,2.51102l1.53071 0.0330709c0.989764,0.141732 1.97244,0.623622 2.76378,1.04646 1.44567,0.766535 3.16654,1.67953 4.32874,2.8937z"/>
   <path id="_217353456" class="fil0" d="M16.2862 56.524c-0.0141732,0.11811 -0.126378,0.235039 -0.270472,0.177165 -0.514961,-0.207874 -1.14803,0.0318898 -1.39252,0.569291 -0.217323,0.470079 0.125197,0.894094 0.627165,0.897638 0.454724,0.0023622 0.956693,-0.232677 1.1811,-0.654331 0.243307,-0.442913 0.0188976,-0.667323 -0.145276,-0.989764z"/>
   <path id="_217355256" class="fil0" d="M56.0551 5.05866c0.858661,0.222047 1.99961,-0.124016 1.95354,-1.2189 -0.0330709,-0.790157 -0.540945,-1.00748 -1.15512,-1.10433 -0.441732,0.135827 -0.850394,0.394488 -1.14803,0.766535 -0.480709,0.607087 -0.474803,1.34291 0.349606,1.55669z"/>
   <path id="_217354872" class="fil0" d="M24.1701 57.0508c0,-0.154724 -0.0271654,-0.318898 0.00590551,-0.470079 -0.0318898,0.0224409 -0.0649606,0.0389764 -0.11811,0.0401575 -0.349606,0.0188976 -1.55669,0.709843 -1.02992,1.1374 0.303543,0.242126 0.732283,0.170079 0.950787,-0.185433 0.0992126,-0.154724 0.191339,-0.338976 0.191339,-0.522047z"/>
   <path id="_217355304" class="fil0" d="M51.2787 14.8665c1.10906,0.597638 2.33622,0.0330709 2.89606,-1.11142 0.198425,-0.408661 0.415748,-1.03583 0.152362,-1.44567 -0.0330709,-0.0413386 -0.0661417,-0.0744094 -0.092126,-0.108661 -0.851575,-0.504331 -1.98661,-0.359055 -2.76496,0.373228 -0.666142,0.624803 -1.18701,1.7563 -0.191339,2.29252z"/>
   <path id="_217355088" class="fil2" d="M31.9358 65.4472c-5.10709,1.57087 -10.9323,0.788976 -15.6697,-1.19882 -9.43465,-3.95906 -15.4051,-15.6933 -5.86535,-23.6965 0.0791339,-0.0673228 0.165354,-0.092126 0.250394,-0.092126 0.0271654,-0.0212598 0.0531496,-0.0377953 0.0791339,-0.0496063 4.63228,-3.22795 11.1496,2.17441 14.6268,4.60984 2.52756,1.77402 4.68425,3.41929 7.75276,4.20591 1.64882,0.425197 3.17244,0.861024 4.6311,1.72913 1.57677,0.938976 3.53622,3.13937 2.89606,5.13543 0,0.00354331 0,0.00472441 0,0.00590551 -0.592913,4.0252 -5.08583,8.23701 -8.70118,9.35079zm12.7724 -11.3173c-0.376772,-5.40709 -3.85276,-8.74724 -7.75276,-11.6976l-1.56969 -1.15512 0.65315 -0.993307c1.39843,-2.07874 2.83701,-4.12913 4.12323,-6.16772 1.60394,-2.54882 3.20669,-5.10827 4.93465,-7.58031 -1.29921,-0.759449 -2.44724,-1.77402 -3.78661,-2.49803 -1.10197,-0.602362 -2.23701,-1.02047 -3.41102,-1.4315 -2.18976,2.84528 -4.29449,5.75551 -6.38622,8.68701 -0.640157,0.9 -1.28622,1.82126 -1.93346,2.74488l-0.817323 1.13976 -1.62283 -0.579921c-7.67362,-2.31614 -17.3787,0.441732 -21.8917,7.69724 -5.5937,8.99173 -0.046063,18.1795 7.9311,22.5319 7.05236,3.85157 17.8594,6.44409 25.4327,1.36299 3.92008,-2.63031 6.42638,-7.37953 6.09685,-12.0602z"/>
   <path id="_217355064" class="fil1" d="M38.6185 27.887c-1.70197,1.3063 -2.68583,3.09685 -3.64252,4.95591 -1.20709,2.33622 -2.46732,4.29921 -4.2685,6.21024 -0.870472,0.925984 -2.99528,2.7874 -1.97835,4.18937 1.08189,1.49173 2.9752,2.27244 4.59803,3.04606 2.1248,1.01339 4.80354,2.21929 5.75315,4.57205 0.237402,0.595276 0.415748,1.17756 0.548031,1.74094 0.844488,1.02756 1.39134,2.29488 1.00866,3.48898 0,0.00354331 0,0.00472441 0,0.00590551 -0.592913,4.0252 -5.08583,8.23701 -8.70236,9.35079 -1.44449,0.444094 -2.94921,0.694488 -4.47283,0.787795 2.11772,1.03346 4.42087,1.91575 6.73583,2.00079 1.55079,-0.454724 3.03543,-1.12087 4.41378,-2.04567 3.92008,-2.63031 6.42638,-7.37953 6.09685,-12.0602 -0.376772,-5.40709 -3.85276,-8.74724 -7.75276,-11.6976l-1.56969 -1.15512 0.65315 -0.993307c1.39843,-2.07874 2.83701,-4.12913 4.12323,-6.16772 1.4315,-2.27008 2.85709,-4.54724 4.37362,-6.76417 -1.88622,-0.261024 -4.38661,-0.640157 -5.91732,0.535039z"/>
   <path id="_217354968" class="fil0" d="M22.7256 58.3016c-1.09606,-0.804331 0.335433,-2.15551 1.33228,-2.10591 0.151181,0.00708661 0.217323,0.142913 0.197244,0.259843 0.0330709,-0.0248031 0.0791339,-0.0354331 0.119291,-0.0224409 0.627165,0.186614 0.349606,1.16457 0.046063,1.54724 -0.421654,0.532677 -1.14803,0.722835 -1.69488,0.32126zm-2.03858 2.35276c-0.343701,-0.00590551 -0.713386,-0.111024 -0.957874,-0.359055 -0.190157,-0.200787 -0.329528,-0.491339 -0.184252,-0.774803 0.165354,-0.330709 0.548031,-0.422835 0.877559,-0.459449 0.211417,-0.0259843 0.263386,0.318898 0.0531496,0.367323 -0.329528,0.0779528 -0.732283,0.295276 -0.283465,0.544488 0.184252,0.102756 0.388583,0.148819 0.605906,0.121654 0.244488,-0.0283465 0.509055,-0.243307 0.73937,-0.177165 0.0732283,0.0200787 0.145276,0.0838583 0.138189,0.167717 -0.0389764,0.41811 -0.646063,0.575197 -0.988583,0.569291zm-5.86535 -1.8685c-0.811417,-0.270472 -1.1811,-1.0748 -0.680315,-1.85197 0.455906,-0.702756 1.35945,-0.956693 2.05866,-0.575197 0.0129921,0.00590551 0.0129921,0.0200787 0.0259843,0.0295276 -0.0129921,-0.0295276 -0.0259843,-0.0566929 -0.0389764,-0.0885827 -0.0330709,-0.119291 0.0661417,-0.255118 0.191339,-0.259843 0.916535,-0.034252 1.06181,1.25669 0.633071,1.86378 -0.494882,0.702756 -1.36535,1.15748 -2.18976,0.882283zm2.57244 -6.69449c0.231496,-0.483071 0.811417,-0.235039 1.13504,-0.0507874 0.231496,0.133465 0.0389764,0.455906 -0.198425,0.367323 -0.11811,-0.0448819 -0.329528,-0.116929 -0.434646,-0.092126 -0.00708661,0.0011811 -0.00708661,-0.0011811 -0.0141732,0 0.00708661,0.180709 0.145276,0.43937 0.284646,0.622441 0.0661417,0.0885827 0.17126,0.19252 0.270472,0.265748 0.0531496,0.0366142 0.158268,0.0708661 0.184252,0.0685039 -0.0330709,0.00354331 0.0330709,-0.0307087 -0.00708661,0.00354331 0.0602362,-0.0555118 0.0602362,-0.0614173 0.0933071,-0.127559 0.0791339,-0.172441 0.138189,-0.346063 0.283465,-0.477165 0.0791339,-0.0732283 0.191339,-0.0732283 0.250394,0.0200787 0.270472,0.409843 -0.092126,1.17047 -0.620079,1.18701 -0.42874,0.0106299 -0.758268,-0.325984 -0.982677,-0.649606 -0.204331,-0.301181 -0.42874,-0.759449 -0.244488,-1.1374zm-2.92913 0.565748c-0.494882,0.258661 -1.18701,0.174803 -1.47756,-0.316535 -0.31063,-0.51378 -0.158268,-1.19291 0.316535,-1.59921 0.395669,-0.338976 0.943701,-0.519685 1.33937,-0.12874 0.138189,0.137008 -0.0330709,0.376772 -0.204331,0.28937 -0.553937,-0.276378 -1.33937,0.625984 -0.956693,1.12677 0.191339,0.243307 0.559843,0.253937 0.817323,0.0708661 0.277559,-0.196063 0.185433,-0.458268 0.356693,-0.699213 0.0531496,-0.0755906 0.145276,-0.122835 0.231496,-0.0779528 0.574016,0.309449 -0.034252,1.13386 -0.422835,1.33465zm20.3067 4.62165c-3.17244,-0.389764 -6.4122,-1.5189 -9.19606,-2.98228 -0.178346,-0.0933071 -0.0330709,-0.360236 0.151181,-0.284646 3.96496,1.63346 9.85039,3.62244 13.7693,0.702756 -0.969685,-2.9315 -5.01378,-3.75709 -7.62047,-4.56378 -3.10039,-0.961417 -5.49567,-2.92205 -8.09528,-4.75276 -3.87874,-2.72126 -7.44213,-5.15315 -12.3366,-4.27441 1.49764,2.38465 3.03425,4.51772 5.25118,6.35906 1.86024,1.54843 3.95906,2.75197 5.83228,4.27205 0.178346,0.146457 0,0.46063 -0.224409,0.405118 -4.38661,-1.12087 -10.5425,-6.12992 -11.6717,-10.8354 -3.1063,3.44173 -5.04685,7.18465 -3.48307,11.7839 1.61693,4.74094 5.04094,8.25591 9.75118,9.96969 4.11024,1.49646 9.35551,2.76496 13.8024,1.40197 2.44134,-0.752362 4.69724,-2.00551 6.26102,-4.15157 0.837402,-1.15866 1.4185,-2.4189 2.07756,-3.64252 -1.25315,0.693307 -3.16654,0.72874 -4.2685,0.592913z"/>
   <path id="_217354824" class="fil3" d="M22.7256 58.3016c-1.09606,-0.804331 0.335433,-2.15551 1.33228,-2.10591 0.151181,0.00708661 0.217323,0.142913 0.197244,0.259843 0.0330709,-0.0248031 0.0791339,-0.0354331 0.119291,-0.0224409 0.627165,0.186614 0.349606,1.16457 0.046063,1.54724 -0.421654,0.532677 -1.14803,0.722835 -1.69488,0.32126zm-2.03858 2.35276c-0.343701,-0.00590551 -0.713386,-0.111024 -0.957874,-0.359055 -0.190157,-0.200787 -0.329528,-0.491339 -0.184252,-0.774803 0.165354,-0.330709 0.548031,-0.422835 0.877559,-0.459449 0.211417,-0.0259843 0.263386,0.318898 0.0531496,0.367323 -0.329528,0.0779528 -0.732283,0.295276 -0.283465,0.544488 0.184252,0.102756 0.388583,0.148819 0.605906,0.121654 0.244488,-0.0283465 0.509055,-0.243307 0.73937,-0.177165 0.0732283,0.0200787 0.145276,0.0838583 0.138189,0.167717 -0.0389764,0.41811 -0.646063,0.575197 -0.988583,0.569291zm-5.86535 -1.8685c-0.811417,-0.270472 -1.1811,-1.0748 -0.680315,-1.85197 0.455906,-0.702756 1.35945,-0.956693 2.05866,-0.575197 0.0129921,0.00590551 0.0129921,0.0200787 0.0259843,0.0295276 -0.0129921,-0.0295276 -0.0259843,-0.0566929 -0.0389764,-0.0885827 -0.0330709,-0.119291 0.0661417,-0.255118 0.191339,-0.259843 0.916535,-0.034252 1.06181,1.25669 0.633071,1.86378 -0.494882,0.702756 -1.36535,1.15748 -2.18976,0.882283zm2.57244 -6.69449c0.231496,-0.483071 0.811417,-0.235039 1.13504,-0.0507874 0.231496,0.133465 0.0389764,0.455906 -0.198425,0.367323 -0.11811,-0.0448819 -0.329528,-0.116929 -0.434646,-0.092126 -0.00708661,0.0011811 -0.00708661,-0.0011811 -0.0141732,0 0.00708661,0.180709 0.145276,0.43937 0.284646,0.622441 0.0661417,0.0885827 0.17126,0.19252 0.270472,0.265748 0.0531496,0.0366142 0.158268,0.0708661 0.184252,0.0685039 -0.0330709,0.00354331 0.0330709,-0.0307087 -0.00708661,0.00354331 0.0602362,-0.0555118 0.0602362,-0.0614173 0.0933071,-0.127559 0.0791339,-0.172441 0.138189,-0.346063 0.283465,-0.477165 0.0791339,-0.0732283 0.191339,-0.0732283 0.250394,0.0200787 0.270472,0.409843 -0.092126,1.17047 -0.620079,1.18701 -0.42874,0.0106299 -0.758268,-0.325984 -0.982677,-0.649606 -0.204331,-0.301181 -0.42874,-0.759449 -0.244488,-1.1374zm-2.92913 0.565748c-0.494882,0.258661 -1.18701,0.174803 -1.47756,-0.316535 -0.31063,-0.51378 -0.158268,-1.19291 0.316535,-1.59921 0.395669,-0.338976 0.943701,-0.519685 1.33937,-0.12874 0.138189,0.137008 -0.0330709,0.376772 -0.204331,0.28937 -0.553937,-0.276378 -1.33937,0.625984 -0.956693,1.12677 0.191339,0.243307 0.559843,0.253937 0.817323,0.0708661 0.277559,-0.196063 0.185433,-0.458268 0.356693,-0.699213 0.0531496,-0.0755906 0.145276,-0.122835 0.231496,-0.0779528 0.574016,0.309449 -0.034252,1.13386 -0.422835,1.33465zm12.6083 9.44055c-1.00984,-3.09567 1.47047,-4.12441 3.47598,-5.74724 -1.73504,-0.537402 -3.42992,-1.24134 -4.97362,-2.05394 -0.178346,-0.0933071 -0.0330709,-0.360236 0.151181,-0.284646 1.22717,0.506693 2.64567,1.04646 4.12323,1.46339 -2.57244,-1.06181 -5.03976,-2.05039 -7.38189,-3.3437 -0.0531496,0.0283465 -0.106299,0.0437008 -0.165354,0.0283465 -4.38661,-1.12087 -10.5425,-6.12992 -11.6717,-10.8354 -3.1063,3.44173 -5.04685,7.18465 -3.48307,11.7839 1.61693,4.74094 5.04094,8.25591 9.75118,9.96969 4.03819,1.47165 9.17717,2.71654 13.5709,1.46102 -1.55669,-0.317717 -2.94921,-1.03701 -3.39685,-2.44134z"/>
   <path id="_217354320" class="fil1" d="M46.4634 7.06299c0.355512,-0.898819 0.533858,-1.88504 -0.0933071,-2.67756 -0.23622,-0.303543 -0.587008,-0.618898 -1.02874,-0.542126 -0.224409,0.0413386 -0.362598,0.0484252 -0.566929,0.179528 -0.250394,0.159449 -0.522047,0.457087 -0.561024,0.764173 0,0.0437008 -0.0129921,0.0885827 -0.0271654,0.133465 0.0011811,0.00944882 0,0.011811 0,0.0188976 -0.092126,0.210236 -0.184252,0.420472 -0.250394,0.647244 0,0.00354331 0,0.00354331 0,0.00354331 -0.0200787,0.0484252 -0.046063,0.0968504 -0.0720472,0.144094 -0.389764,0.727559 -0.125197,1.63701 0.579921,1.99843 0.640157,0.328346 1.72205,0.0980315 2.01969,-0.669685z"/>
   <path id="_217354608" class="fil1" d="M53.7 14.002c0.555118,-0.611811 -0.336614,-1.45276 -0.890551,-0.83622 -0.0720472,0.0814961 -0.138189,0.170079 -0.197244,0.263386 -0.185433,0.294094 -0.0401575,0.693307 0.243307,0.838583 0.330709,0.167717 0.647244,0.0011811 0.851575,-0.281102 0,0.00472441 0,0.0106299 -0.00708661,0.0153543z"/>
   <path id="_217354464" class="fil1" d="M57.7051 3.84213c0.0259843,-0.262205 -0.132283,-0.638976 -0.448819,-0.612992 -0.0259843,0.00354331 -0.046063,0.00472441 -0.0720472,0.00708661 -0.290551,0.0248031 -0.514961,0.261024 -0.522047,0.555118 0.0011811,0.0366142 0,0.0720472 0,0.108661 -0.00590551,0.283465 0.251575,0.509055 0.527953,0.493701 0.303543,-0.0165354 0.48189,-0.266929 0.514961,-0.551575z"/>
   <path id="_217354848" class="fil1" d="M36.3555 59.4213c0.231496,-0.525591 -0.461811,-0.883465 -0.772441,-0.392126 -0.975591,1.53898 -2.65866,2.06102 -4.20827,2.79094 -0.864567,0.402756 -0.435827,1.89803 0.480709,1.74331 2.22402,-0.372047 3.62244,-2.17441 4.5,-4.14213z"/>
   <path id="_217354392" class="fil4" d="M38.6126 66.1902c-7.57441,5.0811 -18.3815,2.48858 -25.4339,-1.36299 -7.97717,-4.35236 -13.5248,-13.5402 -7.9311,-22.5319 4.51299,-7.25551 14.2181,-10.0134 21.8906,-7.69724l1.62402 0.579921 0.817323 -1.13976c0.647244,-0.923622 1.29331,-1.84488 1.93346,-2.74488 2.09173,-2.9315 4.19528,-5.84173 6.38622,-8.68701 1.17402,0.411024 2.30906,0.829134 3.41102,1.4315 1.33937,0.724016 2.4874,1.73858 3.78661,2.49803 -1.72795,2.47205 -3.33189,5.0315 -4.93465,7.58031 -1.28622,2.03858 -2.7248,4.08898 -4.12323,6.16772l-0.65315 0.993307 1.56969 1.15512c3.9,2.95039 7.37598,6.29055 7.75276,11.6976 0.329528,4.68071 -2.17795,9.42992 -6.09567,12.0602zm-1.26732 -44.8583c-0.501969,-0.774803 -0.712205,-1.5378 0.0389764,-2.51102 0.647244,-0.830315 1.7752,-1.14213 2.7378,-1.01575 1.71614,0.225591 3.37205,1.02283 4.90866,1.71969 1.47874,0.664961 2.93622,1.44685 4.18346,2.47559 1.1811,0.974409 0.461811,2.47205 -0.349606,3.5811 -0.752362,1.02402 -1.25315,0.925984 -1.91339,0.472441l-0.982677 -0.748819c-1.16102,-1.21417 -2.88307,-2.12717 -4.32874,-2.8937 -0.791339,-0.422835 -1.77402,-0.904724 -2.76378,-1.04646l-1.53071 -0.0330709zm9.05197 32.7047c0.0389764,-5.6185 -4.07717,-10.0488 -8.68937,-12.8327 1.06181,-1.77992 2.06457,-3.58937 3.09449,-5.26535 1.81417,-2.97047 3.6685,-5.91969 5.51575,-8.8689 0.454724,0.318898 0.923622,0.62126 1.39843,0.940157 0.244488,0.157087 0.579921,0.0389764 0.778346,-0.148819 1.49173,-1.41378 3.94488,-4.3122 2.18386,-6.30591 -1.92047,-2.18268 -5.10591,-3.40157 -7.79173,-4.38071 -1.94646,-0.711024 -4.33465,-1.34291 -6.10276,0.38622 -1.4185,1.38425 -1.85433,3.6437 -0.184252,4.65591 -1.94646,2.32087 -3.74764,4.75866 -5.52283,7.21063 -0.962598,1.32874 -1.96535,2.63386 -2.96811,3.93307 -7.7126,-3.05906 -17.8276,0.270472 -23.2701,6.90354 -7.54134,9.18661 -1.90039,20.0516 6.32008,25.402 7.95118,5.17559 20.7756,7.53898 29.2937,1.27087 4.10315,-3.0189 5.91732,-8.06102 5.94449,-12.9z"/>
   <path id="_217354200" class="fil4" d="M30.7016 64.4799c-4.44685,1.36299 -9.69213,0.0944882 -13.8024,-1.40197 -4.71024,-1.71378 -8.13425,-5.22874 -9.75118,-9.96969 -1.56378,-4.59921 0.376772,-8.34213 3.48307,-11.7839 1.12913,4.70551 7.28386,9.71457 11.6717,10.8354 0.224409,0.0555118 0.402756,-0.258661 0.224409,-0.405118 -1.87323,-1.52008 -3.97205,-2.72362 -5.83228,-4.27205 -2.21693,-1.84134 -3.75354,-3.97441 -5.25118,-6.35906 4.89449,-0.87874 8.45787,1.55315 12.3366,4.27441 2.59961,1.83071 4.99488,3.79134 8.09528,4.75276 2.60669,0.806693 6.65079,1.63228 7.62047,4.56378 -3.9189,2.91969 -9.80433,0.930709 -13.7693,-0.702756 -0.184252,-0.0755906 -0.329528,0.191339 -0.151181,0.284646 2.78386,1.46339 6.02244,2.59252 9.19606,2.98228 1.10197,0.135827 3.01535,0.100394 4.2685,-0.592913 -0.659055,1.22362 -1.24016,2.48386 -2.07756,3.64252 -1.56378,2.14606 -3.81969,3.39921 -6.26102,4.15157zm9.93543 -8.38346c0,-0.0011811 0,-0.0023622 0,-0.00590551 0.640157,-1.99606 -1.31929,-4.19646 -2.89606,-5.13543 -1.45748,-0.86811 -2.98228,-1.30394 -4.6311,-1.72913 -3.0685,-0.786614 -5.2252,-2.43189 -7.75276,-4.20591 -3.47717,-2.43543 -9.99449,-7.8378 -14.6268,-4.60984 -0.0259843,0.011811 -0.0519685,0.0283465 -0.0791339,0.0496063 -0.0850394,0 -0.17126,0.0248031 -0.250394,0.092126 -9.53976,8.00315 -3.56929,19.7374 5.86535,23.6965 4.7374,1.9878 10.5626,2.76969 15.6685,1.19882 3.61654,-1.11378 8.10827,-5.32559 8.70236,-9.35079z"/>
   <path id="_217354368" class="fil4" d="M14.8878 51.3224c-0.0862205,-0.0448819 -0.178346,0.0023622 -0.231496,0.0779528 -0.17126,0.240945 -0.0791339,0.50315 -0.356693,0.699213 -0.25748,0.183071 -0.625984,0.172441 -0.817323,-0.0708661 -0.382677,-0.500787 0.401575,-1.40197 0.956693,-1.12677 0.17126,0.0874016 0.34252,-0.152362 0.204331,-0.28937 -0.395669,-0.390945 -0.943701,-0.210236 -1.33937,0.12874 -0.474803,0.406299 -0.627165,1.08543 -0.316535,1.59921 0.290551,0.491339 0.982677,0.575197 1.47756,0.316535 0.389764,-0.200787 0.995669,-1.0252 0.422835,-1.33465z"/>
   <path id="_217413528" class="fil4" d="M19.2413 52.6913c-0.0590551,-0.0933071 -0.17126,-0.0933071 -0.250394,-0.0200787 -0.145276,0.131102 -0.204331,0.304724 -0.283465,0.477165 -0.0330709,0.0661417 -0.0330709,0.0720472 -0.0933071,0.127559 0.0401575,-0.034252 -0.0259843,0 0.00708661,-0.00354331 -0.0259843,0.0023622 -0.132283,-0.0318898 -0.184252,-0.0685039 -0.0992126,-0.0732283 -0.205512,-0.177165 -0.270472,-0.265748 -0.13937,-0.183071 -0.277559,-0.441732 -0.284646,-0.622441 0.00708661,-0.0011811 0.00708661,0.0011811 0.0141732,0 0.105118,-0.0248031 0.316535,0.0472441 0.434646,0.092126 0.238583,0.0885827 0.42874,-0.233858 0.198425,-0.367323 -0.323622,-0.184252 -0.903543,-0.432283 -1.13504,0.0507874 -0.184252,0.377953 0.0401575,0.83622 0.244488,1.1374 0.224409,0.323622 0.553937,0.660236 0.982677,0.649606 0.527953,-0.0165354 0.890551,-0.777165 0.620079,-1.18701z"/>
   <path id="_217413408" class="fil4" d="M15.2504 58.1681c-0.501969,-0.00354331 -0.844488,-0.427559 -0.627165,-0.897638 0.244488,-0.537402 0.877559,-0.777165 1.39252,-0.569291 0.145276,0.057874 0.256299,-0.0590551 0.270472,-0.177165 0.164173,0.322441 0.388583,0.54685 0.145276,0.989764 -0.224409,0.421654 -0.726378,0.656693 -1.1811,0.654331zm1.76102 -0.264567c0.42874,-0.607087 0.283465,-1.89803 -0.633071,-1.86378 -0.125197,0.00472441 -0.224409,0.140551 -0.191339,0.259843 0.0129921,0.0318898 0.0259843,0.0590551 0.0389764,0.0885827 -0.0129921,-0.00944882 -0.0129921,-0.023622 -0.0259843,-0.0295276 -0.699213,-0.381496 -1.60276,-0.127559 -2.05866,0.575197 -0.500787,0.777165 -0.131102,1.5815 0.680315,1.85197 0.824409,0.275197 1.69488,-0.179528 2.18976,-0.882283z"/>
   <path id="_217413144" class="fil4" d="M23.0291 57.7583c-0.527953,-0.427559 0.679134,-1.1185 1.02874,-1.1374 0.0531496,-0.0011811 0.0850394,-0.0177165 0.11811,-0.0401575 -0.0318898,0.151181 -0.00590551,0.315354 -0.00590551,0.470079 0,0.183071 -0.092126,0.367323 -0.191339,0.522047 -0.217323,0.355512 -0.647244,0.427559 -0.949606,0.185433zm1.34528 -1.3252c-0.0389764,-0.0129921 -0.0862205,-0.0023622 -0.119291,0.0224409 0.0200787,-0.116929 -0.046063,-0.252756 -0.197244,-0.259843 -0.995669,-0.0496063 -2.42835,1.30157 -1.33228,2.10591 0.54685,0.401575 1.27323,0.211417 1.69488,-0.32126 0.303543,-0.382677 0.581102,-1.36063 -0.046063,-1.54724z"/>
   <path id="_217413024" class="fil4" d="M21.6756 60.085c0.00708661,-0.0838583 -0.0649606,-0.147638 -0.138189,-0.167717 -0.230315,-0.0661417 -0.494882,0.148819 -0.73937,0.177165 -0.217323,0.0271654 -0.421654,-0.0188976 -0.605906,-0.121654 -0.448819,-0.249213 -0.0472441,-0.466535 0.283465,-0.544488 0.211417,-0.0484252 0.158268,-0.393307 -0.0531496,-0.367323 -0.329528,0.0366142 -0.712205,0.129921 -0.877559,0.459449 -0.145276,0.283465 -0.00708661,0.574016 0.184252,0.774803 0.244488,0.248031 0.614173,0.35315 0.956693,0.359055 0.343701,0.00590551 0.950787,-0.151181 0.989764,-0.569291z"/>
   <path id="_217414608" class="fil4" d="M40.7492 7.56496c-0.94252,-1.30276 -0.500787,-3.12992 0.527953,-4.32638 1.33937,-1.54961 3.3189,-1.41142 4.9748,-0.764173 1.89331,1.43268 2.17677,4.02402 0.329528,5.85236 -1.67598,1.65827 -4.61102,0.91063 -5.83228,-0.761811zm5.84528 -5.3185c-0.00590551,-0.0401575 -0.0188976,-0.0779528 -0.0661417,-0.109843 -4.04409,-2.93268 -9.36142,2.50866 -6.19488,6.39685 1.72205,2.11535 5.15315,2.16969 7.12559,0.210236 2.08465,-2.06457 1.31929,-5.21102 -0.864567,-6.49724z"/>
   <path id="_217414704" class="fil4" d="M51.2787 14.8665c-0.995669,-0.53622 -0.474803,-1.66772 0.191339,-2.29252 0.779528,-0.732283 1.91339,-0.877559 2.76496,-0.373228 0.0259843,0.034252 0.0590551,0.0673228 0.092126,0.108661 0.264567,0.409843 0.046063,1.03701 -0.152362,1.44567 -0.559843,1.14449 -1.78701,1.71024 -2.89606,1.11142zm3.70157 -1.12913c0.553937,-1.49646 -0.369685,-2.84882 -1.90039,-2.41654 -2.22992,-0.0177165 -4.45276,2.99528 -2.0315,4.30039 1.5437,0.831496 3.35079,-0.316535 3.93189,-1.88386z"/>
   <path id="_217414536" class="fil4" d="M56.0551 5.05866c-0.824409,-0.21378 -0.830315,-0.949606 -0.349606,-1.55669 0.297638,-0.373228 0.706299,-0.630709 1.14803,-0.766535 0.614173,0.0968504 1.12205,0.314173 1.15512,1.10433 0.046063,1.09488 -1.09488,1.44094 -1.95354,1.2189zm2.63976 -1.14803c0.112205,-1.29449 -1.24016,-2.26535 -2.42835,-1.64173 -0.046063,0.0259843 -0.0720472,0.0732283 -0.092126,0.121654 -0.454724,0.224409 -0.864567,0.585827 -1.15512,1.0063 -0.758268,1.0748 -0.0980315,2.08346 1.00394,2.36693 1.29213,0.336614 2.55236,-0.499606 2.67165,-1.85315z"/>
  </g>
 </g>
</svg>
