<?xml version="1.0" encoding="UTF-8"?>
<!DOCTYPE svg PUBLIC "-//W3C//DTD SVG 1.1//EN" "http://www.w3.org/Graphics/SVG/1.1/DTD/svg11.dtd">
<!-- Creator: CorelDRAW X5 -->
<?xml-stylesheet href="apple.css" type="text/css"?>
<svg xmlns="http://www.w3.org/2000/svg" xml:space="preserve" width="30px" height="38px" style="shape-rendering:geometricPrecision; text-rendering:geometricPrecision; image-rendering:optimizeQuality; fill-rule:evenodd; clip-rule:evenodd"
viewBox="0 0 30 37.9984"
 xmlns:xlink="http://www.w3.org/1999/xlink">
 <g id="Layer_x0020_1">
  <metadata id="CorelCorpID_0Corel-Layer"/>
  <g id="_1140382008">
   <path id="_219965984" class="fil0" d="M9.59528 3.2374c-0.0732283,-0.206693 0.235039,-0.318898 0.343701,-0.145276 1.90157,3.05433 3.38031,6.76063 3.85748,10.3949 2.59252,-4.65354 -0.545669,-9.12047 -4.78465,-11.7803 -1.2378,5.16142 0.918898,8.80157 4.0252,12.7961 -0.524409,-4.06654 -2.06339,-7.42913 -3.44173,-11.2654z"/>
   <path id="_219966440" class="fil1" d="M7.57205 13.9488c-0.806693,-0.411024 -1.77992,-0.851575 -2.71654,-0.732283 -0.685039,0.0862205 -1.06654,0.445276 -1.42323,0.861024 2.39173,-0.488976 5.4189,0.962598 7.36299,2.72717 -0.845669,-1.17165 -1.85787,-2.15787 -3.22323,-2.85591z"/>
   <path id="_219966272" class="fil2" d="M8.49685 23.622c-0.183071,-0.3 -0.47126,-0.566929 -0.811417,-0.679134 -0.227953,-0.0744094 -0.457087,-0.0779528 -0.68622,-0.108661 -0.216142,0.403937 -0.325984,0.884646 -0.320079,1.32992 0.00708661,0.387402 0.100394,1.13386 0.644882,1.09724 0.724016,-0.0507874 1.6311,-0.891732 1.17283,-1.63937z"/>
   <path id="_219966128" class="fil3" d="M10.1929 31.4386c-0.394488,1.05118 -1.85906,-0.622441 -2.07165,-0.976772 -0.49252,-0.820866 -0.938976,-1.90984 -0.975591,-2.8748 -0.0318898,-0.877559 0.575197,-1.13386 1.26732,-0.629528 0.0956693,0.069685 0.0401575,0.259843 -0.0897638,0.209055 -0.216142,-0.0862205 -0.706299,-0.329528 -0.772441,0.0472441 -0.0531496,0.314173 0.0153543,0.656693 0.092126,0.961417 0.167717,0.670866 0.403937,1.35354 0.744094,1.95827 0.226772,0.402756 0.58937,0.818504 0.976772,1.07244 0.556299,0.367323 0.572835,-0.172441 0.468898,-0.622441 -0.266929,-1.15157 -1.09488,-1.97362 -1.51181,-3.04606 -0.0507874,-0.132283 0.146457,-0.242126 0.23622,-0.138189 0.601181,0.687402 1.16102,1.62992 1.46811,2.49685 0.164173,0.466535 0.351969,1.05354 0.167717,1.54252zm-3.21732 -9.07913c0.0555118,-0.0389764 0.124016,-0.0188976 0.167717,0.023622 0.725197,-0.144094 1.61811,0.595276 1.87323,1.18937 0.416929,0.975591 -0.452362,2.06339 -1.43386,2.21575 -1.8685,0.290551 -1.7126,-2.64449 -0.607087,-3.42874zm12.5114 -7.01693c-2.5689,-0.408661 -4.41142,1.01811 -6.19724,2.58543 0.527953,0.138189 1.04409,0.327165 1.53898,0.588189 0.291732,0.153543 0.0767717,0.544488 -0.209055,0.497244 -0.851575,-0.142913 -1.73976,-0.240945 -2.62677,-0.259843 -0.080315,0.0389764 -0.175984,0.0437008 -0.262205,-0.00354331 -2.29843,-0.00354331 -4.55197,0.587008 -6.07795,2.55354 -2.1626,2.78622 -1.47756,6.12874 0.355512,8.88898 1.64528,2.47677 4.11969,5.15669 7.12559,5.90787 4.24134,1.06181 5.8252,-2.00433 6.43701,-5.62795 0.0814961,-0.48189 0.790157,-0.333071 0.814961,0.109843 0.0259843,0.506693 0.00354331,1.0122 -0.057874,1.50827 3.29646,-0.43937 5.76024,-1.90866 5.97638,-5.55236 0.141732,-2.38228 -0.395669,-4.83071 -1.61929,-6.89528 -1.13386,-1.91102 -2.86772,-3.92835 -5.19803,-4.30039z"/>
   <path id="_219966080" class="fil2" d="M8.46732 27.8681c-0.18189,-0.277559 -0.354331,-0.558661 -0.529134,-0.838583 -0.180709,-0.0401575 -0.350787,-0.0259843 -0.387402,0.184252 -0.0531496,0.314173 0.0153543,0.656693 0.092126,0.961417 0.167717,0.670866 0.403937,1.35354 0.744094,1.95827 0.226772,0.402756 0.58937,0.818504 0.976772,1.07244 0.556299,0.367323 0.572835,-0.172441 0.468898,-0.622441 -0.238583,-1.0311 -0.925984,-1.79764 -1.36535,-2.71535z"/>
   <path id="_219965888" class="fil4" d="M24.685 19.6429c-0.940157,-1.58504 -2.2937,-3.23858 -4.05709,-3.97087 2.22756,2.41181 3.95433,5.26772 3.36732,8.72835 -0.382677,2.26535 -1.40079,5.14961 -4.00394,5.03031 -1.43622,3.7937 -5.88661,5.73661 -9.80906,5.25827 0.911811,0.644882 1.89921,1.14803 2.95157,1.41142 4.24134,1.06181 5.8252,-2.00433 6.43701,-5.62795 0.0814961,-0.48189 0.790157,-0.333071 0.814961,0.109843 0.0259843,0.506693 0.00354331,1.0122 -0.057874,1.50827 3.29646,-0.43937 5.76024,-1.90866 5.97638,-5.55236 0.141732,-2.38228 -0.395669,-4.83071 -1.61929,-6.89528z"/>
   <path id="_219965864" class="fil5" d="M26.3055 26.5382c-0.217323,3.6437 -2.6811,5.11299 -5.97756,5.55236 0.0614173,-0.496063 0.0838583,-1.00157 0.057874,-1.50827 -0.0248031,-0.442913 -0.733465,-0.591732 -0.814961,-0.109843 -0.611811,3.62362 -2.19685,6.68976 -6.43701,5.62795 -3.00591,-0.751181 -5.48031,-3.4311 -7.12559,-5.90787 -1.83307,-2.76024 -2.51811,-6.10276 -0.355512,-8.88898 1.52598,-1.96654 3.77953,-2.55709 6.07795,-2.55354 0.0862205,0.0472441 0.18189,0.0425197 0.262205,0.00354331 0.887008,0.0188976 1.7752,0.116929 2.62677,0.259843 0.285827,0.0472441 0.500787,-0.343701 0.209055,-0.497244 -0.494882,-0.261024 -1.01102,-0.45 -1.53898,-0.588189 1.78583,-1.56732 3.62835,-2.99409 6.19724,-2.58543 2.3315,0.372047 4.06417,2.38937 5.19803,4.30039 1.22362,2.06457 1.76102,4.51299 1.62047,6.89528zm-22.8732 -12.4606c0.356693,-0.415748 0.738189,-0.774803 1.42323,-0.861024 0.936614,-0.120472 1.90984,0.32126 2.71535,0.732283 1.36654,0.69685 2.37874,1.68425 3.22441,2.85591 -1.94291,-1.76457 -4.97126,-3.21614 -7.36299,-2.72717zm22.6961 5.30787c-2.89488,-5.80157 -9.83031,-7.31102 -13.7882,-1.98071 -0.99685,-2.30669 -3.20669,-4.02047 -5.50512,-4.91457 -1.66181,-0.647244 -4.59331,-0.135827 -4.54252,2.02559 -0.185433,0.212598 0.00354331,0.572835 0.295276,0.597638 1.93583,0.162992 3.46772,0.199606 5.27717,1.0748 0.865748,0.420472 1.6311,0.990945 2.39764,1.55551 -2.04685,0.255118 -4.02756,1.23543 -5.46142,2.70709 -2.69528,2.76732 -1.8378,6.77598 -0.194882,9.79252 1.87677,3.44409 5.39173,6.62008 9.34252,7.27205 3.18661,0.526772 5.3185,-1.47874 6.10748,-4.12205 3.55394,-0.153543 6.08268,-1.29803 7.27677,-4.80709 1.02047,-3 0.154724,-6.46772 -1.20472,-9.20079z"/>
   <path id="_1140381672" class="fil5" d="M9.01181 1.70669c4.23898,2.65984 7.37717,7.12795 4.78465,11.7803 -0.477165,-3.63425 -1.95591,-7.33937 -3.85748,-10.3949 -0.108661,-0.173622 -0.41811,-0.0614173 -0.343701,0.145276 1.37835,3.83504 2.91732,7.19882 3.44173,11.2654 -3.10512,-3.99449 -5.26299,-7.63465 -4.0252,-12.7961zm3.87402 13.5732c0.120472,0.323622 0.510236,0.529134 0.80315,0.193701 4.98307,-5.71181 0.538583,-11.7591 -4.74685,-15.0024 -0.295276,-0.18189 -0.644882,0.0011811 -0.75,0.304724 -1.76457,5.15433 0.0519685,11.4307 4.6937,14.5039z"/>
   <path id="_1140382392" class="fil5" d="M6.67913 24.163c-0.00472441,-0.445276 0.103937,-0.924803 0.320079,-1.32874 0.229134,0.0307087 0.458268,0.034252 0.68622,0.108661 0.340157,0.112205 0.628346,0.379134 0.811417,0.679134 0.458268,0.747638 -0.448819,1.58858 -1.17283,1.63937 -0.544488,0.0366142 -0.637795,-0.709843 -0.644882,-1.09843zm0.903543 1.6252c0.982677,-0.152362 1.85079,-1.24016 1.43386,-2.21575 -0.255118,-0.595276 -1.14803,-1.33346 -1.87323,-1.18937 -0.0437008,-0.0425197 -0.112205,-0.0625984 -0.167717,-0.023622 -1.10551,0.784252 -1.26142,3.71929 0.607087,3.42874z"/>
   <path id="_1140382368" class="fil5" d="M8.55709 27.3992c-0.0897638,-0.103937 -0.287008,0.00590551 -0.23622,0.138189 0.416929,1.07244 1.24488,1.89449 1.51181,3.04606 0.103937,0.45 0.0874016,0.989764 -0.468898,0.622441 -0.387402,-0.253937 -0.75,-0.669685 -0.976772,-1.07244 -0.340157,-0.604724 -0.576378,-1.2874 -0.744094,-1.95827 -0.0767717,-0.304724 -0.145276,-0.647244 -0.092126,-0.961417 0.0661417,-0.376772 0.556299,-0.133465 0.772441,-0.0472441 0.129921,0.0507874 0.185433,-0.13937 0.0897638,-0.209055 -0.692126,-0.504331 -1.29921,-0.248031 -1.26732,0.629528 0.0366142,0.964961 0.483071,2.05394 0.975591,2.8748 0.212598,0.354331 1.67717,2.02795 2.07165,0.976772 0.184252,-0.488976 -0.00354331,-1.07598 -0.167717,-1.54252 -0.307087,-0.866929 -0.866929,-1.80945 -1.46811,-2.49685z"/>
  </g>
 </g>
</svg>
