<?xml version="1.0" encoding="UTF-8"?>
<!DOCTYPE svg PUBLIC "-//W3C//DTD SVG 1.1//EN" "http://www.w3.org/Graphics/SVG/1.1/DTD/svg11.dtd">
<!-- Creator: CorelDRAW X5 -->
<?xml-stylesheet href="musicnote.css" type="text/css"?>
<svg xmlns="http://www.w3.org/2000/svg" xml:space="preserve" width="30px" height="30px" style="shape-rendering:geometricPrecision; text-rendering:geometricPrecision; image-rendering:optimizeQuality; fill-rule:evenodd; clip-rule:evenodd"
viewBox="0 0 30 30"
 xmlns:xlink="http://www.w3.org/1999/xlink">
 <g id="Layer_x0020_1">
  <metadata id="CorelCorpID_0Corel-Layer"/>
  <g id="_1133365728">
   <path id="_1133365824" class="fil0" d="M23.4685 13.05c-1.04882,0.518504 -2.19094,0.785433 -3.36024,0.735827 -1.2,-0.0507874 -1.8248,-0.774803 -2.16024,-1.69606l-0.245669 -0.950787 -0.484252 0.845669c-1.04528,1.85787 -2.02559,3.76063 -3.05787,5.61142 -0.777165,1.39016 -1.6311,2.77559 -2.43543,4.18228 -0.702756,0.39685 -1.42913,0.764173 -2.15197,1.04764l-1.45748 0.43937c-1.86496,0.360236 -3.54094,-0.19252 -4.43976,-2.81339 -0.681496,-1.99724 0.909449,-4.00157 2.66929,-4.6937 2.11063,-0.829134 3.97323,0.429921 4.97598,2.1626l0.462992 0.993307 0.522047 -0.935433c0.200787,-0.356693 0.401575,-0.714567 0.604724,-1.06654 1.67835,-2.90551 3.12165,-6.03425 4.92992,-8.85472 0.341339,-0.533858 1.97835,-2.13071 2.67992,-1.05354 0.277559,0.427559 0.432283,0.956693 0.689764,1.40197 0.628346,1.07953 1.79291,1.92402 2.82047,2.59252 0.438189,0.284646 0.907087,0.496063 1.39134,0.64252 -0.550394,0.544488 -1.18228,1.02756 -1.95354,1.40906zm2.67283 -2.2063c-0.523228,-0.10748 -1.06654,-0.309449 -1.65118,-0.63189 -1.51299,-0.833858 -2.46142,-2.16496 -3.17598,-3.67205 -0.79252,-1.67008 -3.08622,-0.322441 -3.84803,0.64252 -1.82008,2.30197 -3.01417,5.4189 -4.47992,7.95827 -0.36378,0.628346 -0.73937,1.25669 -1.11969,1.88386 -0.805512,-1.28268 -2.29843,-2.20276 -3.8126,-2.28307 -2.54646,-0.137008 -4.67008,1.48701 -5.26181,3.96614 -0.640157,2.69646 1.74803,5.12126 4.25433,5.49685 0.172441,0.0259843 0.349606,0.0401575 0.525591,0.046063l1.18937 -0.100394c0.703937,-0.13937 1.39843,-0.411024 2.07402,-0.761811l1.51181 -0.93189 0.819685 -1.54016c0.522047,-1.01457 1.02874,-2.0315 1.55669,-2.98937 0.922441,-1.66654 1.8874,-3.33189 2.79331,-5.02323 0.669685,1.32874 2.20748,1.97362 4.11732,1.69606 1.85197,-0.26811 3.49606,-1.33583 4.86969,-2.75079l0.810236 -0.915354 -1.17283 -0.0897638z"/>
   <path id="_1133366280" class="fil1" d="M21.2102 8.40591c-0.25748,-0.445276 -0.412205,-0.974409 -0.689764,-1.40197 -0.701575,-1.07717 -2.33858,0.519685 -2.67992,1.05354 -1.80709,2.82047 -3.25157,5.94921 -4.92992,8.85472 -0.20315,0.351969 -0.403937,0.709843 -0.604724,1.06654l-0.522047 0.935433 -0.461811 -0.993307c-1.00394,-1.73268 -2.86772,-2.99173 -4.97717,-2.1626 -1.75984,0.692126 -3.35079,2.69764 -2.66929,4.6937 0.9,2.62087 2.5748,3.17362 4.43976,2.81339l1.45748 -0.43937c0.722835,-0.283465 1.44921,-0.650787 2.15197,-1.04764 0.804331,-1.40669 1.65827,-2.79213 2.43543,-4.18228 1.03228,-1.85079 2.0126,-3.75354 3.05787,-5.61142l0.484252 -0.845669 0.245669 0.950787c0.335433,0.92126 0.960236,1.64528 2.16024,1.69606 1.16929,0.0496063 2.31142,-0.217323 3.36024,-0.735827 0.77126,-0.381496 1.40315,-0.864567 1.95354,-1.40906 -0.483071,-0.146457 -0.95315,-0.357874 -1.39134,-0.64252 -1.02756,-0.668504 -2.19213,-1.51299 -2.82047,-2.59252z"/>
  </g>
 </g>
</svg>
