<?xml version="1.0" encoding="UTF-8"?>
<!DOCTYPE svg PUBLIC "-//W3C//DTD SVG 1.1//EN" "http://www.w3.org/Graphics/SVG/1.1/DTD/svg11.dtd">
<!-- Creator: CorelDRAW X5 -->
<?xml-stylesheet href="bookA.css" type="text/css"?>
<svg xmlns="http://www.w3.org/2000/svg" xml:space="preserve" width="76px" height="56px" style="shape-rendering:geometricPrecision; text-rendering:geometricPrecision; image-rendering:optimizeQuality; fill-rule:evenodd; clip-rule:evenodd"
viewBox="0 0 76 55.999"
 xmlns:xlink="http://www.w3.org/1999/xlink">
 <g id="Layer_x0020_1">
  <metadata id="CorelCorpID_0Corel-Layer"/>
  <g id="_1137998472">
   <path id="_1137995016" class="fil0" d="M26.0861 11.5749c-0.0283468,0.0862214 -0.0803158,0.13819 -0.137009,0.174805 -0.0200789,0.0543313 -0.0566935,0.103938 -0.108663,0.125198 -0.46654,0.191341 -1.06182,0.0318901 -1.55671,-0.00354334 -0.46654,-0.0330712 -0.937805,-0.0708669 -1.36419,-0.269294 -0.11693,0.0224412 -0.233861,-0.061418 -0.229136,-0.210238 0.00354334,-0.727567 0.575203,-1.59687 0.961427,-2.18861 0.374413,-0.578746 0.876387,-1.28151 1.6134,-1.38545 1.77403,-0.252759 1.09844,2.93389 0.820875,3.75713zm1.47285 -9.67687c-1.4008,-1.68309 -3.25161,0.681503 -4.06067,1.80947 -1.01812,1.41852 -1.90632,2.93743 -2.74727,4.46579 -1.92758,3.49019 -3.92721,7.20362 -4.94533,11.08 -0.289373,1.09962 -0.897647,3.75122 1.14686,3.00476 2.48625,-0.908277 3.68508,-3.53862 4.54611,-6.01424l0.233861 -0.698039 0.595282 -0.0259845c0.872844,-0.0200789 1.76222,0.0448824 2.60672,0.201971l0.77363 0.172443 -0.177167 0.770087c-0.230317,0.956703 -0.474808,1.91459 -0.494887,2.89373 -0.0118111,0.484257 -0.0330712,1.14686 0.200789,1.59805 0.337799,0.64607 1.05001,0.850403 1.38427,0.0838591 0.217325,-0.49843 0.389768,-1.00867 0.538588,-1.53191 1.17993,-4.03705 2.09294,-8.43198 1.74214,-12.6604 -0.132285,-1.5697 -0.281105,-3.87169 -1.34293,-5.14966z"/>
   <path id="_1137995088" class="fil1" d="M18.5577 19.7211c-0.936624,-1.58742 -0.269294,-3.73114 0.229136,-5.33864 0.663786,-2.15435 1.39253,-4.66895 2.41892,-7.02291 -0.153545,0.270475 -0.305909,0.542132 -0.454729,0.813788 -1.92758,3.49019 -3.92721,7.20362 -4.94533,11.08 -0.289373,1.09962 -0.897647,3.75122 1.14686,3.00476 1.05828,-0.387406 1.8827,-1.08899 2.54648,-1.95474 -0.353153,0.00708669 -0.683865,-0.14882 -0.941348,-0.582289z"/>
   <path id="_1137994920" class="fil1" d="M26.0861 11.5749c-0.0283468,0.0862214 -0.0803158,0.13819 -0.137009,0.174805 -0.0200789,0.0543313 -0.0566935,0.103938 -0.108663,0.125198 -0.46654,0.191341 -1.06182,0.0318901 -1.55671,-0.00354334 -0.46654,-0.0330712 -0.937805,-0.0708669 -1.36419,-0.269294 -0.0318901,0.00708669 -0.0685046,0.00118111 -0.100395,-0.01063 -0.137009,0.516147 -0.0082678,1.07127 0.610636,1.31104 0.60355,0.23268 1.32875,0.224412 1.92404,-0.0425201 1.07009,-0.478351 1.15041,-1.33466 0.969695,-2.24648 -0.0732291,0.406303 -0.165356,0.757094 -0.237404,0.961427z"/>
   <path id="_1137994752" class="fil1" d="M26.4641 19.6289c-0.559848,-0.576384 -0.941348,-1.36419 -1.11852,-2.18388 -0.160632,0.698039 -0.294098,1.39962 -0.309452,2.11301 -0.0118111,0.484257 -0.0330712,1.14686 0.200789,1.59805 0.337799,0.64607 1.05001,0.850403 1.38427,0.0838591 0.168899,-0.388587 0.305909,-0.787803 0.43465,-1.19056 -0.201971,-0.0874025 -0.40276,-0.223231 -0.591738,-0.420477z"/>
   <path id="_1137993672" class="fil2" d="M26.718 2.45554c-0.242128,-0.25394 -0.768906,-0.00590557 -0.563392,0.340161 0.305909,0.514966 0.474808,1.06773 0.66733,1.6323 0.193703,0.582289 0.220868,1.07481 0.623629,1.55789 0.125198,0.150002 0.398036,0.133466 0.46654,-0.0673235 0.40276,-1.17757 -0.394492,-2.61499 -1.19411,-3.46303z"/>
   <path id="_1137993768" class="fil3" d="M27.1597 19.7081c-0.14882,0.523234 -0.321263,1.03348 -0.538588,1.53191 -0.334255,0.766543 -1.04647,0.562211 -1.38427,-0.0838591 -0.233861,-0.451186 -0.213782,-1.11379 -0.200789,-1.59805 0.0200789,-0.979144 0.26457,-1.93703 0.494887,-2.89373l0.177167 -0.770087 -0.772449 -0.172443c-0.845678,-0.157088 -1.73506,-0.22205 -2.6079,-0.201971l-0.595282 0.0259845 -0.233861 0.698039c-0.861033,2.47562 -2.05986,5.10596 -4.54611,6.01424 -2.04333,0.746464 -1.43624,-1.90514 -1.14686,-3.00476 1.01812,-3.87642 3.01775,-7.58984 4.94533,-11.08 0.840954,-1.52836 1.72915,-3.04728 2.74727,-4.46579 0.809064,-1.12796 2.65987,-3.49256 4.05949,-1.80947 1.063,1.27797 1.21182,3.57996 1.34411,5.14966 0.350791,4.22839 -0.563392,8.62332 -1.74214,12.6604zm2.29018 -15.3746c-0.419296,-1.96656 -1.79884,-5.06108 -4.26973,-3.51854 -2.20396,1.37482 -3.45594,3.98508 -4.73509,6.15124 -0.865757,1.46694 -1.64175,2.99413 -2.39884,4.51894 -1.11379,2.24294 -2.16026,4.54375 -2.90082,6.93905 -0.386224,1.24726 -1.00159,3.17129 -0.0956703,4.33587 0.909458,1.17167 2.9079,0.0921269 3.76185,-0.50906 1.89451,-1.33112 2.75554,-3.72996 3.33547,-5.98589 0.546856,0.0271656 1.09844,0.0708669 1.65356,0.139372 0.289373,0.0354334 0.575203,0.0814969 0.864576,0.128741 -0.679141,2.14254 -1.19529,4.91698 0.744102,6.21384 2.15317,1.44096 3.12287,-4.35949 3.35555,-5.30084 1.04647,-4.24138 1.60159,-8.79812 0.685046,-13.1127z"/>
   <path id="_1137992832" class="fil3" d="M25.414 11.2891c-0.197246,-0.0472446 -0.411028,-0.051969 -0.63544,-0.0637802 -0.491344,-0.0236223 -0.982687,-0.0448824 -1.47285,-0.0590557 0.160632,-0.270475 0.292916,-0.571659 0.43465,-0.831505 0.325988,-0.590557 0.69922,-1.20828 1.21891,-1.64647 0.640164,-0.538588 0.792528,0.331893 0.78426,0.825599 -0.0118111,0.594101 -0.145277,1.21182 -0.329531,1.77522zm-0.14882 -3.4713c-0.737016,0.103938 -1.23899,0.806701 -1.6134,1.38545 -0.386224,0.591738 -0.957884,1.46104 -0.961427,2.18861 -0.00472446,0.14882 0.112206,0.23268 0.229136,0.210238 0.426382,0.198427 0.896466,0.236223 1.36419,0.269294 0.494887,0.0354334 1.09017,0.194884 1.55671,0.00354334 0.051969,-0.0212601 0.0885836,-0.0708669 0.108663,-0.125198 0.0566935,-0.0366146 0.108663,-0.0885836 0.137009,-0.174805 0.277562,-0.823237 0.953159,-4.00988 -0.820875,-3.75713z"/>
   <path id="_1137992760" class="fil4" d="M55.0151 43.067c0,0.00944892 0.00590557,0.0165356 0.00590557,0.0248034 0.0602368,0.233861 -0.0992136,0.432288 -0.290554,0.458272 -0.625991,1.1445 -1.0819,2.4201 -1.79411,3.50673 1.47167,-0.514966 2.94216,-1.0571 4.38075,-1.65947 0.277562,-0.114568 0.553943,-0.240947 0.824418,-0.362602 -0.850403,-0.925994 -1.10198,-2.42719 -1.71498,-3.55161 -0.587014,0.438194 -1.03584,0.98505 -1.41143,1.58387z"/>
   <path id="_1137992496" class="fil5" d="M66.9633 35.0779c-1.81419,1.06064 -3.85398,1.75396 -5.5099,3.07798 -1.46458,1.17639 -2.51341,2.56892 -3.35791,4.19414 0.0602368,0.150002 0.119293,0.300003 0.178348,0.453548 0.231498,0.582289 0.54095,1.11615 0.804339,1.67128 0.937805,-2.70948 3.29885,-4.90399 5.90557,-6.53156 2.31617,-1.44687 4.8154,-2.66341 6.99929,-4.31579 0.878749,-0.663786 1.59096,-1.37127 2.18388,-2.12719 0.00708669,-0.318901 0.0200789,-0.622447 0.0200789,-0.900009 0.00708669,-1.04765 -0.0200789,-2.09412 -0.0531502,-3.14295 -1.40435,3.0331 -4.44572,6.03077 -7.17055,7.62055z"/>
   <path id="_1137993048" class="fil4" d="M46.1934 45.8131c1.59096,0.510242 3.09452,1.62049 4.73745,1.89096 0.0389768,0.00708669 0.0661424,0.0259845 0.0992136,0.0389768l0.0129923 -0.0366146c0.072048,-0.288192 0.125198,-0.579927 0.13819,-0.87993 0.1063,-2.34687 -2.69767,-1.86616 -4.98785,-1.0134z"/>
   <path id="_1137992280" class="fil5" d="M32.431 52.2041c-1.26615,0.124017 -2.65869,-0.607093 -3.78075,-1.09726 -0.289373,-0.125198 -0.0921269,-0.526777 0.198427,-0.43465 0.69922,0.230317 1.41143,0.478351 2.12483,0.675598 0.507879,0.140553 1.04174,0.244491 1.51655,0.471265 0.185435,0.0862214 0.139372,0.364964 -0.0590557,0.385043zm-1.39135 -1.94411c-0.654337,-0.45591 -1.00395,-0.935443 -1.063,-1.53663l-0.408666 -0.0354334c-5.38352,-0.53032 -10.8462,-1.88978 -16.0324,-3.10751 -3.93193,-0.924813 -7.80481,-2.14963 -11.7108,-3.22562 0.0590557,0.497249 0.125198,0.994498 0.184254,1.49175 3.27287,2.32207 7.95717,2.33152 11.7509,3.17838 4.1965,0.938986 8.31268,2.24294 12.436,3.42878 0.251577,0.072048 0.205514,0.444099 -0.0649613,0.406303 -5.14021,-0.718118 -10.095,-2.63034 -15.208,-3.61067 -2.98231,-0.572841 -6.42644,-0.66733 -8.82056,-2.69176 0.0590557,0.493706 0.131104,0.987412 0.197246,1.4823 8.2678,1.74451 16.3561,4.57446 24.5695,6.47959 2.52759,0.587014 5.06108,1.10789 7.59339,1.59569 -0.375594,-0.737016 -0.666149,-1.52482 -1.2071,-2.17207 -0.666149,-0.792528 -1.40435,-1.11497 -2.21577,-1.68309z"/>
   <path id="_1137991872" class="fil6" d="M24.7314 50.0273c1.32639,-0.0767724 2.55357,0.46654 3.8339,0.735834 0.0590557,-0.0791347 0.158269,-0.129923 0.283468,-0.0909458 0.527958,0.172443 1.05592,0.348429 1.58978,0.512604 0.442918,0.101576 0.877568,0.203152 1.31931,0.297641 -0.289373,-0.388587 -0.561029,-0.788985 -0.903553,-1.15513 -0.0862214,-0.0956703 -0.112206,-0.196065 -0.105119,-0.289373 -0.461816,-0.389768 -0.726385,-0.810245 -0.772449,-1.31458l-0.408666 -0.0354334c-5.38352,-0.53032 -10.8462,-1.88978 -16.0324,-3.10751 -3.93193,-0.924813 -7.80481,-2.14963 -11.7108,-3.22562 0.0590557,0.497249 0.125198,0.994498 0.184254,1.49175 3.27287,2.32207 7.95717,2.33152 11.7509,3.17838 3.69453,0.827961 7.33,1.93821 10.9714,3.00239z"/>
   <path id="_1137991800" class="fil2" d="M29.6802 47.5162c0.712212,-4.95596 4.28863,-9.54222 8.84655,-11.5005 2.9835,-1.28151 6.68983,-1.82718 10.108,-1.25907 -5.02682,-2.35042 -10.3974,-4.26264 -15.801,-5.12131l-1.35238 -0.190159c-2.30908,-0.289373 -4.62524,-0.3815 -6.91424,-0.220868 -9.44774,0.6567 -15.4915,6.80794 -22.3467,12.2281 3.85398,0.937805 7.66661,2.19097 11.4993,3.04846 5.25242,1.17639 10.695,1.83427 15.9604,3.01539z"/>
   <path id="_1137992112" class="fil2" d="M59.9238 24.9487c-5.24533,-1.09253 -10.108,-3.80437 -15.3072,-4.66304 -1.54372,0.571659 -3.0083,1.3512 -4.36776,2.35514 -2.44727,1.80711 -4.49296,4.0654 -6.6296,6.21384 2.80397,0.500793 5.56777,1.25552 8.27253,2.20042 5.1662,1.80829 10.2722,3.93547 14.7651,7.08787 0.113387,-3.76303 4.65241,-6.24573 7.67961,-7.52724 2.5205,-1.063 5.34454,-2.04687 7.15874,-4.20949 1.05592,-1.26261 1.80829,-2.62562 2.38231,-4.06303l-0.0271656 -0.418115c-4.25437,2.5394 -9.09813,4.02996 -13.9265,3.02365z"/>
   <path id="_1137999312" class="fil6" d="M36.0464 30.2779c2.45436,0.640164 4.75044,1.60632 6.49849,3.50555 0.237404,0.261026 -0.0129923,0.685046 -0.323625,0.715755 -3.76657,0.373232 -7.48709,1.7575 -10.4363,4.16697 -1.60395,1.30395 -2.93625,2.76735 -4.08429,4.48115 -0.303546,0.454729 -0.745283,1.50356 -1.37246,1.66065 -2.60554,0.655519 -5.79219,-1.52246 -8.18749,-2.2512 -3.43704,-1.04411 -6.83511,-2.16853 -10.1139,-3.65083 -0.217325,-0.0980325 -0.336618,-0.379138 -0.224412,-0.597644 0.54095,-1.0571 1.22009,-2.01144 1.97246,-2.9079 -2.55239,1.90278 -4.99375,4.02878 -7.55441,6.05203 3.85398,0.937805 7.66661,2.19097 11.4993,3.04846 5.25242,1.17639 10.695,1.83427 15.9604,3.01539 0.712212,-4.95596 4.28863,-9.54222 8.84655,-11.5005 2.9835,-1.28151 6.68983,-1.82718 10.108,-1.25907 -4.03114,-1.88506 -8.27961,-3.47484 -12.5883,-4.47879z"/>
   <path id="_1137999600" class="fil6" d="M55.3836 34.6681c-0.13819,0.259845 -0.461816,0.351972 -0.69922,0.162994 -2.47325,-1.98191 -5.17919,-3.81618 -8.16741,-4.94178 -1.53072,-0.575203 -3.25279,-1.12915 -4.90163,-1.24017 -1.26025,-0.0850403 -2.48743,-0.0389768 -3.7276,-0.28583 -0.284649,-0.0578746 -0.45591,-0.36024 -0.336618,-0.633077 1.29332,-2.93035 4.00398,-5.93746 7.07251,-7.4422 0,-0.00118111 -0.00708669,-0.00236223 -0.00708669,-0.00236223 -1.54372,0.571659 -3.0083,1.3512 -4.36776,2.35514 -2.44727,1.80711 -4.49296,4.0654 -6.6296,6.21384 2.80397,0.500793 5.56777,1.25552 8.27253,2.20042 5.1662,1.80829 10.2722,3.93547 14.7651,7.08787 0.113387,-3.76303 4.65241,-6.24573 7.67961,-7.52724 2.02679,-0.855127 4.24965,-1.65947 5.98471,-3.06499 -4.91462,2.6705 -12.1265,1.67128 -14.9376,7.1174z"/>
   <path id="_1137999576" class="fil5" d="M53.7679 40.1827c-0.21142,-0.0118111 -0.382681,-0.12756 -0.561029,-0.235042l-0.566935 -0.344885c-0.277562,-0.167718 -0.0732291,-0.634259 0.210238,-0.465359l0.654337 0.388587c0.171262,0.103938 0.335437,0.199608 0.441737,0.374413 0.0862214,0.141734 -0.0141734,0.291735 -0.178348,0.282286zm-3.85988 -1.51419c-3.69453,-0.996861 -7.28984,-0.810245 -10.4836,1.46694 -2.13664,1.52246 -4.74336,3.55279 -5.23824,6.29534 -0.0389768,0.230317 -0.376776,0.214963 -0.40276,-0.0141734 -0.388587,-2.87601 3.06854,-5.54533 5.14612,-6.95322 3.39807,-2.29609 7.30992,-2.97759 11.0706,-1.11615 0.172443,0.0814969 0.0992136,0.372051 -0.0921269,0.321263zm19.0868 -8.81584c-4.11618,2.30081 -10.5958,3.39689 -11.5726,8.89616 -0.0259845,0.133466 -0.111025,0.218506 -0.210238,0.263389 -0.0921269,0.105119 -0.231498,0.160632 -0.376776,0.0755913 -0.83741,-0.4878 -1.68899,-0.972057 -2.55239,-1.45041 -0.0401579,0.00354334 -0.0732291,0.00118111 -0.1063,-0.00944892 -5.11305,-1.58151 -10.0808,-3.03074 -15.247,-0.570478 -2.34806,1.11733 -4.46698,2.77208 -5.89849,4.97013 -1.24017,1.88978 -1.76104,3.77484 -2.13782,5.77093l-0.171262 0.941348c0.494887,0.907096 1.84726,1.32285 2.52759,2.08467 0.831505,0.933081 1.59687,2.19687 1.9453,3.43468 0.0141734,0.00354334 0.0271656,0.00708669 0.0472446,0.00944892 2.91617,-4.65359 7.13866,-9.18198 12.3698,-10.0229 1.57088,-0.255121 4.4469,-0.45591 4.64532,1.82482 0,0.0507879 0,0.103938 0.00590557,0.155907 0.34961,-0.988593 0.871663,-1.97246 1.33938,-2.82168 0.1063,-0.183073 0.21142,-0.366146 0.316539,-0.546856 -2.98822,-2.96224 -8.29969,-2.32561 -11.6576,-0.252759 -3.08743,1.90632 -5.641,4.59454 -7.48118,7.72213 -0.172443,0.283468 -0.627172,0.0956703 -0.481895,-0.218506 1.97955,-4.23311 5.50872,-8.243 10.1269,-9.65561 2.62562,-0.80552 8.22056,-1.28505 10.0879,1.48702 0.474808,-0.662605 1.03584,-1.25552 1.75514,-1.67482 0.26457,-0.152364 0.579927,-0.13819 0.771268,0.120474 0.26457,0.354334 0.481895,0.721661 0.66733,1.10316 1.16812,-2.42128 2.96814,-4.2839 5.46266,-5.55596 4.47997,-2.28546 8.4119,-5.20399 10.6348,-9.89183 0.0661424,-0.128741 0.158269,-0.198427 0.257483,-0.225593 -0.0129923,-0.283468 -0.0259845,-0.566935 -0.0401579,-0.851584 -1.27206,2.0327 -3.0142,3.76421 -5.02682,4.88863z"/>
   <path id="_1137998520" class="fil6" d="M53.7679 40.1827c-0.21142,-0.0118111 -0.382681,-0.12756 -0.561029,-0.235042l-0.566935 -0.344885c-0.277562,-0.167718 -0.0732291,-0.634259 0.210238,-0.465359l0.654337 0.388587c0.171262,0.103938 0.335437,0.199608 0.441737,0.374413 0.0862214,0.141734 -0.0141734,0.291735 -0.178348,0.282286zm-3.85988 -1.51419c-3.69453,-0.996861 -7.28984,-0.810245 -10.4836,1.46694 -2.13664,1.52246 -4.74336,3.55279 -5.23824,6.29534 -0.0389768,0.230317 -0.376776,0.214963 -0.40276,-0.0141734 -0.388587,-2.87601 3.06854,-5.54533 5.14612,-6.95322 3.39807,-2.29609 7.30992,-2.97759 11.0706,-1.11615 0.172443,0.0814969 0.0992136,0.372051 -0.0921269,0.321263zm19.0868 -8.81584c-4.11618,2.30081 -10.5958,3.39689 -11.5726,8.89616 -0.0259845,0.133466 -0.111025,0.218506 -0.210238,0.263389 -0.0921269,0.105119 -0.231498,0.160632 -0.376776,0.0755913 -0.83741,-0.4878 -1.68899,-0.972057 -2.55239,-1.45041 -0.0401579,0.00354334 -0.0732291,0.00118111 -0.1063,-0.00944892 -5.11305,-1.58151 -10.0808,-3.03074 -15.247,-0.570478 -2.34806,1.11733 -4.46698,2.77208 -5.89849,4.97013 -1.24017,1.88978 -1.76104,3.77484 -2.13782,5.77093l-0.171262 0.941348c0.494887,0.907096 1.84726,1.32285 2.52759,2.08467 0.237404,0.269294 0.474808,0.566935 0.692133,0.882293 0.165356,-0.421658 0.343704,-0.838591 0.527958,-1.25316 -0.13819,-0.0342523 -0.250396,-0.166537 -0.171262,-0.344885 1.97955,-4.23311 5.50872,-8.243 10.1269,-9.65561 2.62562,-0.80552 8.22056,-1.28505 10.0879,1.48702 0.474808,-0.662605 1.03584,-1.25552 1.75514,-1.67482 0.26457,-0.152364 0.579927,-0.13819 0.771268,0.120474 0.26457,0.354334 0.481895,0.721661 0.66733,1.10316 1.16812,-2.42128 2.96814,-4.2839 5.46266,-5.55596 4.47997,-2.28546 8.4119,-5.20399 10.6348,-9.89183 0.0661424,-0.128741 0.158269,-0.198427 0.257483,-0.225593 -0.0129923,-0.283468 -0.0259845,-0.566935 -0.0401579,-0.851584 -1.27206,2.0327 -3.0142,3.76421 -5.02682,4.88863z"/>
   <path id="_1137999120" class="fil3" d="M30.9735 51.3478c-0.712212,-0.197246 -1.42561,-0.44528 -2.12483,-0.675598 -0.290554,-0.0921269 -0.4878,0.309452 -0.198427,0.43465 1.12206,0.490163 2.51459,1.22127 3.78075,1.09726 0.198427,-0.0200789 0.244491,-0.298822 0.0590557,-0.385043 -0.474808,-0.226774 -1.00867,-0.330712 -1.51655,-0.471265z"/>
   <path id="_1137998640" class="fil3" d="M73.8775 22.3431c-0.574022,1.43742 -1.32639,2.80042 -2.38231,4.06303 -1.81419,2.16262 -4.63824,3.14649 -7.15874,4.20949 -3.0272,1.28151 -7.5674,3.76421 -7.67961,7.52724 -4.49178,-3.15239 -9.59892,-5.27958 -14.7651,-7.08787 -2.70475,-0.944892 -5.46856,-1.69962 -8.27253,-2.20042 2.13782,-2.14845 4.18233,-4.40674 6.6296,-6.21384 1.35946,-1.00395 2.82405,-1.78348 4.36776,-2.35514 5.19927,0.857489 10.0619,3.57051 15.3072,4.66304 4.82958,1.00631 9.67097,-0.484257 13.9265,-3.02365l0.0271656 0.418115zm0.184254 3.47248c-0.0992136,0.0271656 -0.191341,0.0968514 -0.257483,0.225593 -2.22286,4.68784 -6.15479,7.60638 -10.6348,9.89183 -2.49451,1.27206 -4.29571,3.13468 -5.46266,5.55596 -0.185435,-0.3815 -0.40276,-0.748827 -0.66733,-1.10316 -0.190159,-0.258664 -0.507879,-0.272837 -0.771268,-0.120474 -0.719299,0.419296 -1.28033,1.01222 -1.75514,1.67482 -1.86616,-2.77326 -7.46228,-2.29254 -10.0879,-1.48702 -4.61816,1.41261 -8.14733,5.4225 -10.1269,9.65561 -0.145277,0.314176 0.309452,0.501974 0.481895,0.218506 1.84018,-3.12759 4.39375,-5.81581 7.48118,-7.72213 3.35791,-2.07286 8.66938,-2.70948 11.6576,0.252759 -0.105119,0.180711 -0.210238,0.363783 -0.316539,0.546856 -0.467721,0.849221 -0.989774,1.83309 -1.33938,2.82168 -0.00590557,-0.051969 -0.00590557,-0.105119 -0.00590557,-0.155907 -0.198427,-2.28073 -3.07444,-2.07994 -4.64532,-1.82482 -5.23116,0.840954 -9.45364,5.36935 -12.3698,10.0229 -0.0200789,-0.00236223 -0.0330712,-0.00590557 -0.0472446,-0.00944892 -0.348429,-1.23781 -1.11379,-2.5016 -1.9453,-3.43468 -0.679141,-0.763 -2.0327,-1.17757 -2.52759,-2.08467l0.172443 -0.941348c0.375594,-1.99608 0.896466,-3.88114 2.13664,-5.77093 1.43269,-2.19805 3.55043,-3.8528 5.89849,-4.97013 5.1662,-2.46026 10.134,-1.01103 15.247,0.570478 0.0330712,0.01063 0.0661424,0.0129923 0.1063,0.00944892 0.863395,0.478351 1.71498,0.962608 2.55239,1.45041 0.145277,0.0850403 0.284649,0.0295279 0.376776,-0.0755913 0.0992136,-0.0448824 0.184254,-0.129923 0.210238,-0.263389 0.976782,-5.49927 7.4552,-6.59534 11.5726,-8.89616 2.01262,-1.12442 3.75476,-2.85594 5.02682,-4.88863 0.0141734,0.283468 0.0271656,0.568116 0.0401579,0.851584zm0.125198 4.7847c0,0.277562 -0.0129923,0.581108 -0.0200789,0.900009 -0.59292,0.755913 -1.30513,1.4634 -2.18388,2.12719 -2.1827,1.65238 -4.6843,2.86893 -6.99929,4.31579 -2.60554,1.62758 -4.96777,3.82209 -5.90557,6.53156 -0.263389,-0.555124 -0.572841,-1.08899 -0.804339,-1.67128 -0.0590557,-0.153545 -0.119293,-0.303546 -0.178348,-0.453548 0.844497,-1.62521 1.89333,-3.01775 3.35791,-4.19414 1.65592,-1.32521 3.69571,-2.01734 5.5099,-3.07798 2.72483,-1.58978 5.7662,-4.58745 7.17055,-7.62055 0.0342523,1.04883 0.0602368,2.0953 0.0531502,3.14295zm-16.8699 14.797c-1.43742,0.602368 -2.90909,1.1445 -4.38075,1.65947 0.713393,-1.08663 1.16812,-2.36105 1.79411,-3.50673 0.192522,-0.0259845 0.34961,-0.224412 0.290554,-0.458272 0,-0.0082678 -0.00590557,-0.0153545 -0.00590557,-0.0248034 0.375594,-0.598825 0.824418,-1.14568 1.41143,-1.58387 0.61418,1.12442 0.864576,2.62562 1.71498,3.55161 -0.269294,0.121655 -0.546856,0.248034 -0.824418,0.362602zm-6.13589 1.42915c-0.0129923,0.300003 -0.0661424,0.591738 -0.13819,0.87993l-0.0129923 0.0366146c-0.0330712,-0.0129923 -0.0602368,-0.0318901 -0.0992136,-0.0389768 -1.64293,-0.271656 -3.14649,-1.38072 -4.73745,-1.89096 2.29018,-0.852765 5.09415,-1.33348 4.98785,1.0134zm-24.3121 5.69297c-8.21347,-1.90514 -16.3029,-4.73509 -24.5695,-6.47959 -0.0649613,-0.494887 -0.13819,-0.987412 -0.197246,-1.4823 2.39412,2.02325 5.83825,2.11892 8.82056,2.69176 5.11305,0.980325 10.0678,2.89255 15.208,3.61067 0.270475,0.0377957 0.316539,-0.334255 0.0649613,-0.406303 -4.12327,-1.18584 -8.23946,-2.48979 -12.436,-3.42878 -3.79374,-0.846859 -8.47804,-0.856308 -11.7509,-3.17838 -0.0590557,-0.497249 -0.125198,-0.994498 -0.184254,-1.49175 3.90595,1.076 7.77882,2.30081 11.7108,3.22562 5.18627,1.21773 10.6489,2.57719 16.0324,3.10751l0.408666 0.0354334c0.0590557,0.600006 0.408666,1.08072 1.063,1.53663 0.811426,0.568116 1.54962,0.89056 2.21577,1.68309 0.54095,0.647251 0.831505,1.43505 1.2071,2.17207 -2.53231,-0.4878 -5.0658,-1.00867 -7.59339,-1.59569zm-2.30199 -23.2951c2.289,-0.160632 4.60517,-0.0685046 6.91424,0.220868l1.35238 0.190159c5.4036,0.85867 10.7729,2.77089 15.801,5.12131 -3.41696,-0.568116 -7.12566,-0.0224412 -10.108,1.25907 -4.55792,1.95711 -8.13434,6.54456 -8.84655,11.5005 -5.26541,-1.18111 -10.708,-1.839 -15.9604,-3.01539 -3.83272,-0.857489 -7.64654,-2.11065 -11.4993,-3.04846 6.85519,-5.42013 12.899,-11.5714 22.3467,-12.2281zm49.9434 -9.29537l-0.739378 0.479533c-1.4445,0.927175 -2.93507,1.79057 -4.55202,2.4768 -3.82681,1.61695 -7.65953,1.45041 -11.5785,0.342523 -3.81382,-1.07954 -7.40323,-2.739 -11.1237,-3.52799l-2.13073 -0.343704 -1.71498 0.702763c-0.396855,0.183073 -0.785441,0.375594 -1.16812,0.587014 -3.43704,1.89569 -6.54574,4.891 -9.29655,7.97607 -2.55239,-0.374413 -5.14612,-0.529139 -7.74575,-0.41339 -8.76741,0.389768 -16.4541,6.24219 -22.8735,12.2612l-0.712212 0.672054 -0.184254 0.908277 0.0389768 0.557486c0.0791347,1.05828 0.178348,2.11538 0.290554,3.16775l0.0921269 0.747646 1.30631 0.348429c3.02129,0.82678 6.00361,1.80002 8.99183,2.70948 5.03509,1.53545 10.154,2.81932 15.2742,4.04296 2.59255,0.620085 5.21816,1.22954 7.86386,1.79884l0.838591 0.178348 0.804339 -1.15513c2.04569,-2.85239 4.45989,-5.44848 7.38315,-7.38197 0.276381,-0.186616 0.771268,-0.452367 1.36537,-0.727567 0.818512,0.473627 1.68899,0.865757 2.5264,1.29686 1.01694,0.523234 2.07168,0.99568 3.21972,1.11261l-0.051969 0.142915 1.31222 -0.320082c2.25002,-0.579927 4.52603,-1.33702 6.72999,-2.23939l1.06182 -0.440556 0.587014 -1.84726c0.389768,-0.859851 0.943711,-1.68073 1.72207,-2.48034 1.94057,-2.00317 4.59217,-3.31893 6.98039,-4.69021 1.78112,-1.02403 3.6024,-2.22994 5.09297,-3.67327l1.1882 -1.28269 -0.119293 -2.00199c-0.105119,-2.16498 -0.164175,-4.33823 -0.316539,-6.5044l-0.309452 -3.06735 -0.0531502 -0.412209z"/>
   <path id="_1137999168" class="fil3" d="M50.0001 38.3472c-3.76067,-1.86144 -7.67252,-1.17993 -11.0706,1.11615 -2.07758,1.40789 -5.53588,4.07839 -5.14612,6.95322 0.0271656,0.229136 0.362602,0.245672 0.40276,0.0141734 0.494887,-2.74255 3.10043,-4.77288 5.23824,-6.29534 3.19373,-2.27719 6.78905,-2.46381 10.4836,-1.46694 0.191341,0.0507879 0.26457,-0.239766 0.0921269,-0.321263z"/>
   <path id="_1137998832" class="fil3" d="M53.5045 39.526l-0.653156 -0.388587c-0.284649,-0.168899 -0.488981,0.297641 -0.21142,0.465359l0.566935 0.344885c0.178348,0.107481 0.34961,0.223231 0.561029,0.235042 0.165356,0.00944892 0.263389,-0.140553 0.178348,-0.282286 -0.1063,-0.174805 -0.270475,-0.270475 -0.441737,-0.374413z"/>
  </g>
 </g>
</svg>
