<?xml version="1.0" encoding="UTF-8"?>
<!DOCTYPE svg PUBLIC "-//W3C//DTD SVG 1.1//EN" "http://www.w3.org/Graphics/SVG/1.1/DTD/svg11.dtd">
<!-- Creator: CorelDRAW X5 -->
<svg xmlns="http://www.w3.org/2000/svg" xml:space="preserve" width="53px" height="59px" style="shape-rendering:geometricPrecision; text-rendering:geometricPrecision; image-rendering:optimizeQuality; fill-rule:evenodd; clip-rule:evenodd"
viewBox="0 0 53 58.8889"
 xmlns:xlink="http://www.w3.org/1999/xlink">
 <defs>
  <style type="text/css">
   <![CDATA[
    .fil1 {fill:#40A7D9}
    .fil4 {fill:#424444}
    .fil0 {fill:#4987BE}
    .fil2 {fill:#ABC2D0}
    .fil3 {fill:#FEFEFE}
   ]]>
  </style>
 </defs>
 <g id="Layer_x0020_1">
  <metadata id="CorelCorpID_0Corel-Layer"/>
  <g id="_220022224">
   <path id="_220026880" class="fil0" d="M37.7501 43.1243c-0.256756,0.126022 -0.533533,0.219067 -0.796178,0.345089 -0.546489,0.255578 -1.07296,0.544133 -1.62533,0.778511 -0.401622,0.170778 -0.954,0.475822 -1.46044,0.532356 0.124844,0.256756 0.223778,0.532356 0.335667,0.780867 0.118956,0.279133 0.262644,0.558267 0.368644,0.846822 0.5194,-0.323889 1.19662,-0.499378 1.70307,-0.7526 0.652489,-0.326244 1.30969,-0.883333 1.99398,-1.21193 -0.131911,-0.327422 -0.249689,-0.664267 -0.3816,-0.992867 -0.0388667,-0.107178 -0.0918667,-0.216711 -0.1378,-0.326244z"/>
   <path id="_220026256" class="fil0" d="M32.0191 28.4822c-0.249689,0.126022 -0.526467,0.220244 -0.789111,0.345089 -0.546489,0.256756 -1.07884,0.545311 -1.62533,0.779689 -0.400444,0.1696 -0.954,0.474644 -1.46044,0.533533 0.118956,0.257933 0.223778,0.53 0.329778,0.780867 0.124844,0.276778 0.269711,0.555911 0.367467,0.845644 0.526467,-0.323889 1.20487,-0.4982 1.71131,-0.754956 0.651311,-0.325067 1.30851,-0.880978 1.9928,-1.2084 -0.130733,-0.330956 -0.249689,-0.665444 -0.3816,-0.995222 -0.0459333,-0.106 -0.0918667,-0.215533 -0.144867,-0.326244z"/>
   <path id="_220025704" class="fil0" d="M29.4609 42.8028c-0.131911,-0.329778 -0.250867,-0.664267 -0.3816,-0.992867 -0.0400444,-0.108356 -0.0930444,-0.217889 -0.144867,-0.327422 -0.250867,0.124844 -0.526467,0.220244 -0.790289,0.345089 -0.545311,0.256756 -1.07178,0.544133 -1.62416,0.778511 -0.408689,0.170778 -0.954,0.475822 -1.46044,0.533533 0.117778,0.256756 0.2226,0.53 0.3286,0.782044 0.124844,0.277956 0.269711,0.555911 0.368644,0.844467 0.5194,-0.323889 1.20369,-0.499378 1.71013,-0.7526 0.651311,-0.325067 1.30969,-0.883333 1.99398,-1.21076z"/>
   <path id="_220026424" class="fil0" d="M30.4868 46.2466c-0.256756,0.1272 -0.533533,0.221422 -0.796178,0.346267 -0.539422,0.255578 -1.07296,0.542956 -1.62533,0.776156 -0.400444,0.171956 -0.946933,0.475822 -1.45338,0.535889 0.117778,0.256756 0.223778,0.53 0.3286,0.780867 0.118956,0.277956 0.269711,0.557089 0.368644,0.846822 0.5194,-0.325067 1.19662,-0.499378 1.70424,-0.753778 0.651311,-0.326244 1.31558,-0.883333 1.9928,-1.21193 -0.130733,-0.3286 -0.2438,-0.665444 -0.374533,-0.991689 -0.0459333,-0.109533 -0.0989333,-0.217889 -0.144867,-0.3286z"/>
   <path id="_220025896" class="fil0" d="M36.7172 39.6805c-0.131911,-0.330956 -0.2438,-0.666622 -0.375711,-0.994044 -0.0459333,-0.107178 -0.0977556,-0.217889 -0.144867,-0.326244 -0.255578,0.124844 -0.532356,0.219067 -0.796178,0.345089 -0.538244,0.255578 -1.07178,0.542956 -1.62416,0.777333 -0.401622,0.170778 -0.946933,0.475822 -1.45456,0.533533 0.118956,0.256756 0.217889,0.531178 0.329778,0.780867 0.117778,0.277956 0.269711,0.555911 0.367467,0.845644 0.520578,-0.322711 1.1978,-0.4982 1.70424,-0.7526 0.651311,-0.325067 1.30969,-0.883333 1.99398,-1.20958z"/>
   <path id="_220025080" class="fil0" d="M35.7432 28.8167c0.5194,-0.322711 1.1978,-0.4982 1.70424,-0.751422 0.651311,-0.325067 1.30851,-0.883333 1.9928,-1.21076 -0.130733,-0.329778 -0.249689,-0.666622 -0.374533,-0.994044 -0.0459333,-0.107178 -0.0989333,-0.216711 -0.144867,-0.327422 -0.256756,0.124844 -0.533533,0.220244 -0.796178,0.346267 -0.539422,0.255578 -1.07178,0.544133 -1.62533,0.777333 -0.400444,0.170778 -0.954,0.475822 -1.46044,0.534711 0.126022,0.256756 0.223778,0.53 0.335667,0.779689 0.118956,0.277956 0.269711,0.558267 0.368644,0.845644z"/>
   <path id="_220024960" class="fil0" d="M33.085 34.258c-0.539422,0.255578 -1.07178,0.542956 -1.61827,0.776156 -0.407511,0.171956 -0.954,0.475822 -1.46044,0.534711 0.118956,0.257933 0.223778,0.531178 0.3286,0.782044 0.118956,0.277956 0.269711,0.555911 0.368644,0.844467 0.526467,-0.322711 1.1978,-0.4982 1.71131,-0.7526 0.651311,-0.325067 1.30851,-0.883333 1.98573,-1.21076 -0.124844,-0.329778 -0.242622,-0.665444 -0.374533,-0.992867 -0.0459333,-0.107178 -0.0918667,-0.216711 -0.144867,-0.327422 -0.256756,0.1272 -0.526467,0.221422 -0.796178,0.346267z"/>
   <path id="_220025488" class="fil0" d="M24.9076 31.9343c-0.0459333,-0.109533 -0.0989333,-0.219067 -0.144867,-0.3286 -0.256756,0.126022 -0.532356,0.220244 -0.796178,0.346267 -0.539422,0.255578 -1.07178,0.542956 -1.62416,0.777333 -0.401622,0.170778 -0.954,0.477 -1.46162,0.533533 0.126022,0.257933 0.223778,0.532356 0.335667,0.782044 0.118956,0.276778 0.269711,0.555911 0.368644,0.846822 0.5194,-0.325067 1.1978,-0.500556 1.70424,-0.753778 0.651311,-0.325067 1.30851,-0.884511 1.9928,-1.21193 -0.130733,-0.329778 -0.249689,-0.664267 -0.374533,-0.991689z"/>
   <path id="_220025440" class="fil0" d="M16.7044 38.1435c-1.75724,-4.4202 -3.50036,-8.84864 -5.54733,-13.144 -1.72309,-3.62991 -3.93967,-7.03958 -5.64391,-10.6648 -0.737289,2.14827 -1.15187,4.39193 -1.23078,6.7946 0,0.0730222 0,0.146044 0,0.220244 3.3496,5.72518 6.70391,11.448 9.69782,17.3805 1.81613,3.60636 3.53922,7.26689 5.03971,11.0169 0.618333,1.56056 1.29556,3.12464 1.95393,4.69933 0.954,0.531178 1.95982,0.978733 3.0528,1.32382 -1.27671,-1.70778 -1.7702,-3.91729 -2.62527,-5.95131 -1.63122,-3.86664 -3.15173,-7.77569 -4.69698,-11.6753z"/>
   <path id="_220025536" class="fil0" d="M26.7626 37.3638c-0.0388667,-0.109533 -0.0918667,-0.217889 -0.1378,-0.3286 -0.256756,0.126022 -0.533533,0.220244 -0.796178,0.346267 -0.545311,0.255578 -1.07178,0.542956 -1.62533,0.777333 -0.400444,0.170778 -0.954,0.474644 -1.46044,0.532356 0.124844,0.257933 0.223778,0.532356 0.335667,0.782044 0.118956,0.279133 0.269711,0.557089 0.368644,0.846822 0.5194,-0.323889 1.1978,-0.499378 1.70424,-0.7526 0.651311,-0.326244 1.30851,-0.883333 1.9928,-1.21311 -0.130733,-0.327422 -0.249689,-0.664267 -0.3816,-0.990511z"/>
   <path id="_220024816" class="fil1" d="M40.8359 18.3368l0.427533 0.875089 -1.19073 1.04822c-3.0528,2.53458 -6.5402,4.36367 -10.3232,5.73578 -2.76307,1.00111 -6.21042,2.18478 -9.434,2.18949l-1.53936 -0.0942222 -0.6572 -1.0494c-0.862133,-1.39684 -1.71131,-2.79958 -2.5864,-4.15756 -1.31558,-2.0564 -2.64411,-4.11869 -3.79598,-6.27284l-0.473467 -0.898644 0.631289 -0.686644c2.47451,-2.50749 6.01373,-4.134 9.18431,-5.30707 2.44036,-0.904533 4.92782,-1.65242 7.46122,-2.24131 1.20958,-0.281489 2.44624,-0.623044 3.68998,-0.883333l0.908067 -0.173133 0.921022 0.939867c2.014,2.16947 3.61813,4.67813 4.9608,7.37053 0.559444,1.1342 1.19073,2.34731 1.81613,3.60518zm1.15776 12.5021c0.216711,0.481711 0.427533,0.965778 0.473467,1.49696 0.00588889,0.0871556 -0.0129556,0.166067 -0.053,0.234378 -0.00706667,0.0459333 -0.0200222,0.0930444 -0.0459333,0.136622 -0.4346,0.848 -1.65831,1.37093 -2.48747,1.76667 -0.749067,0.353333 -1.84793,1.007 -2.67709,0.6784 -0.0518222,-0.0223778 -0.0989333,-0.0636 -0.1378,-0.109533 -0.651311,-0.303867 -1.0918,-2.3214 -1.01996,-2.77838 0.0129556,-0.0824444 0.053,-0.138978 0.0989333,-0.176667 0.183733,-0.3286 0.526467,-0.460511 0.868022,-0.617156 0.533533,-0.246156 1.05293,-0.514689 1.57233,-0.771444 0.7632,-0.375711 1.65831,-1.007 2.5334,-0.865667 0.111889,0.0164889 0.183733,0.0742 0.236733,0.153111 0.289733,0.194333 0.506444,0.564156 0.638356,0.852711zm1.07884 4.15402c0.0188444,0.0200222 0.0459333,0.0388667 0.0588889,0.0659556 0.638356,1.0706 1.1978,2.14827 1.61827,3.32487 0.355689,0.963422 0.999933,2.22247 0.598311,3.22947 -0.00588889,0.0129556 -0.0188444,0.0223778 -0.0259111,0.0353333 -0.216711,0.723156 -1.03291,1.40038 -1.62533,1.76196 -0.512333,0.313289 -1.54524,0.893933 -2.10469,0.427533 -0.1378,-0.0270889 -0.263822,-0.106 -0.355689,-0.2544 -1.26964,-2.03402 -2.51927,-4.50736 -2.82902,-6.91238 -0.0129556,-0.118956 0.0459333,-0.195511 0.131911,-0.235556 0.5194,-1.35209 2.9468,-2.32376 4.20349,-1.802 0.177844,0.0753778 0.283844,0.210822 0.329778,0.359222zm-3.69116 9.7414c-0.00588889,0.0447556 -0.0200222,0.0895111 -0.0459333,0.136622 -0.440489,0.844467 -1.65831,1.36858 -2.48747,1.76196 -0.749067,0.354511 -1.84793,1.00818 -2.67709,0.680756 -0.053,-0.0235556 -0.0989333,-0.0636 -0.1378,-0.109533 -0.651311,-0.303867 -1.09298,-2.32258 -1.01996,-2.77956 0.0129556,-0.0789111 0.053,-0.1378 0.0989333,-0.176667 0.183733,-0.327422 0.526467,-0.458156 0.868022,-0.615978 0.532356,-0.246156 1.05293,-0.513511 1.57233,-0.771444 0.7632,-0.375711 1.65831,-1.00582 2.5334,-0.866844 0.111889,0.0164889 0.183733,0.0777333 0.236733,0.153111 0.289733,0.196689 0.506444,0.564156 0.637178,0.852711 0.217889,0.480533 0.428711,0.968133 0.474644,1.49696 0.00588889,0.0895111 -0.0129556,0.164889 -0.053,0.237911zm-6.89471 -2.29549c-0.6572,-0.303867 -1.0918,-2.3214 -1.01996,-2.7772 0.00706667,-0.0824444 0.0459333,-0.138978 0.0989333,-0.177844 0.183733,-0.3286 0.526467,-0.460511 0.868022,-0.617156 0.526467,-0.246156 1.04587,-0.513511 1.57233,-0.770267 0.757311,-0.376889 1.65831,-1.00818 2.52633,-0.8692 0.111889,0.0176667 0.1908,0.0789111 0.2438,0.155467 0.289733,0.195511 0.499378,0.564156 0.631289,0.853889 0.217889,0.478178 0.4346,0.9646 0.473467,1.49578 0.00706667,0.0883333 -0.0129556,0.166067 -0.0459333,0.235556 -0.0129556,0.0459333 -0.0259111,0.0906889 -0.0459333,0.136622 -0.440489,0.845644 -1.65713,1.36976 -2.49336,1.76431 -0.750244,0.354511 -1.84793,1.00582 -2.6712,0.679578 -0.0588889,-0.0223778 -0.104822,-0.0624222 -0.1378,-0.109533zm-0.361578 5.4166c-0.00706667,0.0459333 -0.0270889,0.0918667 -0.0459333,0.136622 -0.441667,0.846822 -1.66538,1.36976 -2.49336,1.76549 -0.743178,0.353333 -1.84911,1.007 -2.6712,0.679578 -0.0588889,-0.0223778 -0.106,-0.0636 -0.138978,-0.110711 -0.651311,-0.301511 -1.0918,-2.32258 -1.01878,-2.7772 0.0129556,-0.0824444 0.0459333,-0.140156 0.0918667,-0.177844 0.1908,-0.3286 0.532356,-0.459333 0.868022,-0.617156 0.533533,-0.246156 1.05293,-0.513511 1.57233,-0.770267 0.7632,-0.376889 1.65831,-1.007 2.5334,-0.866844 0.111889,0.0153111 0.1908,0.0765556 0.242622,0.153111 0.289733,0.197867 0.500556,0.565333 0.632467,0.853889 0.216711,0.480533 0.433422,0.9646 0.473467,1.49578 0.00706667,0.0883333 -0.0129556,0.166067 -0.0459333,0.235556zm-6.7628 -2.1836c-0.0600667,-0.0223778 -0.0989333,-0.0624222 -0.138978,-0.110711 -0.651311,-0.302689 -1.0918,-2.32022 -1.01996,-2.7772 0.0141333,-0.0812667 0.0459333,-0.138978 0.0989333,-0.177844 0.184911,-0.3286 0.526467,-0.459333 0.868022,-0.617156 0.527644,-0.246156 1.05293,-0.513511 1.57351,-0.770267 0.7632,-0.375711 1.65713,-1.007 2.53222,-0.866844 0.106,0.0176667 0.183733,0.0777333 0.236733,0.154289 0.289733,0.195511 0.506444,0.565333 0.638356,0.853889 0.216711,0.479356 0.427533,0.9646 0.473467,1.4946 0.00706667,0.0895111 -0.0200222,0.164889 -0.053,0.235556 -0.00588889,0.0459333 -0.0188444,0.0930444 -0.0459333,0.1378 -0.440489,0.845644 -1.65713,1.37093 -2.48629,1.76313 -0.750244,0.355689 -1.84911,1.00818 -2.67709,0.680756zm8.29509 -15.5808c-0.00588889,0.0471111 -0.0188444,0.0906889 -0.0459333,0.138978 -0.440489,0.844467 -1.65713,1.36858 -2.48629,1.76196 -0.750244,0.353333 -1.84911,1.007 -2.67827,0.680756 -0.0588889,-0.0235556 -0.0989333,-0.0636 -0.1378,-0.109533 -0.651311,-0.303867 -1.0918,-2.32258 -1.01996,-2.77956 0.0141333,-0.0800889 0.0459333,-0.138978 0.0989333,-0.175489 0.184911,-0.329778 0.526467,-0.459333 0.868022,-0.618333 0.526467,-0.246156 1.04587,-0.513511 1.57233,-0.771444 0.764378,-0.375711 1.65831,-1.00582 2.5334,-0.865667 0.104822,0.0164889 0.183733,0.0777333 0.236733,0.151933 0.289733,0.196689 0.506444,0.566511 0.638356,0.855067 0.216711,0.479356 0.427533,0.965778 0.473467,1.4946 0.00706667,0.0895111 -0.0200222,0.167244 -0.053,0.236733zm0.526467 -3.25538c0.0141333,-0.0824444 0.053,-0.140156 0.0989333,-0.177844 0.1908,-0.327422 0.532356,-0.459333 0.875089,-0.617156 0.526467,-0.246156 1.04587,-0.512333 1.57233,-0.770267 0.757311,-0.376889 1.65713,-1.007 2.52633,-0.868022 0.111889,0.0176667 0.183733,0.0777333 0.236733,0.153111 0.2968,0.197867 0.506444,0.567689 0.638356,0.855067 0.216711,0.479356 0.433422,0.965778 0.473467,1.4946 0.00706667,0.0895111 -0.0129556,0.167244 -0.0459333,0.237911 -0.0129556,0.0459333 -0.0259111,0.0895111 -0.0459333,0.136622 -0.440489,0.845644 -1.6642,1.36858 -2.49336,1.76313 -0.743178,0.354511 -1.84911,1.00582 -2.67827,0.679578 -0.0518222,-0.0223778 -0.0977556,-0.0624222 -0.130733,-0.108356 -0.658378,-0.305044 -1.09887,-2.32258 -1.02702,-2.77838zm0.0329778 5.94542c0.111889,0.0176667 0.1908,0.0765556 0.2438,0.155467 0.289733,0.194333 0.506444,0.562978 0.631289,0.851533 0.223778,0.480533 0.4346,0.965778 0.480533,1.49696 0.00588889,0.0871556 -0.0200222,0.164889 -0.053,0.235556 -0.00706667,0.0459333 -0.0200222,0.0930444 -0.0459333,0.136622 -0.440489,0.846822 -1.65831,1.36858 -2.48747,1.76431 -0.749067,0.353333 -1.855,1.007 -2.67709,0.679578 -0.0588889,-0.0235556 -0.104822,-0.0624222 -0.1378,-0.108356 -0.651311,-0.302689 -1.0918,-2.32258 -1.01996,-2.77838 0.0129556,-0.0824444 0.0459333,-0.140156 0.0989333,-0.179022 0.183733,-0.3286 0.526467,-0.459333 0.868022,-0.615978 0.526467,-0.246156 1.04587,-0.513511 1.57233,-0.770267 0.7632,-0.378067 1.65831,-1.007 2.52633,-0.868022zm-11.1712 8.44467c-0.0518222,-0.0235556 -0.0989333,-0.0624222 -0.1378,-0.109533 -0.651311,-0.305044 -1.0918,-2.32258 -1.01996,-2.78073 0.0129556,-0.0800889 0.053,-0.136622 0.0989333,-0.175489 0.183733,-0.329778 0.526467,-0.460511 0.868022,-0.618333 0.533533,-0.244978 1.05293,-0.511156 1.57233,-0.770267 0.7632,-0.375711 1.65831,-1.00464 2.5334,-0.866844 0.111889,0.0164889 0.183733,0.0765556 0.236733,0.154289 0.289733,0.196689 0.506444,0.565333 0.638356,0.852711 0.216711,0.480533 0.427533,0.966956 0.473467,1.49578 0.00706667,0.0895111 -0.0200222,0.166067 -0.053,0.235556 -0.00588889,0.0459333 -0.0188444,0.0918667 -0.0459333,0.138978 -0.433422,0.845644 -1.65831,1.36976 -2.48629,1.76196 -0.750244,0.355689 -1.84911,1.00818 -2.67827,0.681933zm-1.86207 -5.42956c-0.0518222,-0.0235556 -0.0977556,-0.0624222 -0.1378,-0.109533 -0.651311,-0.303867 -1.0918,-2.32258 -1.01996,-2.77838 0.0141333,-0.0824444 0.053,-0.138978 0.0989333,-0.177844 0.1908,-0.329778 0.533533,-0.460511 0.868022,-0.618333 0.533533,-0.244978 1.05293,-0.512333 1.57351,-0.769089 0.7632,-0.376889 1.65713,-1.00818 2.53222,-0.865667 0.111889,0.0153111 0.183733,0.0742 0.236733,0.153111 0.289733,0.195511 0.506444,0.562978 0.638356,0.852711 0.216711,0.480533 0.4346,0.965778 0.473467,1.49578 0.00706667,0.0883333 -0.0129556,0.164889 -0.053,0.235556 -0.00588889,0.0447556 -0.0188444,0.0918667 -0.0388667,0.136622 -0.440489,0.846822 -1.6642,1.37093 -2.49336,1.76431 -0.750244,0.354511 -1.84911,1.00936 -2.67827,0.680756zm8.48118 -32.8565c-3.75711,0.481711 -7.45416,1.52993 -10.9145,3.07871 -3.07282,1.37682 -6.0526,2.99273 -8.83569,4.8972 -1.29556,0.888044 -2.52044,1.87149 -3.74416,2.84904 4.88896,5.58856 7.71091,13.6375 10.408,20.4368 1.54642,3.88549 2.98096,7.81573 4.51324,11.7059 1.30969,3.31309 2.25073,7.4942 4.62513,10.2302 1.64536,-0.438133 3.31544,-0.8162 4.91487,-1.38036 2.67709,-0.9434 5.30942,-2.00104 7.87462,-3.2224 3.55924,-1.69247 6.89471,-3.54393 10.0724,-5.73931 -0.256756,-3.41909 -0.374533,-6.85584 -0.895111,-10.2537 -0.696067,-4.58391 -1.7172,-9.13249 -3.22947,-13.5185 -2.36851,-6.88058 -5.78996,-13.2288 -9.98049,-19.0977 -1.59236,-0.121311 -3.1906,-0.194333 -4.80887,0.0141333z"/>
   <path id="_220024192" class="fil0" d="M32.8094 51.6008c-1.86207,-0.0282667 -3.60518,-0.414578 -5.19753,-1.09062 -0.2438,0.0270889 -0.480533,0.0117778 -0.697244,-0.0730222 -0.0588889,-0.0223778 -0.106,-0.0636 -0.138978,-0.110711 -0.143689,-0.0636 -0.269711,-0.212 -0.387489,-0.4028 -2.53929,-1.38507 -4.6322,-3.55218 -6.15153,-6.23987 -0.00588889,-0.00824444 -0.0129556,-0.0176667 -0.0200222,-0.0282667 0.2968,0.751422 0.579467,1.50402 0.875089,2.25191 1.30969,3.31309 2.25073,7.4942 4.62513,10.2302 1.64536,-0.438133 3.31544,-0.8162 4.91487,-1.38036 2.67709,-0.9434 5.30942,-2.00104 7.87462,-3.2224 3.55924,-1.69247 6.89471,-3.54393 10.0724,-5.73931 -0.0459333,-0.6148 -0.0918667,-1.22842 -0.131911,-1.84322 -4.58509,4.14696 -9.68369,7.73211 -15.6374,7.64849z"/>
   <path id="_220024648" class="fil2" d="M29.6906 15.675c-1.23667,2.60642 -2.54636,5.29764 -4.35542,7.56133 -0.130733,0.1696 -0.394556,-0.0482889 -0.289733,-0.226133 1.50756,-2.67591 3.02689,-5.29058 4.30949,-8.08898 1.10593,-2.42151 2.08584,-4.90662 3.23653,-7.30811 -7.2292,1.29202 -14.3288,3.86782 -20.0846,8.37989 1.49931,2.40031 2.95976,4.83007 4.49911,7.20447 0.1908,0.293267 0.388667,0.587711 0.585356,0.8798 1.23784,-2.14002 2.57344,-4.22587 3.88902,-6.31524 1.23078,-1.95864 2.41444,-3.97029 3.84898,-5.78642 0.104822,-0.130733 0.302689,0.0365111 0.2226,0.173133 -1.17071,2.17889 -2.59111,4.23293 -3.90787,6.32702 -1.24962,1.99398 -2.47922,4.00327 -3.83484,5.92776 0.5724,0.8586 1.15776,1.71956 1.73722,2.59347 3.657,-0.182556 7.17031,-0.963422 10.6577,-2.3638 0.690178,-0.274422 1.36858,-0.567689 2.03873,-0.8692 1.2508,-2.45213 2.50042,-4.96316 3.92082,-7.30576 0.0730222,-0.120133 0.289733,-0.0400444 0.237911,0.0989333 -0.889222,2.31787 -2.00693,4.74056 -3.40142,6.85584 1.28967,-0.6042 2.55931,-1.25904 3.78302,-1.99398 1.05176,-0.634822 1.97984,-1.40156 2.91382,-2.16593 -0.513511,-1.37211 -1.03291,-2.72184 -1.65713,-3.95027 -1.3886,-2.756 -2.97389,-5.406 -4.95491,-7.7486 -0.992867,2.75247 -2.14473,5.47902 -3.39436,8.12078z"/>
   <path id="_220023448" class="fil3" d="M22.8677 26.4823c0.717267,-1.09533 1.49342,-2.15062 2.25073,-3.21887 -0.0789111,-0.053 -0.131911,-0.157822 -0.0730222,-0.253222 1.50756,-2.67591 3.02689,-5.29058 4.30949,-8.08898 1.10593,-2.42151 2.08584,-4.90662 3.23653,-7.30811 -2.86082,0.511156 -5.69691,1.22724 -8.43996,2.18007 1.18367,0.143689 2.02578,0.822089 1.40038,2.37087 -0.00588889,0.0164889 -0.0188444,0.0270889 -0.0318,0.0435778 -1.16482,2.15769 -2.56638,4.19289 -3.87607,6.26813 -1.24962,1.99398 -2.47922,4.00327 -3.83484,5.92776 0.5724,0.8586 1.15776,1.71956 1.73722,2.59347 1.0918,-0.0541778 2.17653,-0.1696 3.24949,-0.330956 0.0129556,-0.0600667 0.0329778,-0.122489 0.0718444,-0.183733z"/>
   <path id="_220023568" class="fil3" d="M38.0399 15.3029c-0.204933,-0.408689 -0.414578,-0.813844 -0.632467,-1.21664 -0.361578,0.774978 -0.704311,1.56056 -1.06589,2.332 0.0471111,0.0259111 0.0859778,0.0753778 0.0600667,0.138978 -0.889222,2.31787 -2.00693,4.74056 -3.40142,6.85584 1.28967,-0.6042 2.55931,-1.25904 3.78302,-1.99398 1.05176,-0.634822 1.97984,-1.40156 2.91382,-2.16593 -0.513511,-1.37211 -1.03291,-2.72184 -1.65713,-3.95027z"/>
   <path id="_220023520" class="fil0" d="M42.1185 42.8487c0.282667,-0.141333 0.558267,-0.250867 0.664267,-0.315644 0.348622,-0.213178 0.677222,-0.461689 0.954,-0.7632 0.216711,-0.232022 0.3816,-0.5194 0.6254,-0.7208 -0.329778,-0.736111 -0.427533,-1.63829 -0.691356,-2.36733 -0.361578,-0.991689 -0.7102,-1.9716 -1.007,-2.98331 -0.0647778,0.00706667 -0.1378,0.00588889 -0.216711,-0.0141333 -1.23667,-0.312111 -2.36851,0.531178 -3.26362,1.28378 1.12596,1.8656 1.81613,3.99856 2.93502,5.88064z"/>
   <path id="_220023664" class="fil0" d="M40.7829 30.9638c-0.256756,0.123667 -0.533533,0.219067 -0.796178,0.343911 -0.546489,0.256756 -1.07296,0.544133 -1.62533,0.778511 -0.400444,0.170778 -0.954,0.475822 -1.46044,0.533533 0.124844,0.256756 0.223778,0.531178 0.335667,0.780867 0.118956,0.279133 0.269711,0.557089 0.368644,0.846822 0.5194,-0.323889 1.19662,-0.500556 1.70424,-0.753778 0.651311,-0.325067 1.30851,-0.882156 1.9928,-1.20958 -0.131911,-0.329778 -0.249689,-0.666622 -0.3816,-0.994044 -0.0388667,-0.107178 -0.0918667,-0.216711 -0.1378,-0.326244z"/>
   <path id="_220023808" class="fil3" d="M46.3032 32.7257c-0.968133,-3.56396 -2.80311,-6.99482 -4.73702,-10.1195 -0.309756,-0.497022 -1.01996,-0.0647778 -0.770267,0.449911 1.58529,3.35078 2.26958,6.75927 3.00687,10.3597 0.585356,2.86907 0.176667,6.61322 1.92096,9.07596 0.3286,0.456978 1.1448,0.613622 1.43453,0 1.40156,-2.9786 -0.0400444,-6.76869 -0.855067,-9.76613z"/>
   <path id="_220023496" class="fil4" d="M38.5063 51.5348c-2.5652,1.22136 -5.19753,2.279 -7.87462,3.2224 -1.59942,0.564156 -3.26951,0.942222 -4.91487,1.38036 -2.3744,-2.73716 -3.31544,-6.91709 -4.62513,-10.2302 -1.53229,-3.8902 -2.96682,-7.82044 -4.51324,-11.7059 -2.69711,-6.79931 -5.51907,-14.8482 -10.408,-20.4368 1.22371,-0.977556 2.44742,-1.961 3.74416,-2.84904 2.78309,-1.90447 5.76287,-3.52038 8.83569,-4.8972 3.46031,-1.54878 7.15736,-2.597 10.9145,-3.07871 1.61827,-0.208467 3.21651,-0.135444 4.80887,-0.0141333 4.19053,5.86887 7.61198,12.2171 9.98049,19.0977 1.51344,4.38604 2.53222,8.93462 3.22947,13.5185 0.520578,3.39789 0.638356,6.83464 0.895111,10.2537 -3.17764,2.19538 -6.51311,4.04684 -10.0724,5.73931zm-17.5324 2.91147c-0.658378,-1.57469 -1.3356,-3.13878 -1.95393,-4.69933 -1.50049,-3.75004 -3.22476,-7.41058 -5.03971,-11.0169 -2.99273,-5.93247 -6.34822,-11.6553 -9.69782,-17.3805 0,-0.0742 0,-0.147222 0,-0.220244 0.0789111,-2.40384 0.493489,-4.64633 1.23078,-6.7946 1.70424,3.6252 3.92082,7.03487 5.64391,10.6648 2.04698,4.29536 3.79009,8.7238 5.54616,13.144 1.54642,3.89844 3.06576,7.80867 4.69816,11.6753 0.855067,2.03402 1.34856,4.24353 2.62527,5.95131 -1.09298,-0.345089 -2.0988,-0.792644 -3.0528,-1.32382zm14.8612 -51.4112l-1.26258 -1.61238 -1.23667 -0.053c-4.58627,-0.0683111 -9.2962,1.15187 -13.3949,2.73833 -4.40842,1.70189 -9.3492,4.28593 -13.316,7.55662l-2.28253 2.0776 -0.559444 1.86089c-0.309756,1.25904 -0.506444,2.55224 -0.638356,3.80776l-0.124844 1.3462 1.28967 2.44507c2.71713,5.09271 5.45311,10.1725 8.05247,15.3217 1.91389,3.79598 3.70411,7.65673 5.31531,11.5929 0.401622,0.972844 0.776156,1.97042 1.15776,2.9786l0.803244 2.06818 2.07289 1.10947c0.492311,0.229667 0.998756,0.436956 1.51227,0.624222l2.06582 0.626578 0.638356 -0.135444c0.0259111,-0.00353333 0.0518222,-0.00824444 0.0789111,-0.0153111l3.32251 -0.712556c3.44736,-1.04469 6.85467,-2.74069 9.77556,-4.09631 3.1588,-1.46869 6.64502,-3.06222 9.59889,-5.20813l1.27671 -0.981089 0 -1.58529c-0.1378,-14.873 -5.17162,-29.9214 -14.1451,-41.7546z"/>
   <path id="_220023688" class="fil4" d="M36.7832 21.4191c-1.22371,0.734933 -2.49453,1.38978 -3.78302,1.99398 1.39449,-2.11529 2.5122,-4.53798 3.40142,-6.85584 0.0518222,-0.138978 -0.164889,-0.219067 -0.237911,-0.0989333 -1.4204,2.3426 -2.67002,4.85362 -3.92082,7.30576 -0.670156,0.300333 -1.34856,0.594778 -2.03873,0.8692 -3.4874,1.40038 -7.00071,2.18124 -10.6577,2.3638 -0.579467,-0.873911 -1.16482,-1.73487 -1.73722,-2.59347 1.35562,-1.92449 2.58522,-3.93378 3.83484,-5.92776 1.31676,-2.09409 2.73716,-4.14813 3.90787,-6.32702 0.0800889,-0.136622 -0.117778,-0.303867 -0.2226,-0.173133 -1.43453,1.81613 -2.61938,3.82778 -3.84898,5.78642 -1.31558,2.08938 -2.65118,4.17522 -3.88902,6.31524 -0.196689,-0.292089 -0.394556,-0.586533 -0.585356,-0.8798 -1.53936,-2.3744 -2.9998,-4.80416 -4.49911,-7.20447 5.7558,-4.51207 12.8543,-7.08669 20.0846,-8.37989 -1.15069,2.40149 -2.1306,4.8866 -3.23653,7.30811 -1.2826,2.7984 -2.80311,5.41307 -4.30949,8.08898 -0.104822,0.177844 0.157822,0.395733 0.289733,0.226133 1.80907,-2.26369 3.11876,-4.95491 4.35542,-7.56133 1.24962,-2.64176 2.40149,-5.36831 3.39436,-8.12078 1.98102,2.3426 3.56631,4.9926 4.95491,7.7486 0.624222,1.22842 1.14362,2.57816 1.65713,3.95027 -0.933978,0.764378 -1.86207,1.53111 -2.91382,2.16593zm4.05273 -3.08224c-0.6254,-1.25787 -1.25669,-2.47098 -1.81613,-3.60518 -1.34267,-2.6924 -2.94798,-5.20107 -4.9608,-7.37053l-0.921022 -0.939867 -0.908067 0.173133c-1.24373,0.260289 -2.4804,0.601844 -3.68998,0.883333 -2.5334,0.588889 -5.02087,1.33796 -7.46122,2.24131 -3.17058,1.17307 -6.71098,2.79958 -9.18431,5.30707l-0.631289 0.686644 0.473467 0.898644c1.15187,2.15416 2.4804,4.21644 3.79598,6.27284 0.875089,1.35798 1.72427,2.76071 2.58522,4.15756l0.658378 1.0494 1.53936 0.0942222c3.22358,-0.00471111 6.67093,-1.18838 9.434,-2.18949 3.78302,-1.37211 7.27042,-3.2012 10.3232,-5.73578l1.19073 -1.04822 -0.427533 -0.875089z"/>
   <path id="_220023928" class="fil4" d="M23.2894 34.1379c-0.506444,0.253222 -1.18484,0.428711 -1.70424,0.753778 -0.0989333,-0.290911 -0.249689,-0.570044 -0.368644,-0.846822 -0.111889,-0.249689 -0.209644,-0.524111 -0.335667,-0.782044 0.507622,-0.0565333 1.06,-0.362756 1.46162,-0.533533 0.552378,-0.234378 1.08473,-0.521756 1.62416,-0.777333 0.263822,-0.126022 0.539422,-0.220244 0.796178,-0.346267 0.0459333,0.109533 0.0989333,0.219067 0.144867,0.3286 0.124844,0.326244 0.2438,0.661911 0.374533,0.991689 -0.683111,0.327422 -1.34149,0.886867 -1.9928,1.21193zm3.15762 -1.15893c-0.0388667,-0.53 -0.256756,-1.01524 -0.473467,-1.49578 -0.131911,-0.289733 -0.348622,-0.6572 -0.638356,-0.852711 -0.0518222,-0.0789111 -0.124844,-0.1378 -0.236733,-0.153111 -0.875089,-0.142511 -1.7702,0.488778 -2.53222,0.865667 -0.520578,0.256756 -1.03998,0.524111 -1.57351,0.769089 -0.334489,0.157822 -0.677222,0.288556 -0.868022,0.618333 -0.0459333,0.0388667 -0.0859778,0.0954 -0.0989333,0.177844 -0.0718444,0.4558 0.368644,2.47451 1.01996,2.77838 0.0400444,0.0471111 0.0859778,0.0859778 0.1378,0.109533 0.829156,0.327422 1.92802,-0.326244 2.67827,-0.680756 0.829156,-0.393378 2.05287,-0.917489 2.49336,-1.76431 0.0200222,-0.0447556 0.0329778,-0.0918667 0.0388667,-0.136622 0.0400444,-0.0706667 0.0600667,-0.147222 0.053,-0.235556z"/>
   <path id="_220023064" class="fil4" d="M30.5527 31.0121c-0.506444,0.256756 -1.18484,0.431067 -1.71131,0.754956 -0.0977556,-0.289733 -0.242622,-0.568867 -0.367467,-0.845644 -0.106,-0.250867 -0.210822,-0.522933 -0.329778,-0.780867 0.507622,-0.0588889 1.06,-0.363933 1.46044,-0.533533 0.546489,-0.234378 1.07884,-0.522933 1.62533,-0.779689 0.263822,-0.124844 0.539422,-0.219067 0.789111,-0.343911 0.053,0.109533 0.0989333,0.219067 0.144867,0.325067 0.131911,0.329778 0.250867,0.664267 0.3816,0.995222 -0.683111,0.327422 -1.34149,0.883333 -1.9928,1.2084zm3.15762 -1.15776c-0.0459333,-0.528822 -0.256756,-1.01524 -0.473467,-1.4946 -0.131911,-0.288556 -0.348622,-0.658378 -0.638356,-0.855067 -0.053,-0.0742 -0.131911,-0.135444 -0.236733,-0.151933 -0.875089,-0.140156 -1.7702,0.491133 -2.5334,0.865667 -0.526467,0.257933 -1.04587,0.525289 -1.57233,0.771444 -0.341556,0.159 -0.684289,0.288556 -0.868022,0.618333 -0.053,0.0365111 -0.0859778,0.0954 -0.0989333,0.175489 -0.0718444,0.456978 0.368644,2.47569 1.01996,2.77956 0.0400444,0.0459333 0.0789111,0.0859778 0.1378,0.109533 0.829156,0.326244 1.92802,-0.327422 2.67827,-0.680756 0.829156,-0.393378 2.0458,-0.917489 2.48629,-1.76196 0.0270889,-0.0482889 0.0400444,-0.0918667 0.0459333,-0.138978 0.0329778,-0.0706667 0.0600667,-0.147222 0.053,-0.236733z"/>
   <path id="_220022992" class="fil4" d="M37.4474 28.0653c-0.506444,0.253222 -1.18484,0.428711 -1.70424,0.751422 -0.0989333,-0.288556 -0.249689,-0.567689 -0.368644,-0.845644 -0.111889,-0.249689 -0.209644,-0.522933 -0.335667,-0.779689 0.507622,-0.0588889 1.06,-0.363933 1.46044,-0.534711 0.553556,-0.2332 1.08591,-0.521756 1.62533,-0.777333 0.263822,-0.126022 0.539422,-0.221422 0.796178,-0.346267 0.0459333,0.109533 0.0989333,0.220244 0.144867,0.327422 0.124844,0.327422 0.2438,0.664267 0.374533,0.994044 -0.683111,0.326244 -1.34149,0.885689 -1.9928,1.21076zm3.15762 -1.16011c-0.0388667,-0.528822 -0.256756,-1.01524 -0.473467,-1.4946 -0.131911,-0.287378 -0.342733,-0.6572 -0.638356,-0.855067 -0.053,-0.0753778 -0.124844,-0.135444 -0.236733,-0.153111 -0.868022,-0.138978 -1.7702,0.491133 -2.52633,0.868022 -0.526467,0.257933 -1.04587,0.524111 -1.57233,0.770267 -0.341556,0.157822 -0.684289,0.289733 -0.875089,0.617156 -0.0459333,0.0376889 -0.0859778,0.0965778 -0.0989333,0.177844 -0.0718444,0.4558 0.368644,2.47333 1.02702,2.77838 0.0329778,0.0459333 0.0789111,0.0871556 0.130733,0.108356 0.829156,0.326244 1.93391,-0.323889 2.67827,-0.679578 0.829156,-0.394556 2.05287,-0.917489 2.49336,-1.76313 0.0200222,-0.0471111 0.0329778,-0.0906889 0.0459333,-0.136622 0.0329778,-0.0706667 0.053,-0.1484 0.0459333,-0.237911z"/>
   <path id="_220022968" class="fil4" d="M25.1514 39.5674c-0.506444,0.253222 -1.18484,0.428711 -1.70424,0.7526 -0.0989333,-0.289733 -0.249689,-0.567689 -0.368644,-0.846822 -0.111889,-0.249689 -0.210822,-0.524111 -0.335667,-0.782044 0.507622,-0.0577111 1.06,-0.361578 1.46044,-0.532356 0.553556,-0.234378 1.07884,-0.521756 1.62533,-0.777333 0.263822,-0.126022 0.539422,-0.220244 0.796178,-0.346267 0.0459333,0.110711 0.0989333,0.219067 0.1378,0.3286 0.131911,0.326244 0.250867,0.664267 0.3816,0.990511 -0.684289,0.329778 -1.34149,0.886867 -1.9928,1.21311zm3.15762 -1.16011c-0.0459333,-0.528822 -0.256756,-1.01524 -0.473467,-1.49578 -0.131911,-0.287378 -0.348622,-0.656022 -0.638356,-0.852711 -0.053,-0.0777333 -0.124844,-0.1378 -0.236733,-0.154289 -0.875089,-0.1378 -1.7702,0.491133 -2.5334,0.866844 -0.5194,0.259111 -1.0388,0.525289 -1.57233,0.770267 -0.341556,0.157822 -0.684289,0.288556 -0.868022,0.618333 -0.0459333,0.0388667 -0.0859778,0.0954 -0.0989333,0.175489 -0.0718444,0.458156 0.368644,2.47569 1.01996,2.78073 0.0400444,0.0471111 0.0848,0.0859778 0.1378,0.109533 0.829156,0.326244 1.92802,-0.326244 2.67827,-0.681933 0.829156,-0.3922 2.05169,-0.916311 2.48629,-1.76196 0.0270889,-0.0471111 0.0400444,-0.0918667 0.0459333,-0.138978 0.0329778,-0.0694889 0.0600667,-0.146044 0.053,-0.235556z"/>
   <path id="_220022800" class="fil4" d="M32.4148 36.4428c-0.513511,0.2544 -1.18484,0.429889 -1.71131,0.7526 -0.0989333,-0.288556 -0.249689,-0.566511 -0.368644,-0.844467 -0.104822,-0.250867 -0.209644,-0.524111 -0.3286,-0.782044 0.506444,-0.0588889 1.05293,-0.362756 1.46044,-0.534711 0.546489,-0.2332 1.07884,-0.520578 1.61827,-0.776156 0.269711,-0.124844 0.539422,-0.219067 0.796178,-0.346267 0.053,0.110711 0.0989333,0.220244 0.144867,0.327422 0.131911,0.327422 0.249689,0.663089 0.374533,0.992867 -0.677222,0.327422 -1.33442,0.885689 -1.98573,1.21076zm3.15762 -1.15776c-0.0459333,-0.531178 -0.256756,-1.01642 -0.480533,-1.49696 -0.124844,-0.288556 -0.341556,-0.6572 -0.631289,-0.851533 -0.053,-0.0789111 -0.131911,-0.1378 -0.2438,-0.155467 -0.868022,-0.138978 -1.76313,0.489956 -2.52633,0.868022 -0.526467,0.256756 -1.04587,0.524111 -1.57233,0.770267 -0.341556,0.156644 -0.684289,0.287378 -0.868022,0.615978 -0.053,0.0388667 -0.0859778,0.0965778 -0.0989333,0.179022 -0.0718444,0.4558 0.368644,2.47569 1.01996,2.77838 0.0329778,0.0459333 0.0789111,0.0848 0.1378,0.108356 0.822089,0.327422 1.92802,-0.326244 2.67709,-0.679578 0.830333,-0.395733 2.04698,-0.917489 2.48747,-1.76431 0.0270889,-0.0447556 0.0388667,-0.0906889 0.0459333,-0.136622 0.0329778,-0.0706667 0.0588889,-0.147222 0.053,-0.235556z"/>
   <path id="_220023304" class="fil4" d="M39.3095 33.4936c-0.507622,0.253222 -1.18484,0.429889 -1.70424,0.753778 -0.0989333,-0.289733 -0.249689,-0.567689 -0.368644,-0.846822 -0.111889,-0.249689 -0.210822,-0.524111 -0.335667,-0.780867 0.506444,-0.0577111 1.06,-0.362756 1.46044,-0.533533 0.553556,-0.234378 1.07884,-0.521756 1.62533,-0.778511 0.262644,-0.124844 0.539422,-0.220244 0.796178,-0.343911 0.0459333,0.109533 0.0989333,0.219067 0.1378,0.326244 0.131911,0.327422 0.249689,0.664267 0.3816,0.994044 -0.684289,0.327422 -1.34149,0.884511 -1.9928,1.20958zm3.15762 -1.15776c-0.0459333,-0.531178 -0.256756,-1.01524 -0.473467,-1.49696 -0.131911,-0.288556 -0.348622,-0.658378 -0.638356,-0.852711 -0.053,-0.0789111 -0.124844,-0.136622 -0.236733,-0.153111 -0.875089,-0.141333 -1.7702,0.489956 -2.5334,0.865667 -0.5194,0.256756 -1.0388,0.525289 -1.57233,0.771444 -0.341556,0.156644 -0.684289,0.288556 -0.868022,0.617156 -0.0459333,0.0376889 -0.0859778,0.0942222 -0.0989333,0.176667 -0.0718444,0.456978 0.368644,2.47451 1.01996,2.77838 0.0400444,0.0459333 0.0848,0.0871556 0.1378,0.109533 0.829156,0.3286 1.92802,-0.325067 2.67709,-0.6784 0.830333,-0.395733 2.05287,-0.918667 2.48747,-1.76667 0.0270889,-0.0435778 0.0388667,-0.0906889 0.0459333,-0.136622 0.0400444,-0.0683111 0.0588889,-0.147222 0.053,-0.234378z"/>
   <path id="_220022704" class="fil4" d="M27.467 44.0136c-0.506444,0.253222 -1.19073,0.428711 -1.71013,0.7526 -0.0989333,-0.288556 -0.2438,-0.566511 -0.368644,-0.844467 -0.104822,-0.252044 -0.210822,-0.525289 -0.3286,-0.782044 0.506444,-0.0577111 1.05176,-0.362756 1.46044,-0.533533 0.552378,-0.234378 1.07884,-0.521756 1.62416,-0.778511 0.263822,-0.124844 0.539422,-0.220244 0.790289,-0.345089 0.053,0.109533 0.104822,0.219067 0.144867,0.327422 0.130733,0.3286 0.249689,0.663089 0.380422,0.992867 -0.683111,0.327422 -1.34149,0.885689 -1.9928,1.21076zm3.15762 -1.15893c-0.0459333,-0.53 -0.256756,-1.01524 -0.473467,-1.4946 -0.131911,-0.288556 -0.348622,-0.658378 -0.638356,-0.853889 -0.0518222,-0.0765556 -0.131911,-0.136622 -0.236733,-0.154289 -0.875089,-0.140156 -1.7702,0.491133 -2.53222,0.866844 -0.520578,0.256756 -1.04704,0.524111 -1.57351,0.770267 -0.341556,0.157822 -0.684289,0.288556 -0.868022,0.617156 -0.0518222,0.0388667 -0.0848,0.0965778 -0.0989333,0.177844 -0.0718444,0.456978 0.368644,2.47451 1.01996,2.7772 0.0400444,0.0482889 0.0789111,0.0883333 0.1378,0.110711 0.829156,0.327422 1.92802,-0.325067 2.67827,-0.680756 0.829156,-0.3922 2.0458,-0.917489 2.48629,-1.76313 0.0270889,-0.0447556 0.0400444,-0.0918667 0.0459333,-0.1378 0.0329778,-0.0706667 0.0600667,-0.146044 0.053,-0.235556z"/>
   <path id="_220023328" class="fil4" d="M34.7232 40.8901c-0.506444,0.2544 -1.18367,0.429889 -1.70424,0.7526 -0.0977556,-0.289733 -0.249689,-0.567689 -0.367467,-0.845644 -0.111889,-0.249689 -0.210822,-0.524111 -0.329778,-0.780867 0.507622,-0.0577111 1.05293,-0.362756 1.45456,-0.533533 0.552378,-0.234378 1.08473,-0.521756 1.62416,-0.777333 0.263822,-0.126022 0.5406,-0.220244 0.796178,-0.345089 0.0471111,0.108356 0.0989333,0.219067 0.144867,0.326244 0.131911,0.327422 0.2438,0.663089 0.375711,0.994044 -0.684289,0.326244 -1.34267,0.884511 -1.99398,1.20958zm3.15762 -1.15776c-0.0388667,-0.531178 -0.255578,-1.0176 -0.473467,-1.49578 -0.130733,-0.289733 -0.341556,-0.658378 -0.631289,-0.853889 -0.0518222,-0.0765556 -0.131911,-0.1378 -0.2438,-0.155467 -0.868022,-0.138978 -1.76902,0.492311 -2.52633,0.8692 -0.525289,0.256756 -1.04587,0.524111 -1.57233,0.770267 -0.341556,0.156644 -0.684289,0.288556 -0.868022,0.617156 -0.0518222,0.0388667 -0.0918667,0.0954 -0.0989333,0.177844 -0.0718444,0.4558 0.361578,2.47333 1.01996,2.7772 0.0329778,0.0471111 0.0789111,0.0871556 0.1378,0.109533 0.823267,0.326244 1.92096,-0.325067 2.6712,-0.679578 0.836222,-0.394556 2.05287,-0.918667 2.49336,-1.76431 0.0200222,-0.0459333 0.0329778,-0.0906889 0.0459333,-0.136622 0.0329778,-0.0694889 0.053,-0.147222 0.0459333,-0.235556z"/>
   <path id="_220022824" class="fil4" d="M29.0134 48.7788c-0.506444,0.2544 -1.18484,0.428711 -1.70424,0.753778 -0.0989333,-0.289733 -0.249689,-0.568867 -0.368644,-0.846822 -0.104822,-0.250867 -0.210822,-0.524111 -0.3286,-0.780867 0.506444,-0.0600667 1.05293,-0.363933 1.45338,-0.535889 0.552378,-0.2332 1.08591,-0.520578 1.62533,-0.776156 0.263822,-0.124844 0.539422,-0.219067 0.796178,-0.345089 0.0459333,0.109533 0.0989333,0.217889 0.144867,0.327422 0.131911,0.326244 0.242622,0.663089 0.374533,0.991689 -0.677222,0.3286 -1.34149,0.885689 -1.9928,1.21193zm3.15762 -1.15893c-0.0388667,-0.531178 -0.256756,-1.01524 -0.473467,-1.49578 -0.131911,-0.288556 -0.342733,-0.656022 -0.632467,-0.853889 -0.0518222,-0.0765556 -0.130733,-0.1378 -0.242622,-0.153111 -0.875089,-0.140156 -1.7702,0.491133 -2.5334,0.866844 -0.5194,0.256756 -1.0388,0.524111 -1.57233,0.770267 -0.334489,0.157822 -0.677222,0.288556 -0.868022,0.617156 -0.0459333,0.0376889 -0.0789111,0.0954 -0.0918667,0.177844 -0.0730222,0.454622 0.367467,2.47569 1.01878,2.7772 0.0329778,0.0471111 0.0800889,0.0883333 0.138978,0.110711 0.822089,0.327422 1.92684,-0.326244 2.6712,-0.679578 0.829156,-0.395733 2.05169,-0.918667 2.49336,-1.76549 0.0200222,-0.0447556 0.0388667,-0.0906889 0.0459333,-0.136622 0.0329778,-0.0706667 0.0518222,-0.147222 0.0459333,-0.235556z"/>
   <path id="_220023136" class="fil4" d="M36.2767 45.6554c-0.506444,0.253222 -1.18484,0.428711 -1.70424,0.7526 -0.104822,-0.289733 -0.250867,-0.567689 -0.368644,-0.846822 -0.111889,-0.248511 -0.210822,-0.524111 -0.335667,-0.780867 0.506444,-0.0565333 1.05882,-0.361578 1.46044,-0.532356 0.553556,-0.234378 1.07884,-0.522933 1.62533,-0.778511 0.262644,-0.126022 0.539422,-0.219067 0.796178,-0.345089 0.0459333,0.109533 0.0989333,0.219067 0.1378,0.326244 0.131911,0.3286 0.249689,0.665444 0.3816,0.992867 -0.684289,0.3286 -1.34149,0.885689 -1.9928,1.21193zm3.15762 -1.16011c-0.0459333,-0.527644 -0.256756,-1.01524 -0.474644,-1.49578 -0.130733,-0.288556 -0.348622,-0.656022 -0.637178,-0.852711 -0.053,-0.0753778 -0.124844,-0.136622 -0.236733,-0.153111 -0.875089,-0.138978 -1.7702,0.491133 -2.5334,0.866844 -0.5194,0.257933 -1.03998,0.525289 -1.57233,0.771444 -0.341556,0.157822 -0.684289,0.288556 -0.868022,0.615978 -0.0459333,0.0388667 -0.0859778,0.0977556 -0.0989333,0.176667 -0.0718444,0.456978 0.368644,2.47569 1.01996,2.77956 0.0388667,0.0459333 0.0848,0.0859778 0.1378,0.109533 0.829156,0.327422 1.92802,-0.326244 2.67709,-0.680756 0.829156,-0.393378 2.04698,-0.917489 2.48747,-1.76196 0.0259111,-0.0471111 0.0388667,-0.0918667 0.0459333,-0.136622 0.0400444,-0.0730222 0.0588889,-0.1484 0.053,-0.239089z"/>
   <path id="_220022488" class="fil4" d="M43.7368 41.7699c-0.276778,0.301511 -0.605378,0.550022 -0.954,0.7632 -0.104822,0.0636 -0.3816,0.174311 -0.664267,0.315644 -1.11889,-1.88209 -1.80907,-4.01504 -2.93502,-5.88064 0.895111,-0.7526 2.02696,-1.59471 3.26362,-1.28378 0.0789111,0.0200222 0.150756,0.0212 0.216711,0.0141333 0.2968,1.01171 0.645422,1.99162 1.007,2.98331 0.263822,0.729044 0.361578,1.63122 0.691356,2.36733 -0.2438,0.200222 -0.408689,0.488778 -0.6254,0.7208zm1.01289 -3.38611c-0.420467,-1.1766 -0.979911,-2.25427 -1.61827,-3.32487 -0.0129556,-0.0270889 -0.0400444,-0.0459333 -0.0588889,-0.0659556 -0.0459333,-0.1484 -0.151933,-0.283844 -0.329778,-0.359222 -1.25551,-0.521756 -3.68409,0.449911 -4.20349,1.802 -0.0848,0.0400444 -0.144867,0.1166 -0.131911,0.235556 0.309756,2.40502 1.55938,4.87836 2.82902,6.91238 0.0930444,0.1484 0.217889,0.227311 0.355689,0.2544 0.559444,0.4664 1.59236,-0.114244 2.10469,-0.427533 0.592422,-0.361578 1.40862,-1.0388 1.62533,-1.76196 0.00706667,-0.0129556 0.0200222,-0.0223778 0.0259111,-0.0353333 0.401622,-1.007 -0.242622,-2.26604 -0.598311,-3.22947z"/>
  </g>
 </g>
</svg>
