<?xml version="1.0" encoding="UTF-8"?>
<!DOCTYPE svg PUBLIC "-//W3C//DTD SVG 1.1//EN" "http://www.w3.org/Graphics/SVG/1.1/DTD/svg11.dtd">
<!-- Creator: CorelDRAW X5 -->
<?xml-stylesheet href="bulb.css" type="text/css"?>
<svg xmlns="http://www.w3.org/2000/svg" xml:space="preserve" width="50px" height="52px" style="shape-rendering:geometricPrecision; text-rendering:geometricPrecision; image-rendering:optimizeQuality; fill-rule:evenodd; clip-rule:evenodd"
viewBox="0 0 50 52.0009"
 xmlns:xlink="http://www.w3.org/1999/xlink">
 <g id="Layer_x0020_1">
  <metadata id="CorelCorpID_0Corel-Layer"/>
  <g id="_1137995832">
   <path id="_1137997440" class="fil0" d="M21.0007 20.3829c-0.196069,1.04885 -1.03232,2.26897 -2.08235,2.61504 -1.0335,0.340168 -2.15558,-0.320089 -1.95951,-1.47642 0.180714,-1.06539 0.989795,-2.25243 1.98077,-2.71072 0.0732307,-0.0354342 0.151186,-0.0283473 0.220873,-0.00236228 0.0200794,-0.0826798 0.0685061,-0.160635 0.14528,-0.207881 1.12444,-0.68388 1.86148,0.890579 1.69494,1.78234zm-2.05636 8.08962c-0.755929,1.1646 -2.25598,1.21303 -3.01781,0.0307096 -0.539781,-0.835066 -0.820892,-2.35165 -0.0602381,-3.14419 0.0909477,-0.467731 0.569309,-0.800813 1.04767,-0.861051 0.514977,-0.0637815 1.0394,0.200794 1.38548,0.571672 0.774828,0.826798 1.32288,2.35637 0.644902,3.40286zm3.1879 -1.74927c0.0614193,-0.318908 0.448833,-0.519701 0.750024,-0.42521 1.51895,0.473637 2.5548,1.8414 3.27884,3.44066 -0.395682,-1.74691 -0.478362,-3.55405 -0.112208,-5.1663 0.0885855,-0.393319 0.621279,-0.627185 0.962629,-0.392138 2.76387,1.9099 2.84891,6.23524 3.32255,9.39951 0.640178,-0.172446 1.31933,-0.328357 2.02329,-0.452376l0.57049 -1.73037c0.519701,-1.89337 1.58391,-3.80918 1.66423,-5.72144 0.223235,-5.43797 -3.77256,-11.6165 -9.91094,-10.8405 -5.45332,0.688604 -12.8295,6.45965 -10.8783,12.7138 1.26028,4.03832 4.69503,5.98602 7.40338,8.7239l1.97487 1.3654c0.702778,-0.751205 1.51658,-1.41264 2.39889,-1.98786 -2.09062,-2.33984 -4.05367,-5.87026 -3.44775,-8.92705z"/>
   <path id="_1137997536" class="fil1" d="M23.2318 27.7934c-0.0874043,2.5926 1.79651,5.18875 3.31664,7.27228 0.085042,-0.0472456 0.170084,-0.09331 0.257488,-0.139374 -0.811443,-2.05164 -1.52603,-5.85255 -3.57413,-7.1329z"/>
   <path id="_1137997152" class="fil1" d="M29.1529 33.9294c0.0602381,-0.0200794 0.125201,-0.0389776 0.184258,-0.0578758 -0.706321,-2.40244 -0.569309,-5.88916 -2.1792,-7.82505 -0.199613,2.70717 0.789001,5.47458 1.55438,8.04238 0.146461,-0.0543324 0.292923,-0.111027 0.440565,-0.159454z"/>
   <path id="_1137997080" class="fil1" d="M19.3164 19.1711c-0.0129925,0.0212605 -0.0259851,0.042521 -0.050789,0.0614193 -0.571672,0.453558 -1.11381,1.17996 -1.35595,1.86856 -0.0720495,0.204337 -0.287017,0.734669 -0.0685061,0.920108 0.185439,0.158273 0.592932,0.137012 0.799631,0.0224417 0.620098,-0.340168 1.09137,-1.01814 1.25791,-1.70084 0.0578758,-0.245677 0.13465,-0.572853 -0.0283473,-0.800813 -0.122839,-0.173628 -0.370878,-0.240952 -0.553954,-0.370878z"/>
   <path id="_1137997320" class="fil1" d="M17.0025 25.5339c-0.19725,0.0248039 -0.360248,0.173628 -0.542143,0.275206 -0.214967,0.654351 -0.191345,1.37721 0.18662,1.98904 0.36261,0.584664 1.09374,0.842153 1.44453,0.050789 0.270481,-0.607106 -0.0248039,-1.49768 -0.457101,-1.95951 -0.160635,-0.171265 -0.372059,-0.388595 -0.63191,-0.355523z"/>
   <path id="_1137996528" class="fil0" d="M28.0414 34.3511c-0.329538,-0.526788 -0.630729,-1.09374 -0.900028,-1.69257 0.168903,0.67325 0.302372,1.3217 0.411037,1.90045 0.161816,-0.0732307 0.325995,-0.139374 0.488992,-0.207881z"/>
   <path id="_1137996480" class="fil2" d="M34.6499 39.528c-0.242134,-0.513796 -0.465369,-1.04295 -0.680336,-1.578 -1.34296,-0.0566947 -2.693,-0.0460644 -3.99225,0.357885 -0.871681,0.271662 -1.78588,0.654351 -2.43079,1.3276 -0.359066,0.374421 -0.637815,0.783096 -1.06066,1.08665 -0.162997,0.115752 -0.35198,-0.0448833 -0.364972,-0.211424 -0.144099,-1.69966 2.13196,-3.04262 3.49499,-3.51861 1.20358,-0.419305 2.59733,-0.624823 3.86351,-0.337806 -0.246858,-0.682699 -0.47718,-1.37012 -0.687423,-2.05636 -0.849239,0.114571 -1.71029,0.304734 -2.58551,0.583483 -2.37763,0.755929 -4.69857,1.97841 -6.3817,3.72413 0.729944,1.44808 1.43863,2.92923 2.05873,4.42927 1.52367,-2.16149 6.01554,-4.08674 8.76642,-3.80681z"/>
   <path id="_1137996720" class="fil3" d="M26.7953 44.9117c2.83592,1.06539 5.91515,0.483086 7.93844,-2.84064 0.166541,-0.271662 0.315364,-0.550411 0.458282,-0.830341 -1.61698,0.12402 -3.12057,0.119295 -4.75291,0.765378 -1.70793,0.676793 -2.86072,1.46579 -3.64382,2.9056z"/>
   <path id="_1137996432" class="fil4" d="M34.7338 42.071c-2.02329,3.32255 -5.10252,3.90603 -7.93844,2.84064 0.783096,-1.43981 1.93589,-2.22881 3.64382,-2.9056 1.63233,-0.646083 3.13593,-0.641359 4.75291,-0.765378 -0.142918,0.27993 -0.291741,0.558679 -0.458282,0.830341zm-8.85028 1.26382c-0.620098,-1.50005 -1.32878,-2.9812 -2.05873,-4.42927 1.68312,-1.74572 4.00406,-2.9682 6.3817,-3.72413 0.875224,-0.278749 1.73509,-0.468912 2.58551,-0.583483 0.210243,0.686242 0.440565,1.37367 0.687423,2.05636 -1.26618,-0.287017 -2.65993,-0.0814986 -3.86351,0.337806 -1.36304,0.475999 -3.64027,1.81895 -3.49499,3.51861 0.0129925,0.166541 0.201975,0.327176 0.364972,0.211424 0.424029,-0.304734 0.700416,-0.712227 1.06066,-1.08665 0.644902,-0.67325 1.5591,-1.05594 2.43079,-1.3276 1.29925,-0.40395 2.6493,-0.41458 3.99225,-0.357885 0.214967,0.535056 0.438203,1.06421 0.680336,1.57918 -2.75087,-0.281111 -7.24393,1.64415 -8.76642,3.80563zm0.92247 -8.40853c-0.0862232,0.0460644 -0.172446,0.0921289 -0.257488,0.139374 -1.52013,-2.08353 -3.40523,-4.67967 -3.31664,-7.27228 2.0481,1.27917 2.76269,5.08126 3.57413,7.1329zm1.23547 -0.575215c-0.161816,0.0685061 -0.327176,0.13465 -0.488992,0.207881 -0.108665,-0.578758 -0.242134,-1.2272 -0.411037,-1.90045 0.2693,0.598838 0.57049,1.16697 0.900028,1.69257zm-0.883492 -8.30459c1.60989,1.93589 1.47288,5.42261 2.1792,7.82505 -0.059057,0.0188982 -0.125201,0.0377965 -0.184258,0.0578758 -0.146461,0.0484267 -0.294104,0.105121 -0.440565,0.159454 -0.765378,-2.5678 -1.75399,-5.33521 -1.55438,-8.04238zm-3.9769 11.5917l-1.97487 -1.3654c-2.70717,-2.73788 -6.14311,-4.68558 -7.40338,-8.7239 -1.95124,-6.25413 5.42497,-12.0252 10.8783,-12.7138 6.13838,-0.776009 10.1342,5.40253 9.91094,10.8405 -0.0803175,1.91226 -1.14571,3.82807 -1.66423,5.72144l-0.57049 1.73037c-0.703959,0.12402 -1.38311,0.27993 -2.02329,0.452376 -0.473637,-3.16427 -0.558679,-7.48961 -3.32255,-9.39951 -0.341349,-0.235047 -0.874043,-0.00118114 -0.962629,0.392138 -0.364972,1.61226 -0.283473,3.4194 0.112208,5.1663 -0.724039,-1.59926 -1.76108,-2.96702 -3.27884,-3.44066 -0.301191,-0.0944912 -0.688604,0.106303 -0.750024,0.42521 -0.604743,3.05679 1.35713,6.58722 3.44775,8.92705 -0.88113,0.575215 -1.69612,1.23665 -2.39889,1.98786zm12.1386 -0.0413399c-0.480724,-1.0146 -0.901209,-2.05755 -1.29807,-3.1123l-0.00826798 -0.0283473c-0.259851,-2.80993 1.49532,-5.10843 1.81187,-7.88883 0.271662,-2.39535 0.188982,-5.0789 -0.951998,-7.27346 -2.62449,-5.04937 -7.73765,-6.95691 -13.1083,-5.2856 -4.81905,1.50123 -8.91524,6.02854 -9.57196,11.0189 -0.827979,6.32264 5.89743,10.4614 10.1921,13.83l0.527969 1.1398c0.27993,0.607106 0.55986,1.21421 0.832703,1.82486 0.274024,0.608287 0.51852,1.21894 0.753567,1.83077l0.692148 1.96424 0.569309 0.261032c0.00944912,0.0141737 0.0153548,0.0271662 0.0271662,0.0413399 0.0803175,0.100397 0.18662,0.125201 0.289379,0.106303l0.954361 0.439384c1.94416,0.628366 4.09147,0.510252 6.06515,-0.682699 1.22602,-0.740575 2.30677,-1.9477 3.19734,-3.36861l0.895304 -1.63588 -1.06893 -1.67486c-0.27993,-0.480724 -0.54923,-0.975621 -0.800813,-1.50595z"/>
   <path id="_1137996888" class="fil4" d="M19.8987 20.3428c-0.166541,0.682699 -0.637815,1.36067 -1.25791,1.70084 -0.206699,0.114571 -0.615374,0.135831 -0.799631,-0.0224417 -0.218511,-0.185439 -0.00354342,-0.715771 0.0685061,-0.920108 0.242134,-0.688604 0.784277,-1.41501 1.35595,-1.86856 0.0248039,-0.0188982 0.0377965,-0.0401587 0.050789,-0.0614193 0.183077,0.129925 0.431116,0.19725 0.553954,0.370878 0.164178,0.22796 0.0862232,0.555136 0.0283473,0.800813zm-0.592932 -1.74218c-0.0767741,0.0472456 -0.125201,0.125201 -0.14528,0.207881 -0.0696872,-0.0259851 -0.147642,-0.0330719 -0.220873,0.00236228 -0.990976,0.458282 -1.80006,1.64533 -1.98077,2.71072 -0.196069,1.15515 0.926013,1.81659 1.95951,1.47642 1.05003,-0.346074 1.88628,-1.56619 2.08235,-2.61504 0.167722,-0.89176 -0.57049,-2.46622 -1.69494,-1.78234z"/>
   <path id="_1137996552" class="fil4" d="M18.0915 27.8489c-0.350798,0.790182 -1.08192,0.533875 -1.44453,-0.050789 -0.377965,-0.61183 -0.402769,-1.33469 -0.18662,-1.98904 0.181895,-0.101578 0.344893,-0.24922 0.540962,-0.275206 0.261032,-0.0330719 0.472456,0.184258 0.633091,0.355523 0.432297,0.461826 0.727582,1.3524 0.457101,1.95951zm-1.1776 -3.35089c-0.478362,0.0602381 -0.956723,0.393319 -1.04767,0.861051 -0.760654,0.792545 -0.479543,2.30913 0.0602381,3.14419 0.761835,1.18232 2.26188,1.13389 3.01781,-0.0307096 0.677974,-1.04649 0.128744,-2.57607 -0.644902,-3.40286 -0.346074,-0.372059 -0.871681,-0.635453 -1.38548,-0.571672z"/>
   <path id="_1137996696" class="fil0" d="M48.2283 23.559c-2.29614,-0.00944912 -4.51313,1.04413 -6.67698,1.68431 -0.479543,0.141737 -0.277568,0.890579 0.205518,0.747661 2.17684,-0.643721 4.55802,-0.88113 6.62974,-1.84376 0.297647,-0.138193 0.138193,-0.587026 -0.158273,-0.588208z"/>
   <path id="_1137996792" class="fil0" d="M41.7108 10.2275c-0.845696,0.712227 -1.42327,1.78116 -2.05873,2.67528 -0.711046,0.998063 -1.32406,2.05164 -1.81423,3.17372 -0.194888,0.441746 0.396863,0.81853 0.661438,0.386233 0.634272,-1.04413 1.36422,-2.03038 2.10715,-3.00128 0.659076,-0.865775 1.46343,-1.80124 1.7162,-2.87726 0.0897666,-0.374421 -0.334262,-0.589389 -0.61183,-0.356704z"/>
   <path id="_1137996576" class="fil0" d="M25.4654 4.82614c0.0484267,1.10555 -0.0602381,2.21936 0.298828,3.28239 0.0885855,0.268119 0.48663,0.291741 0.565766,0 0.584664,-2.13786 0.220873,-4.94307 -0.592932,-6.98053 -0.157092,-0.396863 -0.739393,-0.253945 -0.649627,0.178352 0.248039,1.16224 0.323632,2.33629 0.377965,3.5198z"/>
   <path id="_1137995736" class="fil0" d="M11.8527 13.5536c0.298828,0.220873 0.602381,-0.191345 0.46655,-0.46655 -0.845696,-1.70911 -2.44142,-3.1749 -3.75012,-4.53203 -0.346074,-0.360248 -0.836247,0.164178 -0.535056,0.535056 1.19295,1.47879 2.27369,3.32609 3.81862,4.46353z"/>
   <path id="_1137996120" class="fil0" d="M9.35108 26.2626c-2.1544,-1.48233 -4.98441,-2.05636 -7.45299,-2.80403 -0.37324,-0.113389 -0.63191,0.468912 -0.2693,0.638997 2.35283,1.09255 4.89937,2.29495 7.44945,2.81111 0.399225,0.0814986 0.605925,-0.416942 0.272843,-0.646083z"/>
   <path id="_1137996096" class="fil0" d="M12.2626 35.1578c-2.83592,0.379146 -5.16985,2.65048 -7.16952,4.5214 -0.32127,0.301191 0.108665,0.875224 0.474818,0.615374 1.11027,-0.785458 2.20637,-1.59218 3.33081,-2.35519 1.1398,-0.774828 2.40126,-1.35004 3.54696,-2.10715 0.268119,-0.17599 0.203156,-0.726401 -0.183077,-0.674431z"/>
   <path id="_1137996072" class="fil0" d="M19.8573 45.6073c-1.65832,1.18586 -2.86544,3.13711 -4.10328,4.73401 -0.334262,0.432297 0.226779,1.04649 0.621279,0.620098 1.3654,-1.47524 3.04616,-3.07333 3.94146,-4.89346 0.133469,-0.274024 -0.161816,-0.67325 -0.459463,-0.460644z"/>
  </g>
 </g>
</svg>
