<?xml version="1.0" encoding="UTF-8"?>
<!DOCTYPE svg PUBLIC "-//W3C//DTD SVG 1.1//EN" "http://www.w3.org/Graphics/SVG/1.1/DTD/svg11.dtd">
<!-- Creator: CorelDRAW X5 -->
<?xml-stylesheet href="colorpallet.css" type="text/css"?>
<svg xmlns="http://www.w3.org/2000/svg" xml:space="preserve" width="84px" height="132px" style="shape-rendering:geometricPrecision; text-rendering:geometricPrecision; image-rendering:optimizeQuality; fill-rule:evenodd; clip-rule:evenodd"
viewBox="0 0 84 132"
 xmlns:xlink="http://www.w3.org/1999/xlink">
 <g id="Layer_x0020_1">
  <metadata id="CorelCorpID_0Corel-Layer"/>
  <g id="_220025992">
   <path id="_220019056" class="fil0" d="M29.7945 11.6232c-0.472441,0.00708661 -0.715748,-0.56811 -0.390945,-0.907087 2.46378,-2.57126 -0.609449,-3.71339 -2.13661,-3.19724 -0.390945,0.140551 -0.786614,0.264567 -1.18819,0.372047 -0.419291,0.122835 -1.05945,0.198425 -1.47165,-0.0165354 -0.977953,-0.512598 -1.34646,-1.31811 -1.24961,-2.43898 0.0767717,-0.864567 0.603543,-2.69646 -0.526772,-3.18543 -1.48583,-0.643701 -3.00354,0.340157 -4.05591,1.33583 -1.28622,1.21772 -2.51339,2.58543 -3.40157,4.12441 -0.023622,0.0425197 -0.0531496,0.0755906 -0.0850394,0.100394 -0.20315,0.381496 -0.768898,0.548031 -0.983858,0.057874 -0.705118,-1.61457 -2.50039,-2.7437 -3.39567,-0.587008 -0.512598,1.23661 -0.679134,2.46496 -0.542126,3.79134 0.0566929,0.56811 -0.635433,0.706299 -0.992126,0.427559 -0.399213,-0.312992 -2.85472,-2.35748 -3.43583,-1.19646 -0.355512,0.70748 -0.261024,1.60157 -0.0531496,2.34094 0.545669,1.94055 1.60512,3.67795 3.27283,4.84724 0.281102,0.197244 0.427559,0.637795 0.126378,0.901181 -1.23898,1.07953 -2.74016,1.81535 -3.97087,2.89843 -2.27717,2.00551 -0.924803,4.59331 1.88622,4.48465 3.21142,-0.124016 6.07323,-1.71496 9.09094,-2.6374 2.0622,-0.630709 3.84567,-0.872835 5.39409,0.877559 0.373228,0.421654 0.646063,0.922441 0.974409,1.37598 1.17874,1.62047 3.30709,1.49409 4.12795,-0.488976 0.706299,-1.69961 0.804331,-3.5185 0.668504,-5.33031 -0.0177165,-0.233858 0.168898,-0.491339 0.399213,-0.543307 2.53937,-0.558661 5.89016,-1.70906 7.34528,-4.07126 2.02205,-3.2811 -3.45827,-3.3626 -5.40591,-3.33543z"/>
   <path id="_220018840" class="fil1" d="M26.687 16.428c-0.314173,1.25079 -0.956693,2.96575 -2.34921,2.97638 -1.4374,0.011811 -2.24055,-1.05709 -2.83228,-2.22874 -1.59213,1.43031 -3.89528,3.12047 -6.00118,1.89094 -1.04291,-0.608268 -1.14331,-1.25197 -0.708661,-1.74213 -1.83543,-0.676772 -1.6252,-2.55354 0.0980315,-3.74173 -2.38346,-1.16929 -2.71417,-4.54724 -1.59094,-7.06417 -0.806693,-0.647244 -1.79882,-0.669685 -2.39409,0.762992 -0.512598,1.23661 -0.679134,2.46496 -0.542126,3.79134 0.0566929,0.56811 -0.635433,0.706299 -0.992126,0.427559 -0.399213,-0.312992 -2.85472,-2.35748 -3.43583,-1.19646 -0.355512,0.70748 -0.261024,1.60157 -0.0531496,2.34094 0.545669,1.94055 1.60512,3.67795 3.27283,4.84724 0.281102,0.197244 0.427559,0.637795 0.126378,0.901181 -1.23898,1.07953 -2.74016,1.81535 -3.97087,2.89843 -2.27717,2.00551 -0.924803,4.59331 1.88622,4.48465 3.21142,-0.124016 6.07323,-1.71496 9.09094,-2.6374 2.0622,-0.630709 3.84567,-0.872835 5.39409,0.877559 0.373228,0.421654 0.646063,0.922441 0.974409,1.37598 1.17874,1.62047 3.30709,1.49409 4.12795,-0.488976 0.706299,-1.69961 0.804331,-3.5185 0.668504,-5.33031 -0.0177165,-0.233858 0.168898,-0.491339 0.399213,-0.543307 2.53937,-0.558661 5.89016,-1.70906 7.34528,-4.07126 0.284646,-0.461811 0.416929,-0.858661 0.434646,-1.20236 -2.39646,2.35276 -5.90669,4.17283 -8.94803,2.67165z"/>
   <path id="_220019440" class="fil2" d="M35.2004 14.9587c-1.45394,2.3622 -4.80591,3.5126 -7.34528,4.07126 -0.230315,0.0519685 -0.416929,0.309449 -0.399213,0.543307 0.135827,1.81181 0.0377953,3.63071 -0.668504,5.33031 -0.820866,1.98307 -2.94921,2.10945 -4.12795,0.488976 -0.328346,-0.453543 -0.601181,-0.954331 -0.974409,-1.37598 -1.54843,-1.75039 -3.33307,-1.50827 -5.39409,-0.877559 -3.01772,0.922441 -5.87953,2.51339 -9.09094,2.6374 -2.81102,0.108661 -4.16339,-2.47913 -1.88622,-4.48465 1.23189,-1.08307 2.73189,-1.8189 3.97087,-2.89843 0.301181,-0.263386 0.154724,-0.703937 -0.126378,-0.901181 -1.66772,-1.17047 -2.72717,-2.90669 -3.27283,-4.84724 -0.207874,-0.73937 -0.302362,-1.63346 0.0531496,-2.34094 0.581102,-1.16102 3.03661,0.883465 3.43583,1.19646 0.356693,0.27874 1.04882,0.140551 0.992126,-0.427559 -0.135827,-1.32638 0.0295276,-2.55472 0.542126,-3.79134 0.895276,-2.15669 2.69055,-1.02756 3.39567,0.587008 0.214961,0.490157 0.780709,0.323622 0.983858,-0.057874 0.0318898,-0.0248031 0.0614173,-0.057874 0.0850394,-0.100394 0.888189,-1.54016 2.11535,-2.90669 3.40157,-4.12441 1.05354,-0.995669 2.5689,-1.97953 4.05591,-1.33583 1.13031,0.488976 0.603543,2.32087 0.526772,3.18543 -0.0968504,1.12087 0.271654,1.92638 1.24961,2.43898 0.412205,0.214961 1.05236,0.13937 1.47165,0.0165354 0.401575,-0.10748 0.797244,-0.231496 1.18819,-0.372047 1.52717,-0.516142 4.60039,0.625984 2.13661,3.19724 -0.324803,0.338976 -0.0814961,0.914173 0.389764,0.907087 1.94882,-0.0271654 7.42913,0.0555118 5.40709,3.33543zm1.38543 -2.24409c-0.764173,-1.96299 -3.70276,-2.16969 -5.76378,-2.1685 0.777165,-1.4622 0.666142,-3.35433 -1.26969,-4.09724 -1.3252,-0.509055 -2.45787,0.0673228 -3.75709,0.458268 -2.17795,0.655512 -1.00039,-3.51024 -1.30394,-4.24843 -2.09764,-5.1 -7.72795,1.39252 -9.38268,4.18701 -0.768898,-1.56969 -2.00787,-3.05787 -3.83976,-1.9252 -1.52953,0.944882 -2.07402,3.17598 -2.11181,5.02087 -1.72323,-1.08189 -4.06535,-1.90394 -4.56614,0.78189 -0.49252,2.64213 1.34528,5.58071 3.36732,7.27559 -2.0126,1.52362 -5.06575,2.80039 -5.22992,5.55472 -0.147638,2.48031 3.14291,3.46299 5.00315,3.39094 3.06732,-0.119291 6.02835,-1.70551 8.8878,-2.66457 2.0752,-0.695669 3.41457,-0.727559 4.77992,1.26969 0.66378,0.968504 1.25551,1.75748 2.39764,2.1378 2.92323,0.972047 4.40315,-2.86063 4.71614,-4.92756 0.103937,-0.69685 0.109843,-1.40315 0.111024,-2.10472 0.00354331,-1.05709 0.987402,-0.92126 1.89803,-1.24252 1.41969,-0.498425 2.74606,-1.25197 3.93543,-2.16496 1.3252,-1.01811 2.82165,-2.75079 2.12835,-4.53307z"/>
   <path id="_220018984" class="fil3" d="M36.9614 45.9626c-4.20354,6.44646 -9.34016,12.1654 -15.8941,16.5969 -3.41929,2.31496 -7.13268,4.0748 -10.5768,6.3248 -0.80315,0.525591 -4.97362,3.10039 -3.30118,4.45748 1.0063,0.816142 2.74961,0.470079 3.88937,0.200787 6.54094,-1.5437 12.9366,-5.14843 18.5598,-8.78622 4.9937,-3.2315 9.65197,-6.97677 13.7811,-11.2642 0.106299,-2.09291 0.381496,-4.03701 -1.28622,-5.80039 -1.57323,-1.66181 -3.16181,-1.78465 -5.17205,-1.72913z"/>
   <path id="_220019320" class="fil0" d="M48.9957 22.2933c0.00590551,0.00590551 0.011811,0.00944882 0.0177165,0.0165354 1.37244,1.42677 1.69488,3.55866 2.03268,5.48386 1.41378,-1.42205 2.79567,-4.98543 5.09055,-3.64252 0.265748,0.154724 0.468898,0.524409 0.533858,0.814961 0.262205,1.1374 1.09724,2.01378 2.29134,2.26417 1.47047,0.308268 1.65827,-3.61417 1.94646,-4.46339 0.153543,-0.452362 0.694488,-0.496063 0.961417,-0.125197 0.748819,1.03583 1.65591,1.94291 2.1378,0.959055 -2.60197,-3.98386 -7.23661,-7.01811 -11.9929,-7.23425 -1.24961,-0.0566929 -2.45079,0.0271654 -3.62362,0.212598 1.32638,1.58858 1.79291,3.65551 0.604724,5.71417z"/>
   <path id="_220018696" class="fil4" d="M64.6441 24.6744c-0.772441,0.947244 -1.94291,0.416929 -2.98465,-0.669685 -0.669685,2.82992 -0.434646,5.36102 -4.30512,3.80551 -0.647244,-0.261024 -1.04882,-0.715748 -1.36772,-1.31102 -0.266929,-0.497244 -0.28937,-2.90551 -1.82598,-1.04528 -1.0937,1.32283 -1.54252,3.01535 -3.21378,3.74173 -0.294094,0.12874 -0.714567,0.0519685 -0.788976,-0.320079 -0.316535,-1.56969 -0.438189,-3.50551 -1.20945,-4.93701 -0.168898,-0.314173 -0.362598,-0.558661 -0.574016,-0.754724 -0.0956693,0.115748 -0.191339,0.231496 -0.297638,0.346063 -2.06457,2.22402 -5.0374,3.3626 -7.07244,5.59843 -2.68583,2.95039 -1.46811,5.66929 0.311811,8.28071l0.622441 -0.184252c2.04567,-0.447638 4.25433,-0.251575 6.28583,0.62126 1.8874,0.809055 3.45472,2.01024 4.67717,3.47362 3.35197,-0.693307 6.5563,-1.60394 9.25748,-4.24488 3.21614,-3.14409 4.81063,-7.80118 2.67638,-12.052 -0.0614173,-0.116929 -0.129921,-0.231496 -0.191339,-0.348425z"/>
   <path id="_220018648" class="fil5" d="M65.2417 25.9736c-0.527953,3.84803 -2.83937,7.71024 -5.79449,9.89055 -1.28858,0.951969 -3.98622,2.28071 -5.38937,0.638976 -0.798425,-0.935433 -0.570472,-2.0126 -0.158268,-3.07087 -1.23189,1.02874 -2.62795,2.00197 -4.1752,1.81181 -1.75157,-0.21378 -3.64488,-0.703937 -4.49409,-2.44488 -1.08071,-2.21693 -1.02402,-4.70669 -0.116929,-6.86929 -1.44803,0.980315 -2.93504,1.9063 -4.10906,3.19843 -2.68583,2.95039 -1.46811,5.66929 0.311811,8.28071l0.622441 -0.184252c2.04567,-0.447638 4.25433,-0.251575 6.28583,0.62126 1.8874,0.809055 3.45472,2.01024 4.67717,3.47362 3.35197,-0.693307 6.5563,-1.60394 9.25748,-4.24488 2.97638,-2.91142 4.55906,-7.1185 3.08268,-11.1012z"/>
   <path id="_220018144" class="fil2" d="M62.1591 37.0748c-2.70118,2.64094 -5.90551,3.55157 -9.25748,4.24488 -1.22244,-1.46339 -2.78976,-2.66457 -4.67717,-3.47362 -2.0315,-0.872835 -4.24016,-1.0689 -6.28583,-0.62126l-0.622441 0.183071c-1.77992,-2.61024 -2.99882,-5.32913 -0.311811,-8.27953 2.03504,-2.23583 5.00787,-3.37441 7.07244,-5.59843 0.106299,-0.114567 0.200787,-0.230315 0.297638,-0.346063 0.211417,0.196063 0.405118,0.441732 0.574016,0.754724 0.772441,1.4315 0.892913,3.36732 1.20945,4.93701 0.0744094,0.372047 0.494882,0.448819 0.788976,0.320079 1.67244,-0.726378 2.12008,-2.4189 3.21378,-3.74173 1.53661,-1.86024 1.55906,0.548031 1.82598,1.04528 0.320079,0.594094 0.719291,1.05 1.36772,1.31102 3.87047,1.55551 3.63543,-0.975591 4.30512,-3.80551 1.04173,1.08661 2.2122,1.61693 2.98465,0.669685 0.0614173,0.116929 0.129921,0.231496 0.191339,0.348425 2.13543,4.25079 0.539764,8.90787 -2.67638,12.052zm-17.3055 14.8843c0.0484252,-1.70906 -0.676772,-3.59173 -1.62756,-4.72559 -1.3063,-1.56142 -3.55276,-2.79449 -5.57362,-2.35276 1.15512,-1.84134 2.23583,-3.74173 3.25866,-5.68228l1.13976 -0.75c2.17677,-0.445276 4.47638,-0.0968504 6.76417,1.10669 1.08189,0.569291 1.93228,1.26732 2.62559,2.0563l0.413386 1.53071c-2.27362,2.98465 -4.48228,6.00591 -7.00039,8.81693zm-1.43386 1.53307c-4.12913,4.28622 -8.7874,8.03268 -13.7811,11.2642 -5.62323,3.6378 -12.0189,7.24252 -18.5598,8.78622 -1.13976,0.269291 -2.88307,0.615354 -3.88937,-0.200787 -1.67244,-1.35827 2.49803,-3.93189 3.30118,-4.45748 3.44409,-2.25 7.15748,-4.00984 10.5768,-6.3248 6.55394,-4.4315 11.6894,-10.1504 15.8941,-16.5969 2.01024,-0.0555118 3.59764,0.0673228 5.17205,1.72913 1.6689,1.76339 1.39252,3.70866 1.28622,5.80039zm8.59488 -37.1256c4.7563,0.214961 9.39094,3.25039 11.9929,7.23425 -0.480709,0.983858 -1.38898,0.0767717 -2.1378,-0.959055 -0.265748,-0.370866 -0.807874,-0.327165 -0.961417,0.125197 -0.288189,0.849213 -0.475984,4.77165 -1.94646,4.46339 -1.19409,-0.250394 -2.02913,-1.12677 -2.29134,-2.26417 -0.0649606,-0.290551 -0.269291,-0.660236 -0.533858,-0.814961 -2.29488,-1.34291 -3.67677,2.22047 -5.09055,3.64252 -0.337795,-1.9252 -0.661417,-4.05709 -2.03268,-5.48386 -0.00590551,-0.00708661 -0.011811,-0.0106299 -0.0177165,-0.0165354 1.18819,-2.05866 0.721654,-4.12559 -0.604724,-5.71417 1.17283,-0.185433 2.37402,-0.269291 3.62362,-0.212598zm14.5157 9.40866c-0.291732,-0.964961 -0.714567,-1.87677 -1.23661,-2.73189l-0.923622 -1.32402c-2.21102,-2.8063 -5.52874,-4.85551 -8.77795,-5.9315 -2.65748,-0.882283 -5.53465,-0.879921 -8.33031,-0.296457l-1.34291 0.325984 1.35118 0.972047c1.25906,1.29331 1.33701,3.28583 0.595276,4.85315l-0.61063 0.982677c-1.49173,1.94291 -4.15748,3.14882 -6.02244,4.62402 -3.87165,3.06732 -3.54094,7.63819 -1.0122,11.0929l-0.549213 0.930709c-2.81811,4.72913 -5.74134,9.3874 -9.36732,13.5626 -4.32402,4.98189 -9.90709,9.01772 -15.6614,12.2008 -2.98346,1.65 -6.55394,3.11575 -8.5689,6.00354 -1.52717,2.1874 0.625984,3.84803 2.6752,3.97205 3.36732,0.200787 7.00039,-1.62402 9.9815,-2.95984 3.1063,-1.39016 6.13583,-2.99528 9.06732,-4.72559 10.0677,-5.93976 18.515,-14.0043 25.0854,-23.5772l0.574016 -0.855118c8.05394,-1.62047 15.6602,-8.52283 13.0736,-17.1189z"/>
   <path id="_220018288" class="fil3" d="M33.8551 111.452c-0.0519685,0.0200787 -0.109843,0.0307087 -0.172441,0.0141732 -1.94055,-0.506693 -4.24134,1.15512 -5.1437,2.76024 -1.03465,1.85079 -0.135827,4.14803 2.26417,3.61181 1.75866,-0.392126 3.62835,-1.62992 4.38425,-3.32008 0.370866,-0.833858 0.416929,-1.82362 -0.298819,-2.49803 -0.308268,-0.28937 -0.659055,-0.467717 -1.03346,-0.56811z"/>
   <path id="_220018072" class="fil6" d="M29.8346 88.2165c-1.39843,-0.26811 -2.99055,0.212598 -4.00276,1.19173 -0.493701,0.480709 -0.970866,1.07362 -1.14213,1.76102 -0.157087,0.62126 -0.00826772,1.15512 -0.00590551,1.75157 0.51378,0.131102 1.09606,0.133465 1.67126,-0.0389764 1.49528,-0.45 3.58937,-1.60512 3.92835,-3.30472 0.109843,-0.553937 -0.0944882,-1.0122 -0.448819,-1.36063z"/>
   <path id="_220017784" class="fil7" d="M45.4146 109.181c-1.27087,0.65315 -2.52402,1.48937 -3.17835,2.75433 -0.915354,1.77402 0.512598,4.00157 2.54528,3.17244 1.38071,-0.562205 2.6374,-1.94764 3.05315,-3.38622 0.188976,-0.655512 0.333071,-1.56142 -0.205512,-2.11181 -0.712205,-0.72874 -1.45157,-0.664961 -2.21457,-0.42874z"/>
   <path id="_220027432" class="fil8" d="M25.3429 88.5295c0.612992,-0.480709 1.28268,-0.843307 1.97717,-1.04291 -0.540945,0.057874 -1.06417,0.225591 -1.57087,0.457087 -0.915354,0.522047 -1.72677,1.23425 -2.23583,2.02441 -0.690945,1.07362 -0.425197,1.98307 0.270472,2.52283 -0.473622,-1.32874 0.592913,-3.20197 1.55906,-3.96142z"/>
   <path id="_220027288" class="fil9" d="M18.6638 110.463c-1.30276,0.412205 -2.55827,1.08425 -3.44173,2.09055 -1.41024,1.6063 -0.732283,3.86339 1.60276,3.55394 1.60748,-0.212598 3.46063,-1.22835 4.29921,-2.6563 0.381496,-0.654331 0.636614,-1.46457 0.16063,-2.14961 -0.628346,-0.905906 -1.63465,-1.00276 -2.62087,-0.838583z"/>
   <path id="_220027360" class="fil0" d="M18.3969 102.007c-1.4315,0.409843 -2.53465,1.14567 -2.8311,2.56772 0.205512,0.102756 0.441732,0.166535 0.715748,0.170079 1.55079,0.0165354 3.19488,-0.866929 4.22717,-1.99961 0.251575,-0.275197 0.526772,-0.609449 0.716929,-0.975591 -0.204331,-0.00944882 -0.412205,-0.0330709 -0.629528,-0.0330709 -0.738189,-0.0023622 -1.48465,0.0673228 -2.19921,0.270472z"/>
   <path id="_220027864" class="fil7" d="M65.4236 112.245c-3.89173,3.20669 -7.8,6.28228 -12.4394,8.34094 -4.84252,2.15079 -10.063,3.81732 -15.0472,5.61969 -4.85787,1.75866 -10.0146,2.71063 -15.1925,2.45079 -4.03819,-0.204331 -8.00669,-0.911811 -11.8972,-1.96063 2.63858,1.53543 5.5878,2.58189 8.56417,3.05433 6.61535,1.04882 13.0157,-0.183071 19.3547,-1.88504 0.0318898,-0.0519685 0.0791339,-0.0980315 0.153543,-0.124016 4.96772,-1.8 9.90118,-3.42047 14.5913,-5.90433 4.3122,-2.2878 8.59843,-4.73976 12.698,-7.39488 7.26024,-4.69961 16.272,-11.7697 15.3484,-21.5339 -0.0566929,-0.620079 -0.168898,-1.2248 -0.318898,-1.81181 0.0484252,4.6689 -3.8185,9.84567 -6.60354,12.8728 -2.82165,3.07205 -6,5.6315 -9.21142,8.27598z"/>
   <path id="_220027696" class="fil1" d="M14.9173 103.978c0.178346,-1.14094 1.19882,-2.01142 2.29488,-2.52283 0.882283,-0.412205 3.01535,-1.04764 4.23661,-0.615354 0,-0.0023622 0.0011811,-0.00590551 0,-0.00826772 -0.0649606,-0.751181 -0.628346,-1.14803 -1.30512,-1.35709 -1.48228,0.0366142 -3.01181,0.366142 -4.22008,1.2378 -0.822047,0.594094 -1.60512,1.50945 -1.29803,2.60551 0.069685,0.243307 0.168898,0.464173 0.291732,0.660236z"/>
   <path id="_220026568" class="fil10" d="M53.8205 103.251c-1.09252,0.661417 -2.01969,1.64882 -2.48268,2.65512 -0.88937,1.93937 0.301181,4.82362 2.79094,4.02283 1.71378,-0.549213 3.27756,-2.1626 3.81614,-3.88228 0.244488,-0.775984 0.414567,-1.7315 -0.0755906,-2.45669 -1.04173,-1.53307 -2.67283,-0.774803 -4.04882,-0.338976z"/>
   <path id="_220027072" class="fil11" d="M64.4055 92.7697c-0.641339,1.09252 -1.16811,2.31024 -1.09724,3.60709 0.0496063,0.960236 0.265748,1.53307 0.715748,2.26299 2.51102,0.0874016 5.06102,-1.86496 6.31181,-3.90354 0.938976,-1.53307 1.19764,-3.69803 0.470079,-5.06102 -2.62559,-0.636614 -5.03268,0.759449 -6.40039,3.09449z"/>
   <path id="_220026808" class="fil3" d="M72.1335 93.7181c-1.35118,3.24213 -4.72795,6.29882 -8.44134,6.03898 -3.80433,-0.265748 -4.79764,-4.65709 -3.02008,-7.46102 1.66299,-2.62913 5.09055,-5.4626 8.42717,-5.04213 0.311811,0.00944882 0.61063,0.0767717 0.892913,0.194882 0.0838583,0.0271654 0.168898,0.0448819 0.252756,0.0755906 0.0874016,0.0307087 0.140551,0.0874016 0.166535,0.151181 1.68543,1.07717 2.57835,3.9874 1.72205,6.04252zm-12.9047 11.452c-0.183071,2.47913 -2.55945,5.4 -5.05866,5.85236 -2.75669,0.499606 -5.1378,-2.25354 -4.05236,-4.94646 0.740551,-1.83661 2.36693,-3.48189 4.27441,-4.05709 0.969685,-0.576378 2.29961,-0.651969 3.24921,-0.0472441 1.16457,0.740551 1.6878,1.82362 1.5874,3.19843zm-13.963 10.8402c-2.23701,0.911811 -4.70669,-0.765354 -4.38307,-3.2752 0.214961,-1.67126 1.82008,-3.3626 3.5563,-4.14331 1.68898,-1.34055 4.68898,-0.277559 4.58504,2.16496 -0.0909449,2.17795 -1.74449,4.4315 -3.75827,5.25354zm-13.2756 -16.337c1.35709,-1.93819 3.77244,-3.78898 6.3437,-4.97126 1.83898,-1.38307 4.2815,-2.12717 6.36732,-0.985039 1.43622,0.786614 2.31732,2.15079 2.00315,3.83031 -0.794882,4.23661 -5.65512,8.02913 -9.77598,8.60551 -3.87283,0.540945 -7.40906,-2.95157 -4.93819,-6.47953zm4.56378 14.1744c-0.420472,2.60787 -3.30827,4.83543 -5.84528,5.12244 -2.80394,0.317717 -4.62992,-2.28189 -3.37677,-4.82835 0.767717,-1.55906 2.22874,-2.94685 3.89055,-3.40039 2.31496,-1.1315 5.82047,0.0708661 5.3315,3.1063zm-14.2606 -23.3965c0.367323,-0.870472 1.00157,-1.66181 1.78465,-2.30197 0.00354331,-0.0023622 0.00354331,-0.00354331 0.00354331,-0.00590551 1.65236,-2.1437 6.64843,-2.71063 7.30866,0.667323 0.458268,2.34685 -2.56063,4.53661 -4.5189,5.0126 -1.96063,0.475984 -5.72244,-0.656693 -4.57795,-3.37205zm0.296457 22.1681c-0.419291,2.42244 -3.13228,4.10433 -5.37874,4.51181 -2.36811,0.42874 -4.61339,-1.41496 -3.68268,-3.90709 0.709843,-1.89921 3.61772,-3.98504 5.86417,-3.80197 1.78937,-0.0566929 3.56575,1.06772 3.19724,3.19724zm-8.42598 -11.7201c0.928346,-1.15748 2.68465,-2.12362 4.39134,-2.33504 2.4248,-0.706299 5.12835,1.25551 3.63307,3.84803 -1.17638,2.0374 -3.75236,3.61299 -6.14173,3.40984 -2.37283,-0.20315 -3.29528,-3.16299 -1.88268,-4.92283zm64.7988 -14.2535c-1.84134,-2.17323 -4.52717,-3.56811 -7.68543,-3.55866 -4.7126,0.00944882 -8.99882,1.90157 -13.3654,3.43701 -3.26102,1.14567 -9.42756,3.15709 -11.2087,-0.198425 -0.129921,-0.0366142 -0.243307,-0.138189 -0.259843,-0.315354 -0.0188976,-0.211417 -0.0531496,-0.403937 -0.0814961,-0.605906 -0.0566929,-0.233858 -0.100394,-0.48189 -0.125197,-0.751181 -2.17913,-10.4929 -17.5382,-4.44449 -23.6256,-0.556299 -4.36772,2.78976 -8.28543,6.29055 -11.4803,10.3795 -3.3,4.2248 -6.60709,9.08386 -7.9748,14.3315 -1.4185,5.44843 -0.54685,11.0244 3.72638,14.9776 0.272835,0.250394 0.553937,0.493701 0.840945,0.732283 4.58386,1.49055 9.26339,2.61378 14.1012,2.83819 9.95787,0.461811 18.9756,-3.46181 28.1197,-6.91772 8.08819,-3.05787 15.3508,-8.9752 21.5055,-14.9929 4.93701,-4.82598 10.8591,-11.5299 7.52244,-18.7642 -0.00590551,-0.011811 -0.00590551,-0.0224409 -0.00944882,-0.0354331z"/>
   <path id="_220026544" class="fil12" d="M63.6744 91.7764c1.1622,-1.57913 3.06378,-3.20079 5.03268,-3.38031 -0.427559,-0.0177165 -0.914173,0.046063 -1.46339,0.209055 -0.141732,0.0413386 -0.276378,-0.0425197 -0.343701,-0.158268 -1.68661,0.647244 -3.25276,1.86496 -4.2874,3.08031 -1.51181,1.7752 -2.72598,5.49094 -0.238583,6.72402 -0.837402,-1.93346 0.265748,-5.06693 1.30039,-6.4748z"/>
   <path id="_220027000" class="fil4" d="M50.328 90.0413c-1.44094,-0.830315 -3.17244,-0.657874 -4.74921,-1.11732 -2.15551,-0.627165 -3.07205,-2.44843 -4.1811,-4.2189 -1.56614,-2.49921 -3.47126,-3.18543 -6.28346,-2.30197 -0.252756,0.0814961 -0.222047,0.529134 0.0661417,0.490157 4.96063,-0.654331 4.62992,4.1563 7.12087,7.08543 1.73622,2.04449 5.70118,2.86417 8.02677,1.56732 0.572835,-0.317717 0.561024,-1.18228 0,-1.50472z"/>
   <path id="_220026952" class="fil2" d="M70.3358 94.7362c-1.25079,2.03858 -3.80079,3.99094 -6.31181,3.90354 -0.448819,-0.729921 -0.666142,-1.30276 -0.715748,-2.26299 -0.069685,-1.29803 0.455906,-2.51457 1.09606,-3.60709 1.3689,-2.33504 3.77598,-3.7311 6.40157,-3.09449 0.727559,1.36299 0.468898,3.52795 -0.470079,5.06102zm-7.72323 -3.21024c1.03465,-1.21417 2.60079,-2.43189 4.2874,-3.07913 0.0673228,0.115748 0.201969,0.199606 0.343701,0.158268 0.549213,-0.162992 1.03583,-0.226772 1.46339,-0.209055 -1.9689,0.179528 -3.87047,1.80236 -5.03268,3.38031 -1.03465,1.40787 -2.1378,4.54134 -1.30039,6.4748 -2.4874,-1.23307 -1.27323,-4.94882 0.238583,-6.7252zm7.79882 -3.85039c-0.0259843,-0.0637795 -0.080315,-0.120472 -0.166535,-0.151181 -0.0838583,-0.0307087 -0.168898,-0.0484252 -0.252756,-0.0755906 -0.282283,-0.11811 -0.581102,-0.185433 -0.892913,-0.194882 -3.33661,-0.420472 -6.76417,2.41299 -8.42717,5.04213 -1.77756,2.80394 -0.784252,7.19528 3.02008,7.46102 3.71339,0.259843 7.09016,-2.79685 8.44134,-6.03898 0.85748,-2.05512 -0.0366142,-4.96535 -1.72205,-6.04252z"/>
   <path id="_220025824" class="fil2" d="M57.9461 106.046c-0.539764,1.71969 -2.10354,3.33425 -3.81732,3.88228 -2.48858,0.800787 -3.68031,-2.08346 -2.79094,-4.02283 0.462992,-1.0063 1.39016,-1.9937 2.48268,-2.65512 1.37598,-0.435827 3.00709,-1.19409 4.04882,0.338976 0.490157,0.725197 0.320079,1.68071 0.0767717,2.45669zm-0.304724 -4.0748c-0.949606,-0.604724 -2.27953,-0.529134 -3.24921,0.0472441 -1.9063,0.575197 -3.53386,2.22047 -4.27441,4.05709 -1.08425,2.69291 1.29567,5.44606 4.05236,4.94646 2.49921,-0.452362 4.87559,-3.37323 5.05866,-5.85236 0.100394,-1.3748 -0.422835,-2.45787 -1.5874,-3.19843z"/>
   <path id="_220026328" class="fil2" d="M47.8346 111.722c-0.415748,1.43858 -1.67244,2.82402 -3.05315,3.38622 -2.03268,0.829134 -3.46063,-1.39843 -2.54528,-3.17244 0.654331,-1.26496 1.90748,-2.10118 3.17717,-2.75433 0.764173,-0.23622 1.50354,-0.3 2.21575,0.42874 0.538583,0.550394 0.394488,1.4563 0.205512,2.11181zm-3.39567 -3.12992c-1.73504,0.780709 -3.34134,2.47205 -3.5563,4.14331 -0.322441,2.50984 2.14606,4.18701 4.38307,3.2752 2.01378,-0.822047 3.66732,-3.07559 3.75827,-5.25354 0.103937,-2.44252 -2.89606,-3.50551 -4.58504,-2.16496z"/>
   <path id="_220026016" class="fil2" d="M35.1874 114.519c-0.754724,1.69016 -2.62559,2.92795 -4.38425,3.32008 -2.4,0.53622 -3.29882,-1.76102 -2.26417,-3.61181 0.902362,-1.60512 3.20315,-3.26693 5.1437,-2.76024 0.0637795,0.0165354 0.119291,0.00590551 0.17126,-0.0141732 0.375591,0.100394 0.726378,0.27874 1.03465,0.56811 0.715748,0.674409 0.669685,1.66417 0.298819,2.49803zm-3.96496 -3.77717c-1.66181,0.453543 -3.12283,1.84134 -3.89055,3.40039 -1.25315,2.54646 0.572835,5.14606 3.37677,4.82835 2.53701,-0.287008 5.4248,-2.51457 5.84528,-5.12244 0.488976,-3.03543 -3.01654,-4.2378 -5.3315,-3.1063z"/>
   <path id="_220025872" class="fil2" d="M21.124 113.45c-0.838583,1.42913 -2.69173,2.44488 -4.29921,2.65748 -2.33504,0.309449 -3.01299,-1.94764 -1.60276,-3.55394 0.883465,-1.0063 2.13898,-1.67835 3.44055,-2.09055 0.987402,-0.164173 1.9937,-0.0673228 2.62205,0.838583 0.475984,0.685039 0.220866,1.49528 -0.16063,2.14843zm-1.7315 -4.02756c-2.24646,-0.183071 -5.15433,1.90276 -5.86417,3.80197 -0.930709,2.49213 1.31457,4.33701 3.68268,3.90709 2.24764,-0.40748 4.95827,-2.08937 5.37874,-4.51181 0.369685,-2.12953 -1.40787,-3.25394 -3.19724,-3.19724z"/>
   <path id="_220026112" class="fil2" d="M20.5087 102.745c-1.03228,1.13268 -2.67638,2.01614 -4.22717,1.99961 -0.274016,-0.00354331 -0.510236,-0.0673228 -0.715748,-0.170079 0.296457,-1.42205 1.39961,-2.15787 2.8311,-2.56772 0.714567,-0.20315 1.46102,-0.272835 2.19921,-0.270472 0.217323,0 0.425197,0.023622 0.629528,0.0330709 -0.190157,0.366142 -0.465354,0.700394 -0.716929,0.975591zm-4.58504 -2.03268c1.20945,-0.871654 2.7378,-1.20118 4.22008,-1.2378 0.676772,0.209055 1.24016,0.605906 1.30512,1.35709 0.0011811,0.0023622 0,0.00590551 0,0.00826772 -1.22008,-0.432283 -3.35433,0.20315 -4.23661,0.615354 -1.09606,0.511417 -2.11654,1.38189 -2.29488,2.52283 -0.121654,-0.196063 -0.222047,-0.416929 -0.291732,-0.660236 -0.307087,-1.09606 0.475984,-2.01142 1.29803,-2.60551zm2.6315 -2.14843c-1.70669,0.211417 -3.46299,1.17756 -4.39252,2.33504 -1.41142,1.75984 -0.490157,4.71969 1.88386,4.92283 2.38937,0.20315 4.96417,-1.37244 6.14173,-3.40984 1.49528,-2.59252 -1.20827,-4.55433 -3.63307,-3.84803z"/>
   <path id="_220026376" class="fil2" d="M30.2846 89.5772c-0.340157,1.69961 -2.43425,2.85472 -3.92953,3.30472 -0.574016,0.172441 -1.15748,0.170079 -1.67126,0.0389764 -0.0011811,-0.596457 -0.151181,-1.13031 0.00590551,-1.75157 0.172441,-0.687402 0.648425,-1.28031 1.14213,-1.76102 1.01339,-0.979134 2.60433,-1.45984 4.00276,-1.19173 0.354331,0.348425 0.558661,0.806693 0.45,1.36063zm-6.77126 0.390945c0.510236,-0.790157 1.31929,-1.50236 2.23583,-2.02441 0.506693,-0.231496 1.02992,-0.399213 1.57087,-0.457087 -0.694488,0.199606 -1.36417,0.562205 -1.97717,1.04291 -0.966142,0.759449 -2.03268,2.63268 -1.55906,3.96142 -0.695669,-0.539764 -0.961417,-1.44921 -0.270472,-2.52283zm7.87677 -1.15748c-0.660236,-3.37795 -5.65748,-2.81102 -7.30866,-0.667323 0,0.0023622 0,0.00354331 -0.00354331,0.00590551 -0.78189,0.640157 -1.4185,1.4315 -1.78465,2.30197 -1.14449,2.71535 2.61732,3.84803 4.57795,3.37205 1.95827,-0.475984 4.97717,-2.66575 4.5189,-5.0126z"/>
   <path id="_220026208" class="fil2" d="M44.9043 99.1406c-1.56024,2.94213 -5.14843,5.64213 -8.50039,5.95984 -1.65709,0.158268 -4.25433,-0.879921 -4.45512,-2.75315 -0.161811,-1.54843 1.49764,-3.01772 2.52165,-3.92717 0.825591,-0.733465 1.7752,-1.42913 2.78976,-2.0563 0.571654,-0.322441 1.1563,-0.66378 1.75394,-0.974409 0.262205,-0.129921 0.522047,-0.262205 0.787795,-0.379134 0.0106299,-0.00590551 0.0200787,-0.0106299 0.0330709,-0.0153543 0.179528,-0.080315 0.362598,-0.146457 0.543307,-0.220866 1.32283,-0.488976 2.69055,-0.633071 4.08425,0.12874 1.68189,0.918898 1.16457,2.87717 0.441732,4.2378zm-0.20315 -5.42362c-2.08583,-1.14331 -4.52835,-0.398031 -6.36732,0.985039 -2.57126,1.18228 -4.98661,3.03307 -6.3437,4.97126 -2.47087,3.52795 1.06417,7.02047 4.93819,6.47953 4.12087,-0.576378 8.9811,-4.3689 9.77598,-8.60551 0.314173,-1.67953 -0.566929,-3.0437 -2.00315,-3.83031z"/>
   <path id="_220026184" class="fil2" d="M66.2091 114.442c-4.09961,2.65512 -8.38583,5.10709 -12.698,7.39488 -4.69016,2.48386 -9.62362,4.10433 -14.5913,5.90433 -0.0744094,0.0259843 -0.122835,0.0720472 -0.153543,0.124016 -6.33898,1.70197 -12.7406,2.93386 -19.3547,1.88504 -2.97638,-0.472441 -5.92559,-1.5189 -8.56417,-3.05433 3.89173,1.04882 7.85906,1.7563 11.8972,1.96063 5.17795,0.259843 10.3346,-0.692126 15.1925,-2.45079 4.98425,-1.80236 10.2047,-3.4689 15.0472,-5.61969 4.64055,-2.05866 8.54764,-5.13425 12.4394,-8.34094 3.21142,-2.64449 6.38976,-5.20394 9.21142,-8.27598 2.78504,-3.02717 6.65197,-8.20394 6.60354,-12.8728 0.15,0.587008 0.262205,1.19173 0.318898,1.81181 0.923622,9.76417 -8.08937,16.8343 -15.3484,21.5339zm-59.3268 9.3437c-4.27323,-3.95315 -5.14488,-9.52913 -3.72638,-14.9776 1.36772,-5.24764 4.67362,-10.1067 7.9748,-14.3315 3.19488,-4.08898 7.1126,-7.58976 11.4803,-10.3795 6.0874,-3.88819 21.4465,-9.93661 23.6256,0.556299 0.0259843,0.269291 0.0685039,0.517323 0.125197,0.751181 0.0283465,0.201969 0.0625984,0.394488 0.0814961,0.605906 0.0165354,0.177165 0.129921,0.27874 0.259843,0.315354 1.7811,3.35551 7.94764,1.34409 11.2087,0.198425 4.36654,-1.53543 8.65276,-3.42756 13.3654,-3.43701 3.15827,-0.00944882 5.84409,1.38543 7.68543,3.55866 0.00354331,0.0129921 0.00354331,0.023622 0.00944882,0.0354331 3.33661,7.23425 -2.58543,13.9382 -7.52244,18.7642 -6.15472,6.01772 -13.4173,11.935 -21.5055,14.9929 -9.14409,3.45591 -18.1618,7.37953 -28.1197,6.91772 -4.8378,-0.224409 -9.51732,-1.34764 -14.1012,-2.83819 -0.287008,-0.239764 -0.56811,-0.48189 -0.840945,-0.732283zm62.7827 -42.0024c-4.71496,0.238583 -9.17717,2.43189 -13.5803,3.92008 -1.66654,0.563386 -3.30827,1.14803 -5.07165,1.30394 -2.34331,0.209055 -3.33071,-1.04764 -3.9685,-2.92913 -1.17402,-9.23858 -13.5378,-6.56102 -19.9902,-3.83031 -10.5307,4.45748 -19.7457,14.4366 -24.0189,24.9921 -2.05039,5.06811 -2.71181,10.3772 -0.183071,15.3945 0.530315,1.05118 1.19409,2.00906 1.95236,2.88661l1.99961 1.95827c2.20512,1.83898 4.84724,3.20906 7.46339,4.18937 5.78268,2.1626 12.3567,1.78937 18.3106,0.682677 3.4063,-0.633071 6.73937,-1.62047 10.0453,-2.64803 0.207874,-0.152362 0.415748,-0.303543 0.623622,-0.453543 0.011811,-0.00826772 0.0248031,-0.0177165 0.0366142,-0.0283465 8.36929,-2.47677 16.1953,-7.24016 23.498,-11.7969 6.96496,-4.34528 14.7024,-10.4268 15.8646,-19.1386 1.11024,-8.31614 -4.40551,-14.935 -12.9815,-14.5028z"/>
  </g>
 </g>
</svg>
