<?xml version="1.0" encoding="UTF-8"?>
<!DOCTYPE svg PUBLIC "-//W3C//DTD SVG 1.1//EN" "http://www.w3.org/Graphics/SVG/1.1/DTD/svg11.dtd">
<!-- Creator: CorelDRAW X5 -->
<?xml-stylesheet href="rocket.css" type="text/css"?>
<svg xmlns="http://www.w3.org/2000/svg" xml:space="preserve" width="200px" height="550px" style="shape-rendering:geometricPrecision; text-rendering:geometricPrecision; image-rendering:optimizeQuality; fill-rule:evenodd; clip-rule:evenodd"
viewBox="0 0 200 550.004"
 xmlns:xlink="http://www.w3.org/1999/xlink">
 <g id="Layer_x0020_1">
  <metadata id="CorelCorpID_0Corel-Layer"/>
  <g id="_210084576">
   <path id="_212945144" class="fil0" d="M10.6099 479.923l-10.6099 0c1.72797,-0.27638 3.49963,-0.420476 5.30555,-0.420476 1.80474,0 3.57641,0.145277 5.30437,0.420476z"/>
   <polygon id="_212945456" class="fil1" points="124.024,265.064 77.7112,306.776 43.5807,548.806 109.123,548.806 "/>
   <polygon id="_212944928" class="fil1" points="93.8688,265.064 140.181,306.776 174.312,548.806 108.771,548.806 "/>
   <polygon id="_212945288" class="fil2" points="58.8843,548.806 76.5963,324.701 93.7413,294.137 95.4031,294.253 96.1035,307.587 94.4629,314.322 86.4196,548.806 "/>
   <path id="_212945072" class="fil2" d="M129.906 548.806l-8.04337 -234.484 -4.82012 -19.799 5.54296 -0.386224 17.1427 30.5636 17.7131 224.105 -27.5353 0zm-33.8022 -241.218l-0.700399 -13.3348 3.87995 0.270475 -3.17955 13.0643z"/>
   <polygon id="_212945408" class="fil2" points="108.163,295.144 99.2831,294.523 101.905,283.757 108.163,284.765 114.421,283.757 117.042,294.523 "/>
   <path id="_212945576" class="fil3" d="M94.6425 293.837c-0.68032,0.778353 -11.0859,6.52446 -11.0859,6.52446 0,-0.00118111 -1.65474,1.64529 -3.98861,9.62015 -2.33388,7.97368 -3.11223,15.756 -3.11223,15.0733 0,-0.681501 4.5709,-5.93154 4.5709,-5.93154 0,0 -2.04214,9.82331 -2.13899,18.7702 -0.0980323,8.94692 1.16576,17.1179 1.07009,16.0478 -0.0968512,-1.07009 2.91853,-8.65637 2.91853,-8.65637 0,0 0.970874,10.6973 4.66657,20.425 3.69688,9.72527 6.41934,14.7828 6.22564,13.421 -0.194883,-1.36182 2.52758,-10.6997 2.52758,-10.6997 0,0 1.55671,13.4233 7.00163,25.2888 2.01498,4.38665 3.62838,7.76108 4.865,10.2757 1.23544,-2.51459 2.84884,-5.88902 4.86382,-10.2757 5.44611,-11.8654 7.00163,-25.2888 7.00163,-25.2888 0,0 2.72482,9.33787 2.52994,10.6997 -0.194883,1.36182 2.52758,-3.6957 6.22328,-13.421 3.69688,-9.72764 4.66893,-20.425 4.66893,-20.425 0,0 3.01538,7.58628 2.91853,8.65637 -0.0980323,1.06891 1.16812,-7.10084 1.07009,-16.0478 -0.0980323,-8.94692 -2.14136,-18.7702 -2.14136,-18.7702 0,0 4.57208,5.25122 4.57208,5.93154 0,0.682683 -0.778353,-7.09966 -3.11223,-15.0733 -2.33506,-7.97487 -3.98743,-9.62015 -3.98743,-9.62015 0,-0.00118111 -10.4068,-5.74611 -11.0871,-6.52446l-13.5202 -0.381499 -13.5202 0.381499z"/>
   <path id="_212945528" class="fil4" d="M84.8109 308.167l3.92129 -4.39964 -3.33073 16.2521c-0.70158,3.42877 -1.27796,7.11029 -1.6382,10.7635l1.80946 -4.62051 1.74805 18.7076c0.578745,6.18784 2.20514,13.4871 4.3961,19.2533 0.222049,0.58465 0.447641,1.17048 0.675596,1.75513l5.83115 -19.8651 2.50868 21.9073c0.885834,7.64179 3.44766,17.0151 6.62486,23.9364 0.268112,0.582288 0.537406,1.16458 0.805518,1.74686 0.269293,-0.582288 0.539768,-1.16458 0.805518,-1.74686 3.17837,-6.92131 5.73784,-16.2923 6.62486,-23.934l2.50986 -21.9096 5.83115 19.8651c0.226773,-0.58465 0.451185,-1.17048 0.674415,-1.75513 2.19096,-5.76619 3.81853,-13.0655 4.3961,-19.2533l1.74805 -18.7076 1.81183 4.62051c-0.362601,-3.65318 -0.937803,-7.3347 -1.64175,-10.7635l-3.32955 -16.2521 3.92247 4.39964c-0.536225,-1.59568 -1.18347,-3.32247 -1.80474,-4.39492 -1.60395,-0.890558 -3.20199,-1.79293 -4.79413,-2.70238 -1.08662,-0.624808 -3.15357,-1.7386 -4.75043,-2.8075l-12.0036 -0.34016 -12.0048 0.34016c-1.59686,1.06891 -3.66263,2.18269 -4.75043,2.8075 -1.58978,0.909456 -3.189,1.81301 -4.79413,2.70238 -0.618903,1.07245 -1.26851,2.79923 -1.80238,4.39492z"/>
   <path id="_212961152" class="fil5" d="M108.163 378.093c0.980323,-3.66145 1.70907,-7.37368 2.09884,-10.78l5.52524 -48.2413 7.76699 26.4616 2.22876 -23.8691 -3.23152 -15.7667 -0.300002 -0.172442c-1.24489,-0.713391 -2.49451,-1.39844 -3.71342,-2.14254l-10.3749 -0.291735 -10.3737 0.291735c-1.22009,0.7441 -2.4697,1.43033 -3.71342,2.14254l-0.302365 0.172442 -3.1205 15.2304c-0.0177167,0.302365 -0.0437011,0.781896 -0.0590556,1.08072l2.17679 23.3246 7.76817 -26.4628 5.52524 48.2401c0.389767,3.40751 1.11851,7.11974 2.09884,10.7824z"/>
   <polygon id="_212960336" class="fil6" points="85.0814,279.114 131.888,279.114 139.257,306.777 77.7112,306.777 "/>
   <path id="_212960552" class="fil7" d="M83.2944 285.816c0.644887,0 1.30159,0 1.95592,0 -0.724021,2.95042 -1.49765,6.09217 -2.3197,9.43708 -0.878747,3.57877 -1.82127,7.41384 -2.83112,11.5241 -0.800794,0 -1.60041,0 -2.38821,0 1.09489,-4.11145 2.11655,-7.94534 3.06971,-11.5241 0.890558,-3.34491 1.72915,-6.48667 2.51341,-9.43708z"/>
   <path id="_212960504" class="fil7" d="M88.131 285.816c0.649611,0 1.30631,0 1.96065,0 -0.575201,2.95042 -1.18584,6.09217 -1.83545,9.43708 -0.696856,3.57877 -1.44214,7.41384 -2.24293,11.5241 -0.799613,0 -1.60041,0 -2.39411,0 0.885834,-4.11145 1.71143,-7.94534 2.48152,-11.5241 0.719297,-3.34491 1.39726,-6.48667 2.03033,-9.43708z"/>
   <path id="_212960312" class="fil7" d="M92.9724 285.816c0.649611,0 1.30631,0 1.96065,0 -0.424019,2.95042 -0.874023,6.09217 -1.35355,9.43708 -0.512602,3.57877 -1.06182,7.41384 -1.65238,11.5241 -0.798431,0 -1.59923,0 -2.39411,0 0.675596,-4.11145 1.30513,-7.94534 1.89096,-11.5241 0.549217,-3.34491 1.06536,-6.48667 1.54844,-9.43708z"/>
   <path id="_212960888" class="fil7" d="M97.8138 285.816c0.649611,0 1.30631,0 1.95946,0 -0.271656,2.95042 -0.561028,6.09217 -0.869298,9.43708 -0.328349,3.57877 -0.682683,7.41384 -1.06064,11.5241 -0.800794,0 -1.60041,0 -2.39529,0 0.465358,-4.11145 0.896464,-7.94534 1.30159,-11.5241 0.376775,-3.34491 0.731108,-6.48667 1.06418,-9.43708z"/>
   <path id="_212960864" class="fil7" d="M102.655 285.816c0.649611,0 1.30395,0 1.96065,0 -0.121655,2.95042 -0.250396,6.09217 -0.386224,9.43708 -0.146458,3.57877 -0.304727,7.41384 -0.471264,11.5241 -0.800794,0 -1.60041,0 -2.39529,0 0.253939,-4.11145 0.490161,-7.94534 0.709848,-11.5241 0.206695,-3.34491 0.401578,-6.48667 0.582288,-9.43708z"/>
   <path id="_212960696" class="fil7" d="M107.497 285.816c0.649611,0 1.30395,0 1.95946,0 0.0307089,2.95042 0.0649611,6.09217 0.0968512,9.43708 0.0354333,3.57877 0.0767723,7.41384 0.119292,11.5241 -0.799613,0 -1.60041,0 -2.39411,0 0.04252,-4.11145 0.0814967,-7.94534 0.120473,-11.5241 0.0342522,-3.34491 0.0673234,-6.48667 0.0980323,-9.43708z"/>
   <path id="_212960720" class="fil7" d="M112.338 285.816c0.649611,0 1.30395,0 1.95828,0 0.183072,2.95042 0.375594,6.09217 0.581107,9.43708 0.220868,3.57877 0.455909,7.41384 0.709848,11.5241 -0.801975,0 -1.60041,0 -2.39529,0 -0.167718,-4.11145 -0.323625,-7.94534 -0.468901,-11.5241 -0.137009,-3.34491 -0.264569,-6.48667 -0.385042,-9.43708z"/>
   <path id="_212960480" class="fil7" d="M117.179 285.816c0.649611,0 1.30395,0 1.95828,0 0.334255,2.95396 0.687407,6.09217 1.06418,9.43708 0.40394,3.57877 0.835046,7.41148 1.3004,11.5241 -0.800794,0 -1.60041,0 -2.39529,0 -0.377956,-4.11263 -0.729927,-7.94534 -1.06064,-11.5241 -0.307089,-3.34491 -0.596461,-6.48667 -0.866936,-9.43708z"/>
   <path id="_212960384" class="fil7" d="M122.021 285.816c0.649611,0 1.30395,0 1.95828,0 0.484256,2.95396 0.99922,6.09217 1.54844,9.43708 0.58465,3.57877 1.21418,7.41148 1.88742,11.5241 -0.800794,0 -1.59923,0 -2.39411,0 -0.588194,-4.11263 -1.13741,-7.94534 -1.64883,-11.5241 -0.479531,-3.34491 -0.929535,-6.48312 -1.35119,-9.43708z"/>
   <path id="_212960192" class="fil7" d="M126.861 285.816c0.650793,0 1.30513,0 1.95946,0 0.635438,2.95396 1.31103,6.09217 2.03033,9.43708 0.771266,3.57877 1.5945,7.41148 2.48033,11.5241 -0.799613,0 -1.60041,0 -2.39529,0 -0.799613,-4.11263 -1.54489,-7.94534 -2.24057,-11.5241 -0.649611,-3.34491 -1.26025,-6.48312 -1.83427,-9.43708z"/>
   <path id="_212960096" class="fil7" d="M131.702 285.816c0.655517,0 1.30985,0 1.97128,0 0.78662,2.95396 1.62285,6.09217 2.51341,9.43708 0.951976,3.57877 1.97364,7.41148 3.06971,11.5241 -0.805518,0 -1.60631,0 -2.40592,0 -1.00985,-4.11263 -1.9512,-7.94534 -2.82994,-11.5241 -0.822054,-3.34491 -1.59332,-6.48312 -2.31852,-9.43708z"/>
   <path id="_212959880" class="fil8" d="M68.3179 236.751c-0.957882,0.76536 -42.2614,28.5227 -44.8126,32.5444 -2.55238,4.0205 -6.53982,47.0921 -6.53982,47.0921l19.6171 -24.5022 39.605 -8.12841 -7.86975 -47.0059z"/>
   <path id="_212959832" class="fil9" d="M66.8875 261.763c-13.2497,5.15555 -32.118,12.6036 -32.118,12.6036l-17.8041 42.0216 19.6171 -24.5022 39.605 -8.12841c-3.50672,-7.05714 -6.60241,-14.4084 -9.30007,-21.9947z"/>
   <polygon id="_212959928" class="fil10" points="34.7696,274.365 16.9655,316.388 36.5826,291.886 "/>
   <path id="_212959040" class="fil8" d="M148.65 236.751c0.957882,0.76536 42.2614,28.5227 44.8137,32.5444 2.55002,4.0205 6.53745,47.0921 6.53745,47.0921l-19.6147 -24.5022 -39.605 -8.12841 7.86857 -47.0059z"/>
   <path id="_212958944" class="fil9" d="M150.079 261.763c13.2521,5.15555 32.1192,12.6036 32.1192,12.6036l17.8029 42.0216 -19.6147 -24.5022 -39.605 -8.12841c3.50554,-7.05714 6.60123,-14.4084 9.29771,-21.9947z"/>
   <polygon id="_212958992" class="fil10" points="182.198,274.365 200.001,316.388 180.386,291.886 "/>
   <path id="_212959352" class="fil11" d="M108.484 1.19647c57.6099,72.4246 74.1384,198.341 32.2975,282.561l-64.5938 0c-41.8409,-84.2203 -25.3136,-210.136 32.2963,-282.561z"/>
   <path id="_212959184" class="fil8" d="M108.484 1.19647c-18.6332,23.4273 -32.9707,52.4496 -42.4232,83.8471l84.8463 0c-9.45362,-31.3975 -23.7888,-60.4198 -42.4232,-83.8471z"/>
   <path id="_212958824" class="fil12" d="M150.907 85.0436l-84.8463 0c-0.668509,2.22167 -1.31458,4.45633 -1.93348,6.70045l88.7133 -0.00118111c-0.618903,-2.24293 -1.26379,-4.47641 -1.93348,-6.69927z"/>
   <path id="_212958968" class="fil13" d="M108.484 185.262c17.4521,0 31.6833,-14.2324 31.6833,-31.6833 0,-17.4497 -14.2324,-31.6833 -31.6833,-31.6833 -17.4497,0 -31.6833,14.2336 -31.6833,31.6833 0,17.4509 14.2336,31.6833 31.6833,31.6833z"/>
   <path id="_212959400" class="fil14" d="M108.484 180.763c14.9718,0 27.1845,-12.2115 27.1845,-27.1845 0,-14.9718 -12.2127,-27.1821 -27.1845,-27.1821 -14.9718,-0.00118111 -27.1845,12.2103 -27.1845,27.1821 0,14.973 12.2127,27.1845 27.1845,27.1845z"/>
   <path id="_212959376" class="fil15" d="M133.194 150.052c0,16.4316 -13.3182,29.7498 -29.7498,29.7498 -0.852763,-0.00118111 -1.69726,-0.0366145 -2.5323,-0.1063 2.40474,0.693313 4.94413,1.06772 7.57211,1.06772 15.0143,0 27.1845,-12.1702 27.1845,-27.1845 0,-5.98351 -1.93348,-11.5147 -5.20988,-16.0052 1.75631,3.79491 2.73545,8.02211 2.73545,12.4784z"/>
   <polygon id="_212959448" class="fil16" points="108.484,123.425 108.886,123.618 109.288,123.814 109.387,124.247 109.487,124.682 109.209,125.031 108.93,125.381 108.484,125.381 108.037,125.381 107.76,125.031 107.482,124.682 107.58,124.247 107.68,123.814 108.081,123.618 "/>
   <polygon id="_212959208" class="fil16" points="87.1613,132.256 87.5842,132.11 88.0046,131.962 88.3826,132.199 88.7594,132.437 88.8101,132.881 88.8609,133.325 88.5456,133.64 88.229,133.955 87.7849,133.906 87.342,133.857 87.1046,133.477 86.8672,133.099 87.0137,132.679 "/>
   <polygon id="_212958704" class="fil16" points="78.3301,153.579 78.5238,153.177 78.7164,152.774 79.1522,152.675 79.5868,152.576 79.9365,152.855 80.2861,153.133 80.2861,153.579 80.2861,154.025 79.9365,154.304 79.5868,154.583 79.1522,154.483 78.7164,154.384 78.5238,153.982 "/>
   <polygon id="_212958680" class="fil16" points="87.1613,174.901 87.0137,174.481 86.8672,174.058 87.1046,173.68 87.342,173.303 87.7849,173.253 88.229,173.202 88.5456,173.519 88.8609,173.835 88.8101,174.278 88.7594,174.721 88.3826,174.96 88.0046,175.198 87.5842,175.049 "/>
   <polygon id="_212958440" class="fil16" points="108.484,183.733 108.081,183.539 107.68,183.346 107.58,182.91 107.482,182.476 107.76,182.126 108.037,181.777 108.484,181.777 108.93,181.777 109.209,182.126 109.487,182.476 109.387,182.91 109.288,183.346 108.886,183.539 "/>
   <polygon id="_212958200" class="fil16" points="129.807,174.901 129.386,175.049 128.963,175.198 128.585,174.96 128.206,174.721 128.158,174.278 128.107,173.835 128.423,173.519 128.739,173.202 129.183,173.253 129.625,173.303 129.864,173.68 130.101,174.058 129.954,174.481 "/>
   <polygon id="_212958176" class="fil16" points="138.638,153.579 138.445,153.982 138.251,154.384 137.814,154.483 137.379,154.583 137.031,154.304 136.682,154.025 136.682,153.579 136.682,153.133 137.031,152.855 137.379,152.576 137.814,152.675 138.251,152.774 138.445,153.177 "/>
   <polygon id="_212958560" class="fil16" points="129.807,132.256 129.954,132.679 130.101,133.099 129.864,133.477 129.625,133.857 129.183,133.906 128.739,133.955 128.423,133.64 128.107,133.325 128.158,132.881 128.206,132.437 128.585,132.199 128.963,131.962 129.386,132.11 "/>
   <polygon id="_212958416" class="fil12" points="76.1876,294.136 140.779,294.136 140.779,283.757 76.1876,283.757 "/>
   <polygon id="_212956328" class="fil16" points="80.8932,287.435 81.5936,287.772 82.2928,288.11 82.4664,288.866 82.6388,289.623 82.1546,290.23 81.6703,290.836 80.8932,290.836 80.1183,290.836 79.6341,290.23 79.1498,289.623 79.3223,288.866 79.4959,288.11 80.1951,287.772 "/>
   <polygon id="_212948888" class="fil16" points="94.6897,287.435 95.3889,287.772 96.0882,288.11 96.2606,288.866 96.433,289.623 95.9488,290.23 95.4657,290.836 94.6897,290.836 93.9137,290.836 93.4283,290.23 92.9452,289.623 93.1177,288.866 93.2913,288.11 93.9893,287.772 "/>
   <polygon id="_212948840" class="fil16" points="108.484,287.435 109.183,287.772 109.884,288.11 110.055,288.866 110.228,289.623 109.745,290.23 109.26,290.836 108.484,290.836 107.708,290.836 107.224,290.23 106.741,289.623 106.913,288.866 107.085,288.11 107.786,287.772 "/>
   <polygon id="_212949368" class="fil16" points="122.279,287.435 122.979,287.772 123.678,288.11 123.851,288.866 124.023,289.623 123.54,290.23 123.055,290.836 122.279,290.836 121.502,290.836 121.019,290.23 120.535,289.623 120.707,288.866 120.88,288.11 121.58,287.772 "/>
   <polygon id="_212948288" class="fil16" points="136.074,287.435 136.773,287.772 137.473,288.11 137.646,288.866 137.818,289.623 137.334,290.23 136.85,290.836 136.074,290.836 135.298,290.836 134.814,290.23 134.33,289.623 134.503,288.866 134.674,288.11 135.374,287.772 "/>
   <polygon id="_212948648" class="fil17" points="108.484,241.877 113.547,261.205 108.484,316.388 "/>
   <polygon id="_212948624" class="fil9" points="108.484,241.877 103.42,261.205 108.484,316.388 "/>
   <path id="_210082800" class="fil18" d="M105.443 9.55401c-6.30596,4.90398 -26.9211,53.7264 -32.0991,69.2096l19.2781 -0.00118111c2.70475,-21.6037 6.46895,-46.2015 12.821,-69.2084z"/>
   <path id="_210084696" class="fil19" d="M66.5745 98.1362c0,0 -7.79652,35.0908 -8.03983,64.8218 -0.122836,14.8678 5.09768,93.0421 16.3265,102.106l19.4954 -0.731108 0 -77.2494c-25.5203,-5.85831 -29.6105,-53.7713 1.09843,-68.7206l-0.366145 -21.6888c-9.59417,0.00236222 -18.932,0.856306 -28.5144,1.46222z"/>
   <path id="_210084216" class="fil20" d="M103.374 176.828c-10.4812,-0.83977 -18.7643,-11.0564 -18.7643,-23.5384 0,-12.4808 8.28314,-22.6986 18.7643,-23.5372l0 47.0756z"/>
   <polygon id="_210084768" class="fil21" points="60.4257,245.02 62.5564,254.097 28.8061,273.045 20.2171,297.231 24.9049,269.722 "/>
  </g>
 </g>
</svg>
