<?xml version="1.0" encoding="UTF-8"?>
<!DOCTYPE svg PUBLIC "-//W3C//DTD SVG 1.1//EN" "http://www.w3.org/Graphics/SVG/1.1/DTD/svg11.dtd">
<!-- Creator: CorelDRAW X5 -->
<?xml-stylesheet href="notes.css" type="text/css"?>
<svg xmlns="http://www.w3.org/2000/svg" xml:space="preserve" width="78px" height="70px" style="shape-rendering:geometricPrecision; text-rendering:geometricPrecision; image-rendering:optimizeQuality; fill-rule:evenodd; clip-rule:evenodd"
viewBox="0 0 78 69.9992"
 xmlns:xlink="http://www.w3.org/1999/xlink">
 <g id="Layer_x0020_1">
  <metadata id="CorelCorpID_0Corel-Layer"/>
  <path class="fil0" d="M66.2598 43.2047c0.122835,-0.105118 0.271654,0.0519685 0.173622,0.174803 -2.5748,3.27402 -5.48031,6.34961 -8.20276,9.50906 -2.73543,3.17244 -5.54528,6.24567 -8.64921,9.06614 -0.12874,0.114567 -0.316535,-0.0720472 -0.188976,-0.191339 3.06142,-2.84291 5.81811,-6.01299 8.52047,-9.19252 2.67283,-3.14764 5.22756,-6.64016 8.34685,-9.36614zm-18.7098 16.5815c2.70591,-2.71299 5.20394,-5.61024 7.69252,-8.51929 2.47205,-2.89134 4.90394,-5.92677 7.75157,-8.46142 0.105118,-0.0933071 0.244488,0.0496063 0.154724,0.153543 -2.52638,2.87717 -5.11654,5.69528 -7.6252,8.58898 -2.5063,2.89016 -5.02559,5.76969 -7.78583,8.42598 -0.122835,0.116929 -0.307087,-0.0661417 -0.187795,-0.187795zm-2.45906 -2.59724c5.51102,-5.31614 10.272,-11.5642 16.2012,-16.428 0.100394,-0.0814961 0.238583,0.0507874 0.145276,0.147638 -2.66929,2.76142 -5.3811,5.47559 -8.01142,8.27598 -2.63858,2.8122 -5.27953,5.61142 -8.14252,8.19803 -0.129921,0.115748 -0.318898,-0.069685 -0.19252,-0.193701zm-2.35157 -2.18622c3.08031,-2.26417 5.67638,-5.06929 8.22756,-7.89567 2.37165,-2.62795 4.73268,-5.45787 7.6748,-7.46693 0.112205,-0.0767717 0.243307,0.0956693 0.145276,0.187795 -2.84528,2.6374 -5.48386,5.40591 -8.10236,8.26654 -2.38937,2.60787 -4.84606,5.16969 -7.82953,7.10669 -0.126378,0.0826772 -0.232677,-0.112205 -0.115748,-0.198425zm-1.77165 -1.54252c2.05039,-2.84882 4.5248,-5.36575 7.09252,-7.74803 2.45315,-2.27717 4.97126,-4.53189 7.65354,-6.5374 0.0980315,-0.0720472 0.211417,0.0826772 0.127559,0.164173 -2.51693,2.43425 -5.26417,4.62402 -7.80945,7.02874 -2.42362,2.29016 -4.70669,4.70197 -6.83976,7.26378 -0.103937,0.122835 -0.317717,-0.0413386 -0.224409,-0.17126zm-2.21693 -2.06457c2.47205,-2.41535 4.97953,-4.7811 7.39724,-7.25197 2.2878,-2.3374 4.53425,-4.87323 7.16457,-6.83504 0.121654,-0.092126 0.255118,0.101575 0.158268,0.205512 -2.3811,2.49449 -4.93701,4.83543 -7.35236,7.30039 -2.29961,2.34449 -4.58976,4.78819 -7.21772,6.7748 -0.114567,0.0862205 -0.24685,-0.0968504 -0.15,-0.193701zm3.81496 -6.28701c3.24921,-2.90079 6.23504,-6.1311 9.57165,-8.92677 0.111024,-0.0909449 0.258661,0.0507874 0.159449,0.158268 -2.9126,3.19724 -6.15827,6.26457 -9.53976,8.95984 -0.133465,0.106299 -0.324803,-0.0744094 -0.191339,-0.191339zm0.814961 -3.2126c1.47283,-1.48228 2.95512,-2.97047 4.52008,-4.35472 0.115748,-0.101575 0.271654,0.0566929 0.167717,0.168898 -1.38189,1.56614 -2.88543,3.04606 -4.48937,4.38307 -0.135827,0.114567 -0.327165,-0.0673228 -0.198425,-0.197244zm5.63031 -19.2118c-2.1685,1.95827 -4.48228,3.79961 -6.63898,5.70354 -3.4122,3.00827 -6.82441,6.01772 -10.2106,9.05551 -1.42205,1.27677 -2.82992,2.58307 -4.23307,3.9 4.0122,11.9587 14.9752,21.6106 27.3898,25.9713 1.55315,-1.66654 3.11102,-3.32126 4.64409,-4.9748 4.9937,-5.37992 10.0134,-10.7563 15.2055,-15.952 -4.02402,-2.42244 -7.74094,-5.41063 -11.0327,-8.38937 -4.81654,-4.35591 -11.2925,-9.32126 -15.124,-15.3142z"/>
  <path class="fil1" d="M59.9622 62.3398c-1.53307,1.65354 -3.09213,3.30827 -4.64409,4.9748 -12.4146,-4.36063 -23.3776,-14.0126 -27.3898,-25.9713 1.40433,-1.31693 2.80984,-2.62323 4.23307,-3.9 3.3874,-3.0378 6.79843,-6.04724 10.2106,-9.05551 2.15669,-1.90394 4.47047,-3.74528 6.63898,-5.70354 3.8315,5.99291 10.3063,10.9583 15.124,15.3142 3.29291,2.97874 7.00866,5.96693 11.0327,8.38937 -5.19094,5.19567 -10.2118,10.572 -15.2055,15.952zm16.2921 -17.0327c-3.95906,-2.26417 -7.67008,-5.07874 -11.2157,-8.2122 -4.97362,-4.39724 -11.2961,-9.24803 -15.2079,-15.1642l-0.73937 -1.18346 -0.831496 0.679134c-2.06339,1.72677 -4.03346,3.59882 -6.03071,5.33976 -3.42992,2.98819 -6.83622,6.00118 -10.2295,9.03071 -1.49528,1.33465 -3.0189,2.66457 -4.54724,4.00276l-1.11496 0.974409 0.486614 1.6063c2.93268,8.72362 10.213,16.0913 17.7366,20.9882 2.93268,1.90866 6.26102,3.63898 9.78661,4.99488l1.40433 0.516142 0.966142 -1.09724c1.35472,-1.54134 2.72008,-3.07205 4.10906,-4.57795 5.04803,-5.46969 10.2567,-10.7906 15.3283,-16.2378l1.04764 -1.12913 -0.948425 -0.530315z"/>
  <path class="fil1" d="M49.3925 61.7634c-0.127559,0.119291 0.0602362,0.305906 0.188976,0.191339 3.10394,-2.82047 5.91378,-5.8937 8.64921,-9.06614 2.72244,-3.15945 5.62795,-6.23504 8.20276,-9.50906 0.0980315,-0.122835 -0.0507874,-0.279921 -0.173622,-0.174803 -3.11811,2.72598 -5.67402,6.2185 -8.34685,9.36614 -2.70236,3.17953 -5.45906,6.34961 -8.52047,9.19252z"/>
  <path class="fil1" d="M63.1488 42.9591c0.0897638,-0.103937 -0.0496063,-0.24685 -0.154724,-0.153543 -2.84764,2.53465 -5.28071,5.57008 -7.75157,8.46142 -2.48858,2.90906 -4.98661,5.8063 -7.69252,8.51929 -0.119291,0.121654 0.0649606,0.304724 0.187795,0.187795 2.76024,-2.6563 5.27953,-5.53583 7.78583,-8.42598 2.50866,-2.8937 5.09882,-5.71181 7.6252,-8.58898z"/>
  <path class="fil1" d="M50.6846 48.0945c2.6185,-2.86063 5.25709,-5.62913 8.10236,-8.26654 0.0992126,-0.092126 -0.0330709,-0.264567 -0.145276,-0.187795 -2.94213,2.00906 -5.30315,4.83898 -7.6748,7.46693 -2.55,2.82638 -5.14724,5.6315 -8.22756,7.89567 -0.116929,0.0862205 -0.0106299,0.281102 0.115748,0.198425 2.98346,-1.93701 5.44016,-4.49882 7.82953,-7.10669z"/>
  <path class="fil1" d="M46.1185 44.8146c2.41535,-2.46496 4.97126,-4.80591 7.35236,-7.30039 0.0968504,-0.103937 -0.0366142,-0.297638 -0.158268,-0.205512 -2.63031,1.96181 -4.87795,4.49764 -7.16457,6.83504 -2.41772,2.47087 -4.9252,4.83661 -7.39724,7.25197 -0.0956693,0.0968504 0.0354331,0.279921 0.15,0.193701 2.62795,-1.98661 4.91811,-4.43031 7.21772,-6.7748z"/>
  <path class="fil1" d="M43.5791 42.0933c1.60394,-1.33701 3.10748,-2.81693 4.48937,-4.38307 0.103937,-0.112205 -0.0519685,-0.270472 -0.167717,-0.168898 -1.56496,1.38425 -3.04843,2.87244 -4.52008,4.35472 -0.12874,0.129921 0.0625984,0.311811 0.198425,0.197244z"/>
  <path class="fil0" d="M9.14646 11.6291c-0.0496063,-0.111024 -0.201969,-0.046063 -0.173622,0.069685 0.740551,3.09567 1.77047,6.15354 2.64685,9.2126 0.881102,3.07323 1.84488,6.09921 3.09094,9.03661 0.0507874,0.120472 0.239764,0.0472441 0.190157,-0.0744094 -1.20827,-2.94213 -2.10591,-6.0189 -2.9622,-9.08976 -0.848031,-3.03543 -1.50472,-6.27756 -2.79213,-9.15472zm7.64409 17.4189c-1.0063,-2.73898 -1.81181,-5.54646 -2.60669,-8.35748 -0.787795,-2.79449 -1.50709,-5.67756 -2.66693,-8.3374 -0.0413386,-0.0956693 -0.183071,-0.0401575 -0.151181,0.0625984 0.829134,2.79803 1.72205,5.57953 2.53583,8.38701 0.812598,2.80276 1.63819,5.60197 2.7,8.3185 0.0484252,0.122835 0.231496,0.0496063 0.188976,-0.0732283zm2.50748 -1.06772c-2.11417,-5.43661 -3.42165,-11.2961 -5.96575,-16.5402 -0.0413386,-0.0885827 -0.179528,-0.0377953 -0.145276,0.057874 0.964961,2.76378 1.9748,5.5063 2.89961,8.2878 0.929528,2.78858 1.86496,5.5689 3.0189,8.27008 0.0519685,0.121654 0.240945,0.0484252 0.19252,-0.0755906zm2.30551 -0.817323c-1.40433,-2.53819 -2.30787,-5.31024 -3.17008,-8.08346 -0.80315,-2.57835 -1.53543,-5.29252 -2.92677,-7.6122 -0.0519685,-0.0897638 -0.197244,-0.00826772 -0.158268,0.0874016 1.12559,2.72953 2.06811,5.48976 2.96811,8.30669 0.819685,2.57008 1.70315,5.12717 3.14291,7.40787 0.0614173,0.0968504 0.197244,-0.00944882 0.144094,-0.106299zm1.70197 -0.537402c-0.512598,-2.63386 -1.42087,-5.16614 -2.43425,-7.63228 -0.970866,-2.35512 -1.99252,-4.71614 -3.20551,-6.95315 -0.0437008,-0.080315 -0.170079,-0.00590551 -0.13937,0.0767717 0.964961,2.48504 2.16496,4.87205 3.15709,7.34764 0.944882,2.35394 1.75394,4.75512 2.41654,7.21299 0.0318898,0.11811 0.229134,0.0685039 0.205512,-0.0519685zm2.17323 -0.768898c-0.937795,-2.46142 -1.91575,-4.89567 -2.80039,-7.37835 -0.83622,-2.34685 -1.58386,-4.82126 -2.77323,-7.00984 -0.0555118,-0.102756 -0.207874,-0.00944882 -0.173622,0.0944882 0.851575,2.48622 1.87087,4.92047 2.75551,7.39606 0.842126,2.35748 1.65,4.7811 2.82874,6.98622 0.0507874,0.0956693 0.200787,0.00708661 0.162992,-0.0885827zm-0.641339 -5.59724c-1.32047,-3.03898 -2.3563,-6.2315 -3.77008,-9.22323 -0.0472441,-0.0980315 -0.19252,-0.0425197 -0.159449,0.0625984 0.995669,3.14528 2.26063,6.30118 3.73819,9.2374 0.057874,0.115748 0.24685,0.0472441 0.191339,-0.0767717zm0.45 -2.50984c-0.544488,-1.49528 -1.09488,-2.99764 -1.73622,-4.45276 -0.0472441,-0.108661 -0.20315,-0.046063 -0.170079,0.0661417 0.459449,1.52598 1.02756,3.03071 1.70787,4.46457 0.057874,0.122835 0.24685,0.0531496 0.198425,-0.0779528zm2.17913 -15.2457c0.874016,2.04567 1.88504,4.05236 2.7685,6.05551 1.39606,3.16772 2.79567,6.33189 4.16811,9.50906 0.576378,1.33583 1.1315,2.68937 1.68189,4.04882 -6.52205,7.17402 -17.0988,10.5886 -27.0047,9.83504 -0.542126,-1.65 -1.09252,-3.29173 -1.62756,-4.92756 -1.73976,-5.31969 -3.49606,-10.6465 -5.43071,-15.8965 3.52913,-0.466535 7.0252,-1.42559 10.226,-2.5063 4.68307,-1.5815 10.6972,-3.08031 15.2185,-6.11811z"/>
  <path class="fil1" d="M7.45394 27.0248c0.533858,1.63583 1.08307,3.27756 1.62638,4.92756 9.90591,0.753543 20.4827,-2.65984 27.0047,-9.83504 -0.550394,-1.35945 -1.10669,-2.71299 -1.68189,-4.04882 -1.37244,-3.17717 -2.77205,-6.34134 -4.16811,-9.50906 -0.883465,-2.00315 -1.89567,-4.00984 -2.7685,-6.05551 -4.52126,3.0378 -10.5354,4.5378 -15.2185,6.11811 -3.20079,1.08071 -6.69685,2.04094 -10.226,2.5063 1.93465,5.25 3.69094,10.5768 5.43189,15.8965zm-5.83819 -16.9913c3.43346,-0.374409 6.87165,-1.21181 10.2957,-2.32559 4.80354,-1.56142 10.6772,-3.02835 15.2291,-5.98465l0.87874 -0.603543 0.359055 0.733465c0.874016,1.84843 1.63937,3.77126 2.46496,5.61024 1.41732,3.15591 2.81102,6.3248 4.18937,9.49843 0.607087,1.39843 1.23543,2.80394 1.86614,4.21299l0.459449 1.0311 -0.839764 0.977953c-4.7622,5.23228 -12.0886,8.17677 -18.8008,9.30472 -2.61614,0.43937 -5.45079,0.63189 -8.30079,0.501969l-1.12795 -0.069685 -0.317717 -1.0689c-0.447638,-1.5 -0.903543,-2.99764 -1.38425,-4.48583 -1.74803,-5.39882 -3.65551,-10.7433 -5.42598,-16.1339l-0.36378 -1.11732 0.818504 -0.0814961z"/>
  <path class="fil1" d="M14.902 29.8736c0.0484252,0.121654 -0.140551,0.194882 -0.191339,0.0744094 -1.24488,-2.9374 -2.20984,-5.96339 -3.09094,-9.03661 -0.876378,-3.05906 -1.9063,-6.11693 -2.64685,-9.2126 -0.0283465,-0.115748 0.122835,-0.180709 0.173622,-0.069685 1.2874,2.87717 1.94291,6.11929 2.79213,9.15472 0.856299,3.07087 1.75394,6.14764 2.96339,9.08976z"/>
  <path class="fil1" d="M11.3657 12.4157c-0.0318898,-0.102756 0.109843,-0.158268 0.151181,-0.0625984 1.15984,2.65984 1.87913,5.54291 2.66693,8.3374 0.794882,2.81102 1.60039,5.6185 2.60669,8.35748 0.0425197,0.122835 -0.140551,0.196063 -0.188976,0.0732283 -1.06181,-2.71654 -1.8874,-5.51575 -2.7,-8.3185 -0.812598,-2.80748 -1.70669,-5.58898 -2.53583,-8.38701z"/>
  <path class="fil1" d="M18.3165 19.8614c-0.9,-2.81693 -1.84252,-5.57717 -2.96811,-8.30669 -0.0389764,-0.0956693 0.106299,-0.177165 0.158268,-0.0874016 1.39134,2.3185 2.12362,5.03386 2.92677,7.6122 0.862205,2.77323 1.76575,5.54528 3.17008,8.08346 0.0543307,0.0968504 -0.0826772,0.20315 -0.144094,0.106299 -1.43976,-2.28071 -2.32323,-4.8378 -3.14291,-7.40787z"/>
  <path class="fil1" d="M22.487 18.9591c-0.884646,-2.47677 -1.90512,-4.90984 -2.75551,-7.39606 -0.034252,-0.103937 0.11811,-0.197244 0.173622,-0.0944882 1.19055,2.18858 1.93701,4.66299 2.77323,7.00984 0.884646,2.48268 1.8626,4.91693 2.80039,7.37835 0.0377953,0.0956693 -0.112205,0.184252 -0.162992,0.0885827 -1.17874,-2.20512 -1.98661,-4.62874 -2.82874,-6.98622z"/>
  <path class="fil1" d="M25.089 17.8276c-0.680315,-1.43386 -1.24843,-2.93858 -1.70787,-4.46457 -0.0330709,-0.112205 0.122835,-0.174803 0.170079,-0.0661417 0.641339,1.45512 1.19173,2.95748 1.73622,4.45276 0.0484252,0.129921 -0.140551,0.200787 -0.198425,0.0779528z"/>
 </g>
</svg>
