<?xml version="1.0" encoding="UTF-8"?>
<!DOCTYPE svg PUBLIC "-//W3C//DTD SVG 1.1//EN" "http://www.w3.org/Graphics/SVG/1.1/DTD/svg11.dtd">
<!-- Creator: CorelDRAW X5 -->
<?xml-stylesheet href="cloud7.css" type="text/css"?>
<svg xmlns="http://www.w3.org/2000/svg" xml:space="preserve" width="260px" height="156px" style="shape-rendering:geometricPrecision; text-rendering:geometricPrecision; image-rendering:optimizeQuality; fill-rule:evenodd; clip-rule:evenodd"
viewBox="0 0 260 156.001"
 xmlns:xlink="http://www.w3.org/1999/xlink">
 <g id="Layer_x0020_1">
  <metadata id="CorelCorpID_0Corel-Layer"/>
  <path class="fil0" d="M223.898 37.2557c-7.02642,-1.07953 -13.9099,-0.375593 -20.2088,1.75631 -2.6197,-18.169 -16.8107,-33.2789 -35.8951,-36.2128 -10.9985,-1.68899 -21.6604,0.964966 -30.2435,6.68272 -4.67483,-4.70908 -10.8414,-8.01855 -17.9033,-9.10517 -12.6296,-1.94056 -24.6687,3.75829 -31.427,13.6477 -0.973234,-0.209056 -1.95592,-0.399215 -2.95159,-0.552759 -24.9793,-3.83861 -48.4656,11.5347 -55.472,35.0967 -14.6977,0.784257 -27.3356,11.7615 -29.6588,26.8844 -2.66458,17.3328 9.22683,33.5423 26.5596,36.2057 1.3382,0.205513 2.66695,0.315356 3.98624,0.351971 -0.115749,0.55394 -0.218505,1.11379 -0.305907,1.67954 -2.6634,17.3328 9.22801,33.5423 26.5596,36.2069 13.0017,1.99726 25.3702,-4.19412 31.8652,-14.7273 6.32838,10.552 17.1296,18.3131 30.2399,20.3281 12.5091,1.92285 24.5801,-1.77639 33.6557,-9.20911 2.31497,0.779532 4.72089,1.38308 7.21776,1.76694 20.3174,3.12285 39.4845,-8.58312 46.5215,-27.0439 1.44922,0.380317 2.93033,0.693311 4.4457,0.92599 23.3836,3.59412 45.2542,-12.4489 48.8483,-35.8337 3.59412,-23.3848 -12.4501,-45.2554 -35.8337,-48.8483z"/>
 </g>
</svg>
