<?xml version="1.0" encoding="UTF-8"?>
<!DOCTYPE svg PUBLIC "-//W3C//DTD SVG 1.1//EN" "http://www.w3.org/Graphics/SVG/1.1/DTD/svg11.dtd">
<!-- Creator: CorelDRAW X5 -->
<?xml-stylesheet href="cloud6.css" type="text/css"?>
<svg xmlns="http://www.w3.org/2000/svg" xml:space="preserve" width="238px" height="90px" style="shape-rendering:geometricPrecision; text-rendering:geometricPrecision; image-rendering:optimizeQuality; fill-rule:evenodd; clip-rule:evenodd"
viewBox="0 0 238 90.0003"
 xmlns:xlink="http://www.w3.org/1999/xlink">
 <g id="Layer_x0020_1">
  <metadata id="CorelCorpID_0Corel-Layer"/>
  <path class="fil0" d="M236.677 88.7235c0,-0.112205 0.00826774,-0.223229 0.00826774,-0.336615 0,-15.9756 -12.9508,-28.9265 -28.9277,-28.9265 -6.85278,0 -13.1445,2.3882 -18.1005,6.37089 -6.5516,-13.1871 -20.1497,-22.2532 -35.8726,-22.2532 -1.58386,0 -3.14529,0.101575 -4.68072,0.279922 -4.4386,-9.63783 -14.1745,-16.3312 -25.4812,-16.3312 -4.08072,0 -7.95357,0.878743 -11.4496,2.44489 -7.64884,-15.2516 -23.4178,-25.728 -41.6423,-25.728 -25.7174,0 -46.5651,20.8477 -46.5651,46.5663 0,3.00946 0.296458,5.94923 0.842129,8.80042 -13.7327,2.5819 -24.1241,14.6304 -24.1241,29.1131l235.993 0z"/>
 </g>
</svg>
