<?xml version="1.0" encoding="UTF-8"?>
<!DOCTYPE svg PUBLIC "-//W3C//DTD SVG 1.1//EN" "http://www.w3.org/Graphics/SVG/1.1/DTD/svg11.dtd">
<!-- Creator: CorelDRAW X5 -->
<?xml-stylesheet href="cloud3.css" type="text/css"?>
<svg xmlns="http://www.w3.org/2000/svg" xml:space="preserve" width="238px" height="121px" style="shape-rendering:geometricPrecision; text-rendering:geometricPrecision; image-rendering:optimizeQuality; fill-rule:evenodd; clip-rule:evenodd"
viewBox="0 0 238 121.002"
 xmlns:xlink="http://www.w3.org/1999/xlink">
 <g id="Layer_x0020_1">
  <metadata id="CorelCorpID_0Corel-Layer"/>
  <path class="fil0" d="M217.746 67.4766c-2.36812,-18.2823 -17.9859,-32.4072 -36.9119,-32.4072 -0.118111,0 -0.23504,0.00826774 -0.353151,0.00944885 -9.5268,-20.0906 -29.9883,-33.9875 -53.7014,-33.9875 -19.8615,0 -37.4328,9.75594 -48.2198,24.7241 -2.41064,-0.42756 -4.8886,-0.663782 -7.42207,-0.663782 -17.9859,0 -33.3332,11.2583 -39.4052,27.1076 -1.32874,-0.207875 -2.69056,-0.318899 -4.07836,-0.318899 -14.4532,0 -26.171,11.7178 -26.171,26.171 0,14.4544 11.7178,26.171 26.171,26.171 5.88191,0 11.3091,-1.93938 15.6792,-5.21458 7.42562,6.5138 17.1508,10.4717 27.8044,10.4717 6.15474,0 11.9965,-1.32874 17.269,-3.69804 10.3524,8.7709 23.7414,14.0705 38.373,14.0705 14.5465,0 27.8658,-5.23584 38.1946,-13.9158 4.81183,2.26891 10.1859,3.54332 15.8599,3.54332 7.40081,0 14.2914,-2.16851 20.0883,-5.89136 3.78072,3.60592 8.88782,5.83348 14.5264,5.83348 11.6351,0 21.0674,-9.43231 21.0674,-21.0674 0,-10.8591 -8.21696,-19.793 -18.7701,-20.9375z"/>
 </g>
</svg>
