<?xml version="1.0" encoding="UTF-8"?>
<!DOCTYPE svg PUBLIC "-//W3C//DTD SVG 1.1//EN" "http://www.w3.org/Graphics/SVG/1.1/DTD/svg11.dtd">
<!-- Creator: CorelDRAW X5 -->
<?xml-stylesheet href="cloud1.css" type="text/css"?>
<svg xmlns="http://www.w3.org/2000/svg" xml:space="preserve" width="238px" height="137px" style="shape-rendering:geometricPrecision; text-rendering:geometricPrecision; image-rendering:optimizeQuality; fill-rule:evenodd; clip-rule:evenodd"
viewBox="0 0 238 136.999"
 xmlns:xlink="http://www.w3.org/1999/xlink">
 <g id="Layer_x0020_1">
  <metadata id="CorelCorpID_0Corel-Layer"/>
  <path class="fil0" d="M217.957 82.6326c0.0425198,-0.724018 0.0708664,-1.45276 0.0708664,-2.18741 0,-20.0859 -16.2827,-36.3686 -36.3686,-36.3686 -3.81143,0 -7.48467,0.589372 -10.937,1.67717 0.00118111,-0.128741 0.00944885,-0.253938 0.00944885,-0.381497 0,-24.8576 -20.152,-45.0084 -45.0096,-45.0084 -19.8107,-0.00118111 -36.6202,12.8044 -42.6344,30.5847 -5.22994,-3.13584 -11.3481,-4.94175 -17.889,-4.94175 -19.2438,0 -34.8438,15.6001 -34.8438,34.8438 0,2.20985 0.214961,4.37009 0.60827,6.46656 -16.8508,2.44489 -29.7981,16.9465 -29.7981,34.4765 0,19.2426 15.6001,34.8426 34.8438,34.8426l173.098 0c15.3142,0 27.7277,-12.4134 27.7277,-27.7277 0,-12.2174 -7.90633,-22.5828 -18.8776,-26.2761z"/>
 </g>
</svg>
