<?xml version="1.0" encoding="UTF-8"?>
<!DOCTYPE svg PUBLIC "-//W3C//DTD SVG 1.1//EN" "http://www.w3.org/Graphics/SVG/1.1/DTD/svg11.dtd">
<!-- Creator: CorelDRAW X5 -->
<?xml-stylesheet href="cloud4.css" type="text/css"?>
<svg xmlns="http://www.w3.org/2000/svg" xml:space="preserve" width="238px" height="90px" style="shape-rendering:geometricPrecision; text-rendering:geometricPrecision; image-rendering:optimizeQuality; fill-rule:evenodd; clip-rule:evenodd"
viewBox="0 0 238 90.0003"
 xmlns:xlink="http://www.w3.org/1999/xlink">
 <g id="Layer_x0020_1">
  <metadata id="CorelCorpID_0Corel-Layer"/>
  <path class="fil0" d="M204.843 62.0553c-5.49096,0 -10.6536,1.40434 -15.1524,3.87049 -7.34058,-11.0764 -19.9123,-18.3851 -34.1978,-18.3851 -3.27757,0 -6.46301,0.395671 -9.51972,1.12205 -3.37206,-26.6186 -26.0836,-47.2065 -53.6187,-47.2065 -29.8607,0 -54.0675,24.2068 -54.0675,54.0675 0,0.0543309 0.00472443,0.107481 0.00472443,0.161812 -1.07599,-0.105118 -2.16615,-0.161812 -3.27048,-0.161812 -18.2363,0 -33.0202,14.7839 -33.0202,33.0202l234 0c-2.43072,-15.0178 -15.4524,-26.4887 -31.1576,-26.4887z"/>
 </g>
</svg>
