<?xml version="1.0" encoding="UTF-8"?>
<!DOCTYPE svg PUBLIC "-//W3C//DTD SVG 1.1//EN" "http://www.w3.org/Graphics/SVG/1.1/DTD/svg11.dtd">
<!-- Creator: CorelDRAW X5 -->
<?xml-stylesheet href="cloud5.css" type="text/css"?>
<svg xmlns="http://www.w3.org/2000/svg" xml:space="preserve" width="238px" height="90px" style="shape-rendering:geometricPrecision; text-rendering:geometricPrecision; image-rendering:optimizeQuality; fill-rule:evenodd; clip-rule:evenodd"
viewBox="0 0 238 90.0003"
 xmlns:xlink="http://www.w3.org/1999/xlink">
 <g id="Layer_x0020_1">
  <metadata id="CorelCorpID_0Corel-Layer"/>
  <path class="fil0" d="M231.395 89.4605c1.34882,-3.01418 2.10473,-6.35081 2.10473,-9.86696 0,-13.3678 -10.8367,-24.2032 -24.2056,-24.2032 -4.38781,0 -8.49924,1.17284 -12.0496,3.21497 -2.52166,-16.2355 -16.5603,-28.6643 -33.5056,-28.6643 -3.27993,0 -6.44884,0.475986 -9.45003,1.34528 -5.78152,-17.8418 -22.5272,-30.7466 -42.2954,-30.7466 -20.98,0 -38.5537,14.5371 -43.2297,34.0844 -0.950791,-0.223229 -1.93701,-0.353151 -2.95513,-0.353151 -7.12443,0 -12.9012,5.77443 -12.9012,12.9 0,1.11969 0.158268,2.2004 0.426379,3.23505 -9.62247,1.10906 -17.8288,6.86105 -22.3194,14.9634 -0.760632,-0.0720475 -1.53071,-0.112205 -2.31142,-0.112205 -13.3678,0 -24.2032,10.8367 -24.2032,24.2032l226.895 0z"/>
 </g>
</svg>
