<?xml version="1.0" encoding="UTF-8"?>
<!DOCTYPE svg PUBLIC "-//W3C//DTD SVG 1.1//EN" "http://www.w3.org/Graphics/SVG/1.1/DTD/svg11.dtd">
<!-- Creator: CorelDRAW X5 -->
<?xml-stylesheet href="cloud8.css" type="text/css"?>
<svg xmlns="http://www.w3.org/2000/svg" xml:space="preserve" width="151px" height="84px" style="shape-rendering:geometricPrecision; text-rendering:geometricPrecision; image-rendering:optimizeQuality; fill-rule:evenodd; clip-rule:evenodd"
viewBox="0 0 151 84.0004"
 xmlns:xlink="http://www.w3.org/1999/xlink">
 <g id="Layer_x0020_1">
  <metadata id="CorelCorpID_0Corel-Layer"/>
  <path class="fil0" d="M150.935 46.7932c0.0177166,-0.488979 0.0366144,-0.977958 0.0366144,-1.47166l0 -0.392128 -0.303545 0.0283466c-2.71773,-15.7206 -16.4139,-27.6805 -32.9116,-27.6805 -2.28426,0 -4.51538,0.231497 -6.67208,0.668507 -7.20004,-10.8709 -19.5355,-18.0438 -33.5517,-18.0438 -21.1218,0 -38.4285,16.2828 -40.0833,36.9781 -3.65907,-2.06458 -7.88154,-3.24923 -12.3827,-3.24923 -13.9359,0 -25.2344,11.2973 -25.2344,25.2332l0 0.252757c0,13.7977 11.1851,24.9816 24.9816,24.9816l87.3808 0c0.960241,0 1.90867,-0.0472443 2.85001,-0.114568 0.89528,0.0708665 1.79883,0.114568 2.71183,0.114568 18.4536,0 33.4112,-14.9576 33.4112,-33.4112 0,-1.31812 -0.0838587,-2.61497 -0.232678,-3.89411z"/>
 </g>
</svg>
