<?xml version="1.0" encoding="UTF-8"?>
<!DOCTYPE svg PUBLIC "-//W3C//DTD SVG 1.1//EN" "http://www.w3.org/Graphics/SVG/1.1/DTD/svg11.dtd">
<!-- Creator: CorelDRAW X5 -->
<?xml-stylesheet href="cloud9.css" type="text/css"?>
<svg xmlns="http://www.w3.org/2000/svg" xml:space="preserve" width="144px" height="84px" style="shape-rendering:geometricPrecision; text-rendering:geometricPrecision; image-rendering:optimizeQuality; fill-rule:evenodd; clip-rule:evenodd"
viewBox="0 0 144 84"
 xmlns:xlink="http://www.w3.org/1999/xlink">
 <g id="Layer_x0020_1">
  <metadata id="CorelCorpID_0Corel-Layer"/>
  <path class="fil0" d="M128.444 37.2709c-0.470079,-11.1071 -9.62008,-19.9689 -20.8429,-19.9689 -3.22559,0 -6.27992,0.732283 -9.00591,2.03858 -2.76732,-10.4976 -12.3224,-18.2386 -23.6894,-18.2386 -8.12717,0 -15.3248,3.96024 -19.7823,10.0524 -3.29409,-1.64764 -7.00748,-2.57953 -10.9406,-2.57953 -13.5295,0 -24.4984,10.9689 -24.4984,24.4996 0,0.00354331 0,0.00708661 0,0.011811 -0.646063,-0.0744094 -1.30157,-0.116929 -1.96772,-0.116929 -9.46063,0 -17.1307,7.67008 -17.1307,17.1307 0,9.46063 7.67008,17.1295 17.1307,17.1295 2.31378,0 4.5189,-0.46063 6.53386,-1.29213 2.65512,6.02126 8.67283,10.2272 15.6768,10.2272 4.08661,0 7.83543,-1.43268 10.7799,-3.81969 5.99173,6.4878 14.5665,10.5531 24.0945,10.5531 7.6748,0 14.7283,-2.64331 20.3161,-7.05945 2.56063,1.5248 5.55,2.40236 8.74606,2.40236 6.35787,0 11.902,-3.46535 14.8571,-8.60906 2.28189,1.12441 4.84724,1.75866 7.56142,1.75866 9.46181,0 17.1307,-7.67008 17.1307,-17.1307 0,-8.72717 -6.52913,-15.926 -14.9693,-16.989z"/>
 </g>
</svg>
