<?xml version="1.0" encoding="UTF-8"?>
<!DOCTYPE svg PUBLIC "-//W3C//DTD SVG 1.1//EN" "http://www.w3.org/Graphics/SVG/1.1/DTD/svg11.dtd">
<!-- Creator: CorelDRAW X5 -->
<?xml-stylesheet href="cloud2.css" type="text/css"?>
<svg xmlns="http://www.w3.org/2000/svg" xml:space="preserve" width="238px" height="127px" style="shape-rendering:geometricPrecision; text-rendering:geometricPrecision; image-rendering:optimizeQuality; fill-rule:evenodd; clip-rule:evenodd"
viewBox="0 0 238 127.002"
 xmlns:xlink="http://www.w3.org/1999/xlink">
 <g id="Layer_x0020_1">
  <metadata id="CorelCorpID_0Corel-Layer"/>
  <path class="fil0" d="M113.965 97.511l-2.6693 0c0.695672,-0.338977 1.38426,-0.688585 2.06103,-1.05709 0.197245,0.355513 0.402757,0.706302 0.60827,1.05709zm94.9987 -28.0359c-4.31694,0 -8.39058,1.0063 -12.0426,2.74962 -1.43032,-23.3316 -20.7957,-41.8135 -44.4864,-41.8135 -5.70711,0 -11.1567,1.08426 -16.1717,3.03781 -7.40199,-18.7323 -25.6584,-31.9914 -47.0234,-31.9914 -27.3036,-0.00118111 -49.5391,21.6485 -50.5076,48.7171 -0.0153544,-0.00118111 -0.0307088,-0.00118111 -0.0460631,-0.00118111 -20.8146,0 -37.6867,16.8721 -37.6867,37.6867 0,20.8123 16.8721,37.6856 37.6867,37.6856l170.278 0c15.4843,0 28.0359,-12.5516 28.0359,-28.0347 0,-15.4831 -12.5516,-28.0347 -28.0359,-28.0359z"/>
 </g>
</svg>
