<?xml version="1.0" encoding="UTF-8"?>
<!DOCTYPE svg PUBLIC "-//W3C//DTD SVG 1.1//EN" "http://www.w3.org/Graphics/SVG/1.1/DTD/svg11.dtd">
<!-- Creator: CorelDRAW X5 -->
<?xml-stylesheet href="formula.css" type="text/css"?>
<svg xmlns="http://www.w3.org/2000/svg" xml:space="preserve" width="71px" height="36px" style="shape-rendering:geometricPrecision; text-rendering:geometricPrecision; image-rendering:optimizeQuality; fill-rule:evenodd; clip-rule:evenodd"
viewBox="0 0 71 36.0008"
 xmlns:xlink="http://www.w3.org/1999/xlink">
 <g id="Layer_x0020_1">
  <metadata id="CorelCorpID_0Corel-Layer"/>
  <g id="_219966344">
   <path id="_1137871752" class="fil0" d="M19.4284 10.3762c-4.58514,-1.24255 -6.45251,5.21114 -8.87382,8.72618l-0.791356 0.998054 -0.421663 -0.866948c-0.845688,-1.72681 -1.67012,-3.45244 -2.42249,-5.23594 -0.283471,-0.686236 -0.600013,-1.5898 -1.18113,-2.08824 -1.75398,-1.13979 -3.02133,-0.902382 -3.7926,0.713402 -0.349614,1.10199 -0.435836,2.31501 -0.126381,3.44063 0.614187,2.21343 1.87445,4.24379 3.0355,6.20447 0.165358,0.277565 0.362606,0.569304 0.566942,0.870492l0.594108 0.974431 -0.719307 0.851594c-0.587021,0.699228 -1.15396,1.41145 -1.66893,2.16973 -0.553949,0.832696 -3.66859,6.87417 -0.91065,6.92259 1.95949,0.0354339 3.99221,-1.74571 5.06114,-3.25283 0.929548,-1.30042 1.81421,-2.63037 2.70478,-3.95796l0.686236 -1.02286 0.592927 1.55318c0.527964,1.45515 1.04294,2.90794 2.09178,4.09143 1.38546,1.56263 4.18356,3.49023 5.20523,0.356701 1.23428,-3.78434 -1.45751,-6.02966 -3.11345,-8.82421l-0.50198 -0.946084 0.653164 -1.1079c2.22407,-3.62016 6.38046,-9.74667 3.33196,-10.5699z"/>
   <path id="_1137871704" class="fil1" d="M17.3047 30.8771c-2.89022,1.03231 -4.93594,-3.48669 -5.94462,-5.79934 -1.32641,1.45987 -4.75759,5.21704 -5.44382,3.58118 -0.784269,-1.88981 0.488987,-4.2686 1.76815,-5.82769 -3.27881,-2.34926 -5.37059,-5.71194 -5.90446,-9.57187 -0.19843,0.92128 -0.217328,1.89099 0.0389772,2.804 0.614187,2.21343 1.87445,4.24379 3.0355,6.20447 0.165358,0.277565 0.362606,0.569304 0.566942,0.870492l0.594108 0.974431 -0.719307 0.851594c-0.587021,0.699228 -1.15396,1.41145 -1.66893,2.16973 -0.553949,0.832696 -3.66859,6.87417 -0.91065,6.92259 1.95949,0.0354339 3.99221,-1.74571 5.06114,-3.25283 0.929548,-1.30042 1.81421,-2.63037 2.70478,-3.95796l0.686236 -1.02286 0.592927 1.55318c0.527964,1.45515 1.04294,2.90794 2.09178,4.09143 1.38546,1.56263 4.18356,3.49023 5.20523,0.356701 0.415757,-1.27798 0.37678,-2.37761 0.0933092,-3.38393 -0.250399,1.11262 -0.798443,2.06225 -1.84729,2.43667z"/>
   <path id="_1142325680" class="fil0" d="M31.6873 16.9693c-1.20711,0.29292 -2.40832,0.634266 -3.62252,0.926005 -0.1252,0.74293 -0.1252,1.50712 0.106302,2.31265 0.0720488,0.235045 0.144098,0.448829 0.23032,0.644896 1.92642,-0.740568 3.97804,-1.38428 6.01076,-1.76697 0.0129924,-0.279927 0,-0.579934 -0.07323,-0.913012 -0.1252,-0.595289 -0.329535,-1.14688 -0.592927,-1.67248 -0.686236,0.159452 -1.37956,0.304731 -2.05871,0.468908z"/>
   <path id="_1142325776" class="fil0" d="M50.5429 10.5097c-1.61578,-0.407489 -2.55242,0.735843 -3.38393,2.05044l-0.514972 0.851594 -0.627179 -0.709858c-0.362606,-0.422844 -0.725213,-0.845688 -1.11499,-1.25082 -1.3583,-1.41381 -2.99534,-0.660251 -3.60126,1.0453 -0.509066,1.42798 0.850413,2.6351 2.14375,3.69693l0.673243 0.558674 -0.323629 0.473633c-1.31341,1.95713 -3.41819,5.32689 -1.18822,5.96706 2.38942,0.687417 3.19377,-1.07128 4.11741,-2.75912l0.4819 -0.822065 0.646077 0.675606c1.45869,1.52838 3.70756,3.75717 4.40089,1.21892 0.548044,-2.00556 -0.798443,-3.09692 -2.10477,-4.26269l-0.771277 -0.728756 0.553949 -0.558674c0.725213,-0.707496 1.49058,-1.38192 2.0717,-2.20635 0.323629,-0.454734 0.831515,-1.12798 0.653164,-1.72917 -0.257486,-0.868129 -1.31341,-1.30869 -2.11186,-1.51066z"/>
   <path id="_1132597504" class="fil1" d="M51.5728 20.4713c-0.78545,0.0744111 -1.41263,0.0106302 -2.16383,-0.27166 -0.719307,-0.275203 -1.88744,-1.73035 -2.38234,-1.33349 -0.778364,0.61773 -1.81421,1.36302 -2.59258,0.392135 -0.844507,-1.05593 0.224414,-2.74258 0.903563,-3.87646 -1.61578,-0.503161 -3.14062,-1.08309 -4.00521,-2.65872 -0.0188981,-0.0437018 -0.0389772,-0.0874035 -0.0590564,-0.131105 -0.415757,1.38664 0.91065,2.56305 2.17091,3.60126l0.673243 0.558674 -0.323629 0.473633c-1.31341,1.95713 -3.41819,5.32689 -1.18822,5.96706 2.38942,0.687417 3.19377,-1.07128 4.11741,-2.75912l0.4819 -0.822065 0.646077 0.675606c1.45869,1.52838 3.70756,3.75717 4.40089,1.21892 0.1252,-0.464184 0.151184,-0.87876 0.0992148,-1.2579 -0.231501,0.109845 -0.488987,0.196067 -0.778364,0.223233z"/>
   <path id="_1132597672" class="fil0" d="M23.9084 10.7624c-0.270478,1.16223 2.81109,1.48232 3.47016,1.4646 1.15514,-0.0295282 2.29611,-0.206697 3.45126,-0.237407 -0.0141735,-0.92128 0.296463,-1.88862 0.480719,-2.81935 -0.592927,0.106302 -1.18703,0.207879 -1.78114,0.335441 -0.804349,0.174807 -1.54374,0.490168 -2.33509,0.692141 -0.514972,0.129924 -0.890571,-0.589383 -0.474814,-0.927186 0.224414,-0.180713 0.480719,-0.325991 0.751198,-0.455916 1.01695,-0.758285 1.70319,-1.70319 2.10477,-3.00361 0.224414,-0.724032 0.363788,-1.51421 0.106302,-2.24887 -0.415757,-1.19294 -1.74925,-1.7398 -2.91621,-1.81303 -1.26026,-0.0779545 -2.73786,0.190162 -3.64851,1.13625 -0.83742,0.870492 -0.673243,1.76342 -0.415757,2.71541 0.548044,-0.918918 1.39846,-1.77169 2.46738,-1.73862 1.24018,0.0389772 1.51066,1.16814 1.33231,2.20871 -0.164177,0.974431 -0.672062,1.91107 -1.24609,2.7036 -0.415757,0.57521 -1.17522,1.27562 -1.34649,1.98784z"/>
   <path id="_1132597600" class="fil1" d="M25.7829 10.2794c-0.507885,-0.266935 -0.80553,-0.570485 -0.950808,-0.980337 -0.382686,0.454734 -0.798443,0.956714 -0.923643,1.46342 -0.270478,1.16223 2.81109,1.48232 3.47016,1.4646 1.15514,-0.0295282 2.29611,-0.206697 3.45126,-0.237407 -0.0141735,-0.911831 0.289376,-1.86973 0.480719,-2.79101 -1.72799,1.11853 -3.70048,2.0339 -5.52768,1.08073z"/>
   <path id="_1132597432" class="fil1" d="M31.4889 23.9875c-1.20711,0.291739 -2.40832,0.633085 -3.61543,0.924824 -0.131105,0.74293 -0.132286,1.5083 0.10512,2.31383 0.0673243,0.233863 0.145279,0.447648 0.231501,0.644896 1.91933,-0.740568 3.97804,-1.38546 6.01076,-1.76933 0.0129924,-0.278746 -0.00708677,-0.578753 -0.0791356,-0.913012 -0.1252,-0.594108 -0.330716,-1.14569 -0.594108,-1.6713 -0.686236,0.159452 -1.37247,0.30355 -2.05871,0.470089z"/>
   <path id="_214318448" class="fil0" d="M67.4661 6.94622c-1.61578,-0.40867 -2.55951,0.735843 -3.38511,2.05044l-0.520878 0.851594 -0.625998 -0.709858c-0.356701,-0.422844 -0.719307,-0.846869 -1.10908,-1.25082 -1.3583,-1.41381 -2.99534,-0.662613 -3.60244,1.04294 -0.507885,1.42917 0.851594,2.6351 2.14493,3.70048l0.672062 0.557493 -0.322448 0.474814c-1.31341,1.95477 -3.41819,5.32571 -1.19412,5.96588 2.39533,0.688598 3.19968,-1.07128 4.12332,-2.75794l0.4819 -0.824428 0.646077 0.675606c1.45751,1.52956 3.70756,3.75953 4.40089,1.21892 0.548044,-2.00556 -0.798443,-3.09692 -2.10477,-4.26269l-0.772458 -0.727575 0.55513 -0.558674c0.719307,-0.708677 1.49058,-1.38192 2.0717,-2.20753 0.322448,-0.453553 0.830333,-1.12798 0.653164,-1.72917 -0.264573,-0.868129 -1.31341,-1.30751 -2.11186,-1.50948z"/>
   <path id="_214318736" class="fil1" d="M67.6243 15.9783c-0.666157,-0.10512 -1.31341,-0.288195 -1.90044,-0.641353 -1.06774,-0.636628 -0.672062,-0.537413 -1.68901,0.186618 -0.613006,0.437018 -1.84729,0.529146 -2.0717,-0.433474 -0.223233,-0.954352 0.132286,-1.89807 0.706315,-2.67171 -1.54964,-0.550406 -3.04141,-1.35239 -3.62843,-3.01778 -0.158271,-0.458278 -0.283471,-0.918918 -0.343708,-1.36538 -0.190162,0.253943 -0.35552,0.55513 -0.474814,0.895295 -0.507885,1.42917 0.851594,2.6351 2.14493,3.70048l0.672062 0.557493 -0.322448 0.474814c-1.31341,1.95477 -3.41819,5.32571 -1.19412,5.96588 2.39533,0.688598 3.19968,-1.07128 4.12332,-2.75794l0.4819 -0.824428 0.646077 0.675606c1.45751,1.52956 3.70756,3.75953 4.40089,1.21892 0.244494,-0.887028 0.112207,-1.59334 -0.217328,-2.20989 -0.37678,0.220871 -0.818522,0.327173 -1.33349,0.246856z"/>
   <path id="_214318400" class="fil1" d="M55.2674 15.7055c-0.296463,0.250399 -0.620092,0.47127 -0.7323,0.901201 -0.1252,0.492531 0.296463,0.811435 0.738205,0.603557 0.396859,-0.188981 0.80553,-0.540957 0.91065,-0.989786 0.046064,-0.199611 -0.0330716,-0.367331 -0.211422,-0.470089 -0.223233,-0.124018 -0.461821,-0.0803167 -0.705134,-0.0448829z"/>
   <path id="_214318784" class="fil2" d="M15.9452 23.0001c1.65594,2.79455 4.34773,5.03988 3.11345,8.82421 -1.02168,3.13353 -3.81977,1.20593 -5.20523,-0.356701 -1.04884,-1.18349 -1.56381,-2.63628 -2.09178,-4.09143l-0.592927 -1.55318 -0.686236 1.02286c-0.890571,1.32759 -1.77524,2.65754 -2.70478,3.95796 -1.06892,1.50712 -3.10164,3.28826 -5.06114,3.25283 -2.75794,-0.0484263 0.356701,-6.0899 0.91065,-6.92259 0.514972,-0.758285 1.08191,-1.47051 1.66893,-2.16973l0.719307 -0.851594 -0.592927 -0.974431c-0.205516,-0.301188 -0.402765,-0.592927 -0.568123,-0.870492 -1.16105,-1.96067 -2.42131,-3.99103 -3.0355,-6.20447 -0.309456,-1.12562 -0.223233,-2.33863 0.126381,-3.44063 0.771277,-1.61578 2.03863,-1.85319 3.7926,-0.713402 0.581115,0.498436 0.897658,1.402 1.18113,2.08824 0.752379,1.7835 1.57681,3.51031 2.42131,5.23594l0.422844 0.866948 0.791356 -0.998054c2.42131,-3.51622 4.28868,-9.96873 8.87382,-8.72618 3.04849,0.823247 -1.1079,6.94976 -3.33196,10.5699l-0.653164 1.1079 0.50198 0.946084zm4.38081 -13.4885c-2.29611,-1.51303 -4.80365,0.244494 -6.20801,2.01855 -1.51066,1.89925 -2.96936,4.13867 -4.1434,6.40526 -0.448829,-0.883484 -0.904744,-1.76461 -1.31341,-2.66463 -0.666157,-1.44334 -1.02286,-2.89731 -2.05162,-4.15167 -1.49058,-1.82484 -4.30167,-1.22601 -5.49579,0.51261 -1.39255,2.02445 -0.494893,4.96901 0.415757,6.96039 0.745292,1.65358 1.73508,3.20204 2.71069,4.72688 0.126381,0.201973 0.257486,0.422844 0.396859,0.647258 -1.34649,1.47169 -2.52762,3.10282 -3.37803,4.8131 -0.712221,1.43389 -1.55082,4.99735 0.237407,6.09817 3.40401,2.08824 7.08559,-2.52643 9.61911,-6.47258 0.699228,1.75043 1.41145,3.4548 2.95518,4.86979 1.29452,1.1953 3.12763,2.02445 4.73751,0.943722 1.93351,-1.29924 2.15084,-4.38317 1.51066,-6.38282 -0.646077,-2.01501 -2.09768,-4.11623 -3.51622,-5.98005 2.63864,-3.5611 7.11866,-9.96873 3.52331,-12.344z"/>
   <path id="_219968272" class="fil2" d="M34.4122 19.0859c-2.03272,0.382686 -4.08434,1.0264 -6.01076,1.76697 -0.0850413,-0.196067 -0.158271,-0.409852 -0.23032,-0.644896 -0.231501,-0.80553 -0.231501,-1.56972 -0.106302,-2.31265 1.2142,-0.291739 2.41541,-0.633085 3.62252,-0.926005 0.679149,-0.164177 1.37247,-0.309456 2.05871,-0.468908 0.263392,0.525602 0.467727,1.07719 0.592927,1.67248 0.07323,0.333078 0.0862224,0.633085 0.07323,0.913012zm0.35552 -2.83825l-0.633085 -0.99451 -1.01577 0.168901c-1.5898,0.288195 -3.20676,0.726394 -4.72451,1.25436l-1.25908 0.465365 -0.165358 1.00278c-0.092128,1.03113 0.0531508,2.13666 0.402765,3.12054l0.395678 0.894114 1.22719 -0.335441c1.00986,-0.279927 2.01855,-0.556312 3.02841,-0.818522 0.620092,-0.160633 1.24018,-0.300007 1.86618,-0.438199l1.32641 -0.300007 0.211422 -1.35121c0.00708677,-0.0496074 0.00708677,-0.100396 0.00708677,-0.150003 -0.0141735,-0.870492 -0.257486,-1.73508 -0.667338,-2.51817z"/>
   <path id="_219968248" class="fil2" d="M34.2208 26.1018c-2.03272,0.383867 -4.09143,1.02876 -6.01076,1.76933 -0.0850413,-0.197248 -0.165358,-0.411033 -0.231501,-0.644896 -0.236226,-0.80553 -0.237407,-1.5709 -0.10512,-2.31383 1.20829,-0.291739 2.40832,-0.633085 3.61543,-0.924824 0.686236,-0.166539 1.37247,-0.310637 2.05871,-0.470089 0.263392,0.525602 0.468908,1.07719 0.594108,1.6713 0.0720488,0.334259 0.092128,0.635447 0.0791356,0.913012zm0.356701 -2.83825l-0.640172 -0.99451 -1.01695 0.171264c-1.5898,0.287014 -3.20558,0.726394 -4.72333,1.25318l-1.26026 0.464184 -0.165358 1.00278c-0.0850413,1.03231 0.0531508,2.13902 0.402765,3.12172l0.395678 0.894114 1.23428 -0.335441c1.00278,-0.278746 2.01146,-0.55513 3.02841,-0.818522 0.613006,-0.159452 1.24018,-0.298826 1.86618,-0.438199l1.3205 -0.298826 0.217328 -1.35239c0,-0.0496074 0,-0.101577 0,-0.150003 -0.0129924,-0.871673 -0.257486,-1.73508 -0.65907,-2.51935z"/>
   <path id="_219968344" class="fil2" d="M30.8298 11.9896c-1.15514,0.0307093 -2.29611,0.207879 -3.45126,0.237407 -0.65907,0.0177169 -3.74063,-0.302369 -3.47016,-1.4646 0.171264,-0.712221 0.930729,-1.41263 1.34649,-1.98784 0.574028,-0.792537 1.08191,-1.72799 1.24609,-2.7036 0.17835,-1.04176 -0.092128,-2.16973 -1.33231,-2.20871 -1.06892,-0.0330716 -1.92052,0.819703 -2.46738,1.73862 -0.257486,-0.95199 -0.422844,-1.84492 0.415757,-2.71541 0.91065,-0.946084 2.38824,-1.2142 3.64851,-1.13625 1.16696,0.07323 2.50045,0.620092 2.91621,1.81303 0.257486,0.734662 0.118113,1.52602 -0.106302,2.24887 -0.401584,1.30042 -1.08782,2.24533 -2.10477,3.00361 -0.270478,0.129924 -0.526783,0.275203 -0.751198,0.455916 -0.415757,0.337803 -0.0401584,1.05711 0.474814,0.927186 0.791356,-0.203154 1.53074,-0.517334 2.33509,-0.692141 0.594108,-0.127562 1.18822,-0.229139 1.78114,-0.335441 -0.184256,0.930729 -0.494893,1.89807 -0.480719,2.81935zm1.09491 -4.17293c-0.620092,0.127562 -1.33349,0.211422 -2.05162,0.329535 0.850413,-1.40436 1.25318,-3.2481 1.01577,-4.51664 -0.343708,-1.80122 -2.0717,-2.73195 -3.74063,-2.96818 -1.68311,-0.238588 -3.67567,0.256305 -4.86979,1.51421 -1.14097,1.19885 -1.16105,3.25991 -0.0519697,4.4564 -0.0141735,0.203154 0.184256,0.343708 0.368512,0.318905 0.185437,0.0803167 0.396859,-0.120475 0.356701,-0.318905 0,-0.0106302 0,-0.0200792 0,-0.0307093 0.461821,-0.675606 1.00986,-1.28625 1.76106,-1.6524 1.48586,-0.729937 0.415757,1.93587 0.19843,2.35163 -0.587021,1.12325 -1.68193,2.08824 -1.97248,3.34732 -0.231501,0.99451 0.653164,1.67956 1.47759,2.01028 2.25714,0.911831 4.42096,0.504342 6.78204,0.351976 0.363788,-0.0236226 0.548044,-0.342527 0.522059,-0.620092 0.640172,-1.09609 0.811435,-2.72604 0.936635,-3.9367 0.046064,-0.401584 -0.356701,-0.713402 -0.7323,-0.636628z"/>
   <path id="_219968200" class="fil2" d="M52.0015 13.7495c-0.581115,0.824428 -1.34649,1.49885 -2.0717,2.20635l-0.553949 0.558674 0.771277 0.728756c1.30633,1.16577 2.65281,2.25714 2.10477,4.26269 -0.692141,2.53825 -2.94219,0.309456 -4.40089,-1.21892l-0.646077 -0.675606 -0.4819 0.822065c-0.923643,1.68783 -1.72799,3.44653 -4.11741,2.75912 -2.22997,-0.640172 -0.1252,-4.00993 1.18822,-5.96588l0.323629 -0.474814 -0.673243 -0.558674c-1.29334,-1.06183 -2.65281,-2.26895 -2.14375,-3.69693 0.605919,-1.70673 2.24296,-2.45911 3.60126,-1.0453 0.389772,0.405127 0.752379,0.827971 1.11499,1.25082l0.627179 0.709858 0.514972 -0.851594c0.831515,-1.3146 1.76815,-2.45675 3.38393,-2.05044 0.798443,0.201973 1.85437,0.642534 2.11186,1.51066 0.17835,0.601194 -0.330716,1.27444 -0.653164,1.72917zm0.30355 -3.6178c-2.48037,-1.49649 -4.3749,-0.179532 -5.75328,1.74335 -1.62287,-1.80358 -3.35795,-3.36031 -5.44973,-0.820884 -1.83429,2.2347 0.0259848,4.15875 1.9465,5.62217 -1.58389,2.02682 -3.55047,5.75446 -1.38546,7.07142 2.71187,1.65122 4.47293,-0.338984 5.71312,-2.55596 1.53074,1.72563 3.68748,3.67331 5.44264,1.48704 0.950808,-1.17995 0.772458,-3.04377 -0.00590564,-4.22726 -0.494893,-0.74293 -1.17404,-1.31578 -1.90044,-1.83193 2.15084,-1.87799 4.22962,-4.7753 1.39255,-6.48794z"/>
   <path id="_219966488" class="fil2" d="M68.9248 10.1849c-0.581115,0.825609 -1.35357,1.49885 -2.0717,2.20753l-0.55513 0.558674 0.772458 0.727575c1.30633,1.16577 2.65163,2.25714 2.10477,4.26269 -0.693322,2.54061 -2.94337,0.310637 -4.40089,-1.21892l-0.646077 -0.675606 -0.4819 0.824428c-0.923643,1.68665 -1.72917,3.44653 -4.12332,2.75794 -2.22407,-0.640172 -0.119294,-4.01111 1.19412,-5.96588l0.322448 -0.474814 -0.672062 -0.558674c-1.29334,-1.0642 -2.65281,-2.27013 -2.14493,-3.69929 0.6071,-1.70555 2.24296,-2.45675 3.60244,-1.04294 0.389772,0.403946 0.752379,0.827971 1.10908,1.25082l0.625998 0.709858 0.522059 -0.851594c0.824428,-1.31578 1.76815,-2.45911 3.38393,-2.05044 0.798443,0.201973 1.84729,0.641353 2.11186,1.50948 0.17835,0.601194 -0.330716,1.27562 -0.653164,1.72917zm0.30355 -3.6178c-2.48155,-1.49649 -4.3749,-0.179532 -5.75328,1.74453 -1.62287,-1.80358 -3.35913,-3.36149 -5.44973,-0.820884 -1.83429,2.23351 0.0259848,4.15875 1.94532,5.62099 -1.58271,2.028 -3.54929,5.75564 -1.38546,7.07142 2.71305,1.65122 4.47411,-0.336622 5.7143,-2.55596 1.53074,1.72681 3.68748,3.67567 5.44264,1.48704 0.950808,-1.17995 0.772458,-3.04259 -0.0129924,-4.22726 -0.487806,-0.741749 -1.16814,-1.31578 -1.89335,-1.83075 2.15084,-1.87918 4.22844,-4.77648 1.39255,-6.48912z"/>
   <path id="_219966296" class="fil2" d="M56.1839 16.2204c-0.10512,0.448829 -0.514972,0.800805 -0.91065,0.989786 -0.441742,0.206697 -0.863405,-0.111026 -0.738205,-0.603557 0.112207,-0.429931 0.434655,-0.650802 0.7323,-0.90002 0.243312,-0.036615 0.4819,-0.0803167 0.705134,0.0437018 0.17835,0.102758 0.257486,0.270478 0.211422,0.470089zm-1.14097 -1.29334c-0.283471,0.0779545 -0.548044,0.301188 -0.759466,0.499617 -0.375599,0.357882 -0.646077,0.887028 -0.653164,1.41027 -0.00590564,0.491349 0.297644,0.955533 0.713402,1.19648 0.402765,0.232682 0.850413,0.165358 1.26617,0.0165358 0.772458,-0.272841 1.49177,-1.12916 1.49177,-1.95949 0.00590564,-1.0016 -1.24137,-1.66657 -2.05871,-1.16341z"/>
  </g>
 </g>
</svg>
